<?xml version="1.0" standalone="no"?>
<!DOCTYPE svg PUBLIC "-//W3C//DTD SVG 1.1//EN" "http://www.w3.org/Graphics/SVG/1.1/DTD/svg11.dtd" >
<svg>
<metadata>
Created by FontForge 20120731 at Sun May 29 12:27:03 2016
 By www
Copyright (c) 2012 by Rui Abreu, Portugal. All rights reserved. Designed by Rui Abreu.
</metadata>
<defs>
<font id="AzoSansW01-Medium" horiz-adv-x="820" >
  <font-face 
    font-family="AzoSansW01-Medium"
    font-weight="600"
    font-stretch="normal"
    units-per-em="1000"
    panose-1="2 11 7 3 3 3 3 2 2 4"
    ascent="800"
    descent="-200"
    x-height="492"
    cap-height="724"
    bbox="-45 -231 1316 1016"
    underline-thickness="50"
    underline-position="-125"
    unicode-range="U+000D-2122"
  />
<missing-glyph horiz-adv-x="646" 
d="M282 735l213 -212l-101 -101l101 -100l-101 -101l101 -100l-132 -132l-212 213l100 100l-100 101l100 100l-100 101z" />
    <glyph glyph-name=".notdef" horiz-adv-x="646" 
d="M282 735l213 -212l-101 -101l101 -100l-101 -101l101 -100l-132 -132l-212 213l100 100l-100 101l100 100l-100 101z" />
    <glyph glyph-name=".null" horiz-adv-x="0" 
 />
    <glyph glyph-name="uni000D" unicode="&#xd;" horiz-adv-x="240" 
 />
    <glyph glyph-name="glyph221" horiz-adv-x="1" 
 />
    <glyph glyph-name="glyph221" horiz-adv-x="1" 
 />
    <glyph glyph-name="space" unicode=" " horiz-adv-x="240" 
 />
    <glyph glyph-name="exclam" unicode="!" horiz-adv-x="300" 
d="M84 724h133l-21 -492h-92zM75 64q0 31 22 53t53 22t53 -22t22 -53t-22 -53t-53 -22t-53 22t-22 53z" />
    <glyph glyph-name="quotedbl" unicode="&#x22;" horiz-adv-x="363" 
d="M40 742h107l-13 -276h-81zM216 742h107l-13 -276h-81z" />
    <glyph glyph-name="numbersign" unicode="#" horiz-adv-x="626" 
d="M499 510h116l-22 -77h-116l-41 -142h116l-22 -77h-116l-61 -214h-82l61 214h-123l-61 -214h-82l61 214h-116l22 77h116l41 142h-116l22 77h116l61 214h82l-61 -214h123l61 214h82zM231 291h123l41 142h-123z" />
    <glyph glyph-name="dollar" unicode="$" horiz-adv-x="586" 
d="M244 49q-42 5 -83 16t-76 30v123q51 -34 108 -49.5t100 -15.5q48 0 77.5 18t29.5 57q0 24 -12.5 38.5t-33.5 23.5t-49 15t-59 14q-37 10 -69 23t-56 33t-38 48.5t-14 69.5q0 76 48 122.5t127 57.5v127h95v-125q40 -4 80.5 -15t73.5 -29v-119q-50 30 -103.5 44.5
t-95.5 14.5q-45 0 -73 -16.5t-28 -52.5q0 -23 12 -36.5t32.5 -22t47.5 -14.5t57 -14q38 -10 71 -23t58 -33.5t39 -50t14 -71.5q0 -41 -13.5 -73.5t-38.5 -56t-59 -38t-74 -19.5v-126h-95v125z" />
    <glyph glyph-name="percent" unicode="%" horiz-adv-x="944" 
d="M658 724h105l-477 -724h-105zM228 448q39 0 61 29t22 71t-22 71t-61 29t-61 -29t-22 -71t22 -71t61 -29zM228 361q-40 0 -73 14t-57 39t-37 59t-13 75q0 40 13 74.5t37 59.5t57 39t73 14t73 -14t57 -39t37 -59.5t13 -74.5t-13 -74.5t-37 -59.5t-57 -39t-73 -14zM716 276
q-39 0 -61 -29t-22 -71t22 -71t61 -29t61 29t22 71t-22 71t-61 29zM716 363q40 0 73 -14t57 -39t37 -59.5t13 -74.5t-13 -74.5t-37 -59.5t-57 -39t-73 -14t-73 14t-57 39t-37 59.5t-13 74.5t13 74.5t37 59.5t57 39t73 14z" />
    <glyph glyph-name="ampersand" unicode="&#x26;" horiz-adv-x="707" 
d="M666 434l-101 -267l164 -165l-1 -2h-151l-69 69q-31 -35 -82 -57.5t-126 -22.5q-64 0 -111.5 17.5t-79 47t-47 67t-15.5 77.5q0 60 35 107.5t98 80.5l10 5l-15 16q-32 32 -53.5 69t-21.5 83q0 38 15 70.5t42 56t63.5 37t79.5 13.5q44 0 80.5 -14t62.5 -38t40.5 -56.5
t14.5 -68.5q0 -54 -28.5 -94.5t-72.5 -68.5l-35 -23l116 -117l64 178h124zM237 303q-37 -20 -53 -47t-16 -54q0 -20 8 -39t25 -34t42.5 -24.5t60.5 -9.5q45 0 74.5 16.5t46.5 42.5l-161 163zM325 472q24 17 38.5 36.5t14.5 46.5q0 34 -22.5 54t-57.5 20q-37 0 -57.5 -21.5
t-20.5 -51.5q0 -21 10.5 -40.5t32.5 -42.5l26 -27z" />
    <glyph glyph-name="quotesingle" unicode="'" horiz-adv-x="187" 
d="M40 742h107l-13 -276h-81z" />
    <glyph glyph-name="parenleft" unicode="(" horiz-adv-x="362" 
d="M216 -213q-30 38 -56.5 87.5t-46.5 109.5t-31.5 130.5t-11.5 150.5t11.5 150.5t31.5 130.5t46.5 109.5t56.5 87.5h115q-32 -41 -59 -92.5t-47.5 -112t-32 -129t-11.5 -144.5t11.5 -144.5t32 -129t47.5 -112t59 -92.5h-115z" />
    <glyph glyph-name="parenright" unicode=")" horiz-adv-x="362" 
d="M146 743q30 -38 56.5 -87.5t46.5 -109.5t31.5 -130.5t11.5 -150.5t-11.5 -150.5t-31.5 -130.5t-46.5 -109.5t-56.5 -87.5h-115q31 41 58.5 92.5t48 112t32 129t11.5 144.5t-11.5 144.5t-32 129t-48 112t-58.5 92.5h115z" />
    <glyph glyph-name="asterisk" unicode="*" horiz-adv-x="453" 
d="M187 727h79l-15 -147h-49zM264 571l137 60l24 -77l-147 -30zM28 554l24 77l137 -60l-14 -47zM235 480l40 28l99 -110l-65 -47zM79 398l99 110l40 -28l-74 -129z" />
    <glyph glyph-name="plus" unicode="+" horiz-adv-x="594" 
d="M249 317h-196v91h196v200h96v-200h196v-91h-196v-201h-96v201z" />
    <glyph glyph-name="comma" unicode="," horiz-adv-x="300" 
d="M105 145h115l-85 -292h-86z" />
    <glyph glyph-name="hyphen" unicode="-" horiz-adv-x="346" 
d="M52 328h242v-102h-242v102z" />
    <glyph glyph-name="period" unicode="." horiz-adv-x="300" 
d="M72 67q0 32 23 55t55 23t55 -23t23 -55t-23 -55t-55 -23t-55 23t-23 55z" />
    <glyph glyph-name="slash" unicode="/" horiz-adv-x="458" 
d="M350 762h95l-337 -800h-95z" />
    <glyph glyph-name="zero" unicode="0" horiz-adv-x="624" 
d="M182 362q0 -67 9 -123.5t34 -90.5q15 -20 36.5 -32t50.5 -12t50.5 12t36.5 32q25 34 34 90.5t9 123.5t-9 123.5t-34 90.5q-15 20 -36.5 32t-50.5 12t-50.5 -12t-36.5 -32q-25 -34 -34 -90.5t-9 -123.5zM55 362q0 96 16.5 164t51.5 116q34 46 83 69.5t106 23.5t106 -23.5
t83 -69.5q35 -48 51.5 -116t16.5 -164t-16.5 -164t-51.5 -116q-34 -46 -83 -69.5t-106 -23.5t-106 23.5t-83 69.5q-35 48 -51.5 116t-16.5 164z" />
    <glyph glyph-name="one" unicode="1" horiz-adv-x="513" 
d="M228 568l-157 -58v119l284 106v-735h-127v568z" />
    <glyph glyph-name="two" unicode="2" horiz-adv-x="572" 
d="M251 292q28 36 49.5 65.5t36 55t21.5 49t7 46.5q0 54 -34 83t-88 29q-45 0 -88.5 -20t-80.5 -54v127q31 26 77 44t103 18q50 0 93.5 -15t76 -43.5t51 -68.5t18.5 -91q0 -34 -9 -66t-25.5 -64.5t-40 -67t-53.5 -71.5l-106 -133l1 -2h259v-113h-497l-1 2z" />
    <glyph glyph-name="three" unicode="3" horiz-adv-x="563" 
d="M58 175q45 -35 94 -53.5t96 -18.5q60 0 97 29t37 80q0 52 -38.5 80.5t-110.5 28.5h-69v103h73q61 0 93 27t32 71q0 47 -34 73t-88 26q-42 0 -84 -14.5t-73 -36.5v120q33 21 75.5 33t89.5 12q52 0 96 -14.5t76.5 -40.5t50.5 -61.5t18 -78.5q0 -54 -29 -96t-79 -59v-2
q62 -20 95 -66.5t33 -109.5q0 -49 -19.5 -89t-54 -68.5t-81.5 -44.5t-102 -16t-107 15t-87 40v131z" />
    <glyph glyph-name="four" unicode="4" horiz-adv-x="647" 
d="M9 167l371 557h115v-456h119v-103h-119v-165h-125v165h-360zM195 270l1 -2h174v128q0 35 0.5 72.5t1.5 66.5l-2 1q-17 -28 -39.5 -62t-43.5 -66z" />
    <glyph glyph-name="five" unicode="5" horiz-adv-x="556" 
d="M227 612l-12 -157q74 -3 129.5 -20.5t92.5 -47.5t55.5 -71.5t18.5 -91.5q0 -53 -20 -96.5t-55.5 -74.5t-84.5 -47.5t-107 -16.5q-55 0 -106 14t-86 37l10 123q43 -29 88.5 -44.5t90.5 -15.5q64 0 103.5 31.5t39.5 87.5q0 35 -17.5 60t-48.5 41t-72 23.5t-89 7.5
q-18 0 -38 -1t-38 -3l29 374h378l-9 -112h-252z" />
    <glyph glyph-name="six" unicode="6" horiz-adv-x="613" 
d="M435 724l-199 -306l2 -2q20 15 47 22.5t57 7.5q45 0 85 -16.5t70 -46t47.5 -70t17.5 -89.5q0 -51 -19.5 -94t-54 -74.5t-81.5 -49t-103 -17.5q-54 0 -101 17t-81.5 49t-54.5 78t-20 103q0 54 20.5 108.5t68.5 129.5l159 250h140zM176 225q0 -24 9.5 -47t26.5 -41
t41 -28.5t54 -10.5q26 0 49.5 9t41.5 25t28.5 38.5t10.5 50.5q0 26 -9.5 49t-27 39.5t-41 26t-51.5 9.5q-27 0 -51 -9t-42 -25t-28.5 -38t-10.5 -48z" />
    <glyph glyph-name="seven" unicode="7" horiz-adv-x="563" 
d="M359 612h-314v112h491l1 -2l-298 -722h-132z" />
    <glyph glyph-name="eight" unicode="8" horiz-adv-x="624" 
d="M312 424q24 0 44.5 7.5t36.5 21t25 32.5t9 41q0 45 -33 73.5t-82 28.5t-82 -28.5t-33 -73.5q0 -22 9 -41t25 -32.5t36.5 -21t44.5 -7.5zM312 97q27 0 51 8.5t42 23.5t28 36t10 47t-10.5 47.5t-28 37.5t-41.5 24.5t-51 8.5t-51 -8.5t-41.5 -24.5t-28 -37.5t-10.5 -47.5
t10 -47t28 -36t42 -23.5t51 -8.5zM447 383q60 -22 91.5 -69t31.5 -108q0 -48 -19 -87.5t-53 -68.5t-81.5 -45t-104.5 -16t-104.5 16t-81.5 45t-53 68.5t-19 87.5q0 61 31.5 108t91.5 69v2q-49 20 -75 58.5t-26 91.5q0 43 17.5 79.5t49 63.5t75 42t94.5 15t94.5 -15t75 -42
t49 -63.5t17.5 -79.5q0 -53 -26 -91.5t-75 -58.5v-2z" />
    <glyph glyph-name="nine" unicode="9" horiz-adv-x="600" 
d="M167 0l186 300l-1 1q-16 -11 -41.5 -16.5t-49.5 -5.5q-43 0 -82.5 15.5t-70 44t-49 69t-18.5 90.5q0 51 19.5 94.5t54.5 75t82 49.5t103 18q54 0 100.5 -17t81 -48t54 -75.5t19.5 -99.5q0 -63 -24.5 -119t-62.5 -117l-161 -259h-140zM296 381q29 0 52.5 9.5t40.5 26
t26.5 38t9.5 46.5q0 24 -9.5 47t-26.5 40t-40.5 27.5t-52.5 10.5q-26 0 -49.5 -9t-41.5 -25t-28.5 -38.5t-10.5 -50.5q0 -26 9.5 -48t26.5 -38.5t41 -26t53 -9.5z" />
    <glyph glyph-name="colon" unicode=":" horiz-adv-x="300" 
d="M75 64q0 31 22 53t53 22t53 -22t22 -53t-22 -53t-53 -22t-53 22t-22 53zM75 428q0 31 22 53t53 22t53 -22t22 -53t-22 -53t-53 -22t-53 22t-22 53z" />
    <glyph glyph-name="semicolon" unicode=";" horiz-adv-x="300" 
d="M105 145h115l-85 -292h-86zM74 427q0 32 22 54t54 22t54 -22t22 -54t-22 -54t-54 -22t-54 22t-22 54z" />
    <glyph glyph-name="less" unicode="&#x3c;" horiz-adv-x="701" 
d="M86 395l530 214v-97l-369 -149v-2l369 -149v-97l-530 214v66z" />
    <glyph glyph-name="equal" unicode="=" horiz-adv-x="594" 
d="M540 302v-91h-486v91h486zM54 423v91h486v-91h-486z" />
    <glyph glyph-name="greater" unicode="&#x3e;" horiz-adv-x="701" 
d="M616 329l-530 -214v97l369 149v2l-369 149v97l530 -214v-66z" />
    <glyph glyph-name="question" unicode="?" horiz-adv-x="491" 
d="M112 389q8 -1 13 -1h12q41 0 75.5 7t59.5 21.5t39 37t14 53.5q0 49 -33.5 80.5t-90.5 31.5q-32 0 -66 -10.5t-63 -30.5v122q29 16 65 25.5t75 9.5q51 0 95 -16.5t76.5 -46t51 -69.5t18.5 -87q0 -45 -17 -83t-46.5 -66.5t-68.5 -46t-84 -22.5l-1 -91h-112zM109 64
q0 31 22 53t53 22t53 -22t22 -53t-22 -53t-53 -22t-53 22t-22 53z" />
    <glyph glyph-name="at" unicode="@" horiz-adv-x="812" 
d="M484 338q-14 9 -32.5 16t-39.5 7q-24 0 -42.5 -9t-32.5 -24q-17 -19 -26 -45t-9 -52q0 -45 22.5 -73t64.5 -28q22 0 44.5 9.5t40.5 29.5q-1 5 -1 10.5v11.5q0 8 0.5 19t1.5 20zM566 227q-1 -9 -1 -16.5v-12.5q0 -32 16 -52.5t46 -20.5q33 0 57 29.5t24 95.5
q0 58 -20.5 112t-58.5 95.5t-94 66.5t-126 25q-71 0 -127.5 -24.5t-95.5 -66.5t-59.5 -97t-20.5 -116q0 -60 20.5 -114.5t59 -96t94.5 -66.5t128 -25q67 0 116 19t86 45l39 -58q-54 -40 -116.5 -58t-125.5 -18q-82 0 -151 28.5t-119.5 78t-79 117.5t-28.5 148t28.5 148.5
t79 118.5t119.5 78.5t150 28.5q82 0 151.5 -29t119.5 -78.5t78.5 -115.5t28.5 -141q0 -98 -46 -149.5t-121 -51.5q-39 0 -69 14t-49 39h-2q-25 -24 -57 -39t-70 -15q-35 0 -64.5 12.5t-50.5 35.5t-33 54.5t-12 70.5q0 45 16 86.5t47 71.5q27 26 62.5 40.5t77.5 14.5
q52 0 99 -26l71 12z" />
    <glyph glyph-name="A" unicode="A" horiz-adv-x="725" 
d="M721 0h-135l-69 177h-312l-70 -177h-131l297 724h124zM246 281h230l-42 109q-19 49 -37 97t-35 97h-2q-35 -99 -72 -194z" />
    <glyph glyph-name="B" unicode="B" horiz-adv-x="637" 
d="M74 724h202q70 0 120 -9t87 -30q42 -24 62.5 -60.5t20.5 -83.5q0 -61 -30.5 -97t-78.5 -53v-2q66 -18 102 -61t36 -112q0 -121 -110 -178q-38 -20 -88.5 -29t-119.5 -9h-203v724zM314 418q26 0 48.5 5.5t39.5 17.5t27 30t10 44q0 53 -42 77q-23 14 -54.5 17.5t-74.5 3.5
h-67v-195h113zM282 111q52 0 85 5.5t55 17.5t34 32t12 51q0 53 -38.5 79.5t-111.5 26.5h-117v-212h81z" />
    <glyph glyph-name="C" unicode="C" horiz-adv-x="675" 
d="M637 41q-45 -26 -100.5 -39t-111.5 -13q-85 0 -156 28.5t-122.5 78t-80 117.5t-28.5 147q0 78 28 146.5t79 119t122 80t157 29.5q56 0 107.5 -12.5t94.5 -35.5v-132q-40 29 -92.5 47t-109.5 18t-105 -19.5t-82 -54t-53 -82t-19 -102.5q0 -54 19 -101t53.5 -81.5t84 -54.5
t109.5 -20q58 0 110 18.5t96 51.5v-134z" />
    <glyph glyph-name="D" unicode="D" horiz-adv-x="739" 
d="M74 724h201q85 0 154.5 -15t125.5 -51q72 -47 111 -123.5t39 -170.5q0 -89 -34.5 -162t-97.5 -121q-57 -43 -133 -62t-181 -19h-185v724zM270 113q72 0 124 11.5t91 40.5q42 31 67.5 81.5t25.5 116.5q0 68 -27.5 119.5t-72.5 82.5q-43 29 -96 37.5t-113 8.5h-68v-498h69z
" />
    <glyph glyph-name="E" unicode="E" horiz-adv-x="556" 
d="M74 724h432v-113h-305v-180h265v-109h-265v-209h315v-113h-442v724z" />
    <glyph glyph-name="F" unicode="F" horiz-adv-x="554" 
d="M74 724h443v-113h-316v-194h275v-109h-275v-308h-127v724z" />
    <glyph glyph-name="G" unicode="G" horiz-adv-x="736" 
d="M672 56q-49 -30 -114.5 -48.5t-134.5 -18.5q-84 0 -154.5 27.5t-121.5 77t-80 117.5t-29 149q0 80 28.5 148.5t80.5 119t123 79t157 28.5q69 0 125 -17t97 -41v-133q-45 34 -102 55t-119 21q-59 0 -107.5 -20t-83 -55.5t-53.5 -82.5t-19 -101q0 -53 18 -100t52 -82
t83 -56t111 -21q68 0 118 25v139h-144v108h269v-318z" />
    <glyph glyph-name="H" unicode="H" horiz-adv-x="755" 
d="M74 724h127v-292h353v292h127v-724h-127v319h-353v-319h-127v724z" />
    <glyph glyph-name="I" unicode="I" horiz-adv-x="274" 
d="M74 724h127v-724h-127v724z" />
    <glyph glyph-name="J" unicode="J" horiz-adv-x="397" 
d="M200 724h127v-503q0 -68 -11.5 -107t-32.5 -64q-28 -32 -69 -46.5t-87 -14.5q-33 0 -59.5 6t-46.5 14v114q25 -10 51 -15.5t47 -5.5q27 0 43 7.5t24.5 22.5t11 36t2.5 48v508z" />
    <glyph glyph-name="K" unicode="K" horiz-adv-x="651" 
d="M74 724h127v-324l2 -1l285 325h153l-299 -336l325 -388h-160l-304 368l-2 -1v-367h-127v724z" />
    <glyph glyph-name="L" unicode="L" horiz-adv-x="551" 
d="M74 724h127v-611h329v-113h-456v724z" />
    <glyph glyph-name="M" unicode="M" horiz-adv-x="864" 
d="M74 724h123l236 -337l236 337h121v-724h-127v358v80.5t1 76.5l-2 1q-23 -35 -46.5 -69t-49.5 -71l-136 -194l-136 194q-26 37 -49.5 71t-46.5 69l-2 -1q1 -38 1 -76.5v-80.5v-358h-123v724z" />
    <glyph glyph-name="N" unicode="N" horiz-adv-x="780" 
d="M73 0v724h120l262 -349q66 -88 129 -175l2 1q-2 51 -2 106v113v304h123v-724h-120l-262 349q-66 88 -129 175l-2 -1q2 -51 2 -106v-113v-304h-123z" />
    <glyph glyph-name="O" unicode="O" 
d="M410 105q53 0 98 20t78 54.5t51.5 81.5t18.5 101t-18.5 101t-51.5 81.5t-78 54.5t-98 20t-98 -20t-78 -54.5t-51.5 -81.5t-18.5 -101t18.5 -101t51.5 -81.5t78 -54.5t98 -20zM410 -11q-80 0 -148 28.5t-118 79t-78.5 118.5t-28.5 147t28.5 147t78.5 118.5t118 79
t148 28.5t148 -28.5t118 -79t78.5 -118.5t28.5 -147t-28.5 -147t-78.5 -118.5t-118 -79t-148 -28.5z" />
    <glyph glyph-name="P" unicode="P" horiz-adv-x="631" 
d="M74 724h202q59 0 114 -6.5t101 -31.5q48 -26 79 -72t31 -115q0 -65 -28 -111.5t-73 -73.5q-45 -26 -103.5 -34.5t-133.5 -8.5h-62v-271h-127v724zM273 380q56 0 90 4t60 19q24 14 37.5 37t13.5 56q0 35 -15.5 58.5t-43.5 37.5q-27 14 -62 16.5t-82 2.5h-70v-231h72z" />
    <glyph glyph-name="Q" unicode="Q" 
d="M552 13q51 -32 105 -60.5t111 -50.5l-119 -70q-70 29 -132 70.5t-115 86.5q-78 1 -145 30.5t-116 79.5t-76.5 117.5t-27.5 145.5q0 79 28.5 147t78.5 118.5t118 79t148 28.5t148 -28.5t118 -79t78.5 -118.5t28.5 -147q0 -60 -16.5 -114.5t-47 -99.5t-73 -79t-94.5 -54v-2
zM410 105q53 0 98 20t78 54.5t51.5 81.5t18.5 101t-18.5 101t-51.5 81.5t-78 54.5t-98 20t-98 -20t-78 -54.5t-51.5 -81.5t-18.5 -101t18.5 -101t51.5 -81.5t78 -54.5t98 -20z" />
    <glyph glyph-name="R" unicode="R" horiz-adv-x="650" 
d="M302 398q44 0 74 6.5t52 22.5q17 13 27 32t10 45q0 32 -14 53t-38 34t-55.5 16.5t-79.5 3.5h-77v-213h101zM74 724h211q60 0 114.5 -8t99.5 -34q42 -25 67.5 -66.5t25.5 -103.5q0 -73 -43 -127.5t-118 -73.5l218 -311h-149l-202 297h-97v-297h-127v724z" />
    <glyph glyph-name="S" unicode="S" horiz-adv-x="569" 
d="M59 177q27 -20 57.5 -34t60 -23t57 -13.5t50.5 -4.5q54 0 89 23.5t35 74.5q0 30 -13.5 48.5t-36.5 30.5t-54 20.5t-66 19.5q-38 12 -73.5 27.5t-62.5 39t-43.5 57.5t-16.5 82q0 49 17.5 88t49.5 66t77 41.5t100 14.5q53 0 111 -13t104 -40v-128q-54 35 -112.5 51.5
t-103.5 16.5q-51 0 -83.5 -21t-32.5 -67q0 -29 13 -46.5t35.5 -29t52 -20t62.5 -18.5q40 -12 77 -28.5t65 -40.5t44.5 -59t16.5 -85q0 -51 -18.5 -91.5t-51.5 -68.5t-79.5 -43t-102.5 -15q-54 0 -114 14t-110 41v133z" />
    <glyph glyph-name="T" unicode="T" horiz-adv-x="639" 
d="M255 611h-237v113h603v-113h-239v-611h-127v611z" />
    <glyph glyph-name="U" unicode="U" horiz-adv-x="740" 
d="M674 352q0 -81 -10.5 -141.5t-41.5 -106.5q-38 -56 -103 -85.5t-150 -29.5q-88 0 -152 31t-100 86q-30 45 -40.5 104.5t-10.5 133.5v380h127v-372q0 -64 6 -103.5t22 -67.5q18 -32 54 -54t99 -22q57 0 92.5 19.5t55.5 53.5q17 29 23 70.5t6 101.5v374h123v-372z" />
    <glyph glyph-name="V" unicode="V" horiz-adv-x="686" 
d="M1 724h136l134 -355q19 -51 37 -101t36 -102h2q17 50 36 101t39 103l134 354h130l-277 -724h-130z" />
    <glyph glyph-name="W" unicode="W" horiz-adv-x="1031" 
d="M8 724h135l106 -352q29 -96 55 -191h2q13 46 28 95.5t29 96.5l109 351h93l109 -352q17 -54 30 -98.5t27 -92.5h2q13 47 27 96t28 96l106 351h129l-224 -724h-135l-96 310q-14 45 -27 88.5t-25 85.5h-2q-12 -42 -24.5 -84.5t-26.5 -87.5l-97 -312h-135z" />
    <glyph glyph-name="X" unicode="X" horiz-adv-x="677" 
d="M258 386l-232 338h149l83 -122q22 -32 42.5 -63.5t41.5 -63.5h2q41 63 85 129l81 120h142l-232 -338l268 -386h-152l-116 170q-23 33 -43.5 63.5t-40.5 62.5h-2q-20 -32 -42 -64.5t-43 -63.5l-114 -168h-145z" />
    <glyph glyph-name="Y" unicode="Y" horiz-adv-x="672" 
d="M274 326l-281 398h151l104 -153q24 -35 47 -69t43 -65h2q21 32 44 66.5t47 69.5l103 151h145l-278 -397v-327h-127v326z" />
    <glyph glyph-name="Z" unicode="Z" horiz-adv-x="645" 
d="M27 0l-1 2l374 607l-1 2h-346v113h561l1 -2l-374 -607l1 -2h365v-113h-580z" />
    <glyph glyph-name="bracketleft" unicode="[" horiz-adv-x="361" 
d="M317 -123v-90h-231v956h231v-90h-120v-776h120z" />
    <glyph glyph-name="backslash" unicode="\" horiz-adv-x="457" 
d="M12 762h95l337 -800h-95z" />
    <glyph glyph-name="bracketright" unicode="]" horiz-adv-x="361" 
d="M164 -123v776h-120v90h231v-956h-231v90h120z" />
    <glyph glyph-name="asciicircum" unicode="^" horiz-adv-x="567" 
d="M242 735h83l181 -373h-97l-125 248h-1l-125 -248h-97z" />
    <glyph glyph-name="underscore" unicode="_" horiz-adv-x="490" 
d="M490 -87v-59h-490v59h490z" />
    <glyph glyph-name="grave" unicode="`" horiz-adv-x="518" 
d="M130 727h118l81 -164h-86z" />
    <glyph glyph-name="a" unicode="a" horiz-adv-x="533" 
d="M352 36q-23 -18 -60 -32.5t-86 -14.5q-30 0 -59.5 7.5t-54.5 25.5q-26 19 -40.5 47.5t-14.5 65.5q0 41 17.5 70.5t45.5 48.5t64 26.5t74 7.5q26 0 49 -3t46 -8v29q0 44 -24 67q-27 24 -83 24q-45 0 -82 -13t-66 -31v110q29 17 71 28.5t95 11.5q48 0 89 -11.5t69 -34.5
q25 -21 38.5 -53t13.5 -78v-189q0 -20 8 -33t26 -13q13 0 27 7v-95q-11 -5 -26.5 -8.5t-33.5 -3.5q-30 0 -57 11t-44 34h-2zM333 198q-17 5 -37.5 7.5t-38.5 2.5q-19 0 -36.5 -3.5t-31.5 -11t-22.5 -19.5t-8.5 -30q0 -30 23 -44.5t55 -14.5q28 0 53.5 8.5t43.5 21.5v83z" />
    <glyph glyph-name="b" unicode="b" horiz-adv-x="600" 
d="M71 764h121v-297l2 -1q23 15 56.5 26t73.5 11q48 0 91 -17.5t75 -50t51 -78.5t19 -103q0 -58 -19.5 -106.5t-55 -84t-83.5 -55t-105 -19.5q-35 0 -65.5 7.5t-57.5 18.5l-103 -18v767zM192 116q20 -11 47.5 -18.5t53.5 -7.5q34 0 61 12.5t45.5 34t28.5 50t10 61.5
q0 32 -9.5 59.5t-27.5 48t-44 32t-59 11.5q-32 0 -58.5 -10t-47.5 -25v-248z" />
    <glyph glyph-name="c" unicode="c" horiz-adv-x="511" 
d="M465 26q-34 -19 -74.5 -28t-79.5 -9q-59 0 -109 19t-86 53t-56.5 81t-20.5 102q0 58 22 105.5t59.5 81.5t88 53t108.5 19q40 0 75.5 -9t64.5 -23v-118q-32 21 -67.5 33t-70.5 12q-36 0 -65 -12t-49.5 -32.5t-32 -48.5t-11.5 -60q0 -33 12 -60.5t33 -47.5t50.5 -31
t64.5 -11q39 0 77 13t67 36v-118z" />
    <glyph glyph-name="d" unicode="d" horiz-adv-x="602" 
d="M409 29q-25 -17 -58 -28.5t-73 -11.5q-48 0 -91 17.5t-75.5 50t-51 78t-18.5 102.5t19.5 106t54 84.5t82 55.5t104.5 20q32 0 58 -6t48 -16l2 1v282h121v-764h-120v28zM410 375q-21 11 -46.5 18t-53.5 7q-35 0 -62 -12t-45.5 -33.5t-28.5 -50t-10 -61.5q0 -32 9.5 -59.5
t27 -48t43.5 -32.5t59 -12q31 0 58 10t49 24v250z" />
    <glyph glyph-name="e" unicode="e" horiz-adv-x="566" 
d="M163 213q11 -62 55.5 -93t107.5 -31q47 0 89.5 15.5t78.5 41.5v-111q-35 -22 -83.5 -34t-96.5 -12q-59 0 -109.5 18.5t-87 52t-57 80.5t-20.5 105t20.5 106t55 81.5t80 52t95.5 18.5q46 0 87.5 -15.5t73 -46t50.5 -75.5t19 -104q0 -12 -0.5 -25.5t-2.5 -23.5h-355z
M408 297q-3 28 -14.5 48t-27.5 33.5t-35.5 20t-40.5 6.5t-41.5 -6.5t-37.5 -20t-29.5 -33.5t-18.5 -48h245z" />
    <glyph glyph-name="f" unicode="f" horiz-adv-x="358" 
d="M97 389h-74v103h74v84q0 50 10.5 90t37.5 66q25 24 59 33.5t68 9.5q21 0 41.5 -3t37.5 -9v-102q-14 4 -34 6.5t-34 2.5q-20 0 -33 -6.5t-20 -17.5t-9.5 -26t-2.5 -33v-95h120v-103h-120v-389h-121v389z" />
    <glyph glyph-name="g" unicode="g" horiz-adv-x="597" 
d="M107 -75q36 -23 76.5 -36.5t81.5 -13.5q63 0 101 33.5t38 96.5v31l-2 2q-24 -17 -57 -26.5t-68 -9.5q-48 0 -90.5 17.5t-74.5 49.5t-51 76.5t-19 99.5q0 53 18 100t51 82t80 55.5t106 20.5q37 0 67.5 -7.5t56.5 -20.5l104 18v-487q0 -56 -18.5 -100t-52 -74.5
t-80.5 -46.5t-105 -16q-47 0 -88.5 10t-73.5 26v120zM404 372q-20 11 -46.5 18.5t-54.5 7.5q-33 0 -59 -11.5t-43.5 -32t-27 -47t-9.5 -56.5q0 -32 10 -59t28 -47t43.5 -31t57.5 -11q27 0 54 8.5t47 22.5v238z" />
    <glyph glyph-name="h" unicode="h" horiz-adv-x="596" 
d="M71 764h121v-325l2 -1q30 28 71 46.5t90 18.5q40 0 73.5 -13t56.5 -39q22 -23 32 -56.5t10 -88.5v-306h-121v285q0 35 -4.5 53.5t-15.5 30.5q-23 27 -64 27q-37 0 -71.5 -18t-58.5 -44v-334h-121v764z" />
    <glyph glyph-name="i" unicode="i" horiz-adv-x="263" 
d="M71 492h121v-492h-121v492zM56 655q0 31 22 53t54 22q31 0 53 -22t22 -53t-22 -53t-54 -22q-31 0 -53 22t-22 53z" />
    <glyph glyph-name="j" unicode="j" horiz-adv-x="265" 
d="M73 492h121v-525q0 -62 -10.5 -95t-28.5 -53q-26 -28 -62.5 -39t-72.5 -11q-39 0 -65 8v103q14 -3 28 -4.5t26 -1.5q41 0 52.5 23t11.5 63v532zM58 655q0 31 22 53t54 22q31 0 53 -22t22 -53t-22 -53t-54 -22q-31 0 -53 22t-22 53z" />
    <glyph glyph-name="k" unicode="k" horiz-adv-x="555" 
d="M71 764h121v-484l2 -1l196 213h144l-206 -220l225 -272h-149l-210 259l-2 -1v-258h-121v764z" />
    <glyph glyph-name="l" unicode="l" horiz-adv-x="263" 
d="M71 764h121v-764h-121v764z" />
    <glyph glyph-name="m" unicode="m" horiz-adv-x="917" 
d="M727 288q0 32 -5.5 50.5t-16.5 31.5q-23 26 -63 26q-35 0 -67.5 -17.5t-55.5 -40.5q1 -7 1 -14.5v-15.5v-308h-121v288q0 32 -4.5 50.5t-15.5 31.5q-13 14 -29.5 20t-34.5 6q-35 0 -67.5 -18t-55.5 -41v-337h-121v492h120v-52l2 -1q30 28 69.5 46t87.5 18q44 0 84.5 -18
t62.5 -59q83 77 180 77q41 0 73 -13t55 -37q23 -25 33 -59t10 -86v-308h-121v288z" />
    <glyph glyph-name="n" unicode="n" horiz-adv-x="596" 
d="M71 492h120v-53l2 -1q31 28 72 46.5t90 18.5q40 0 73.5 -13t56.5 -39q22 -23 32 -56.5t10 -88.5v-306h-121v285q0 33 -4.5 52.5t-15.5 31.5q-23 27 -65 27q-36 0 -71 -18t-58 -44v-334h-121v492z" />
    <glyph glyph-name="o" unicode="o" horiz-adv-x="612" 
d="M160 246q0 -32 11 -59.5t30.5 -48t46 -32t58.5 -11.5q31 0 58 11.5t46.5 32t30.5 48t11 59.5t-11 59.5t-30.5 48t-46.5 32t-58 11.5q-32 0 -58.5 -11.5t-46 -32t-30.5 -48t-11 -59.5zM39 246q0 54 20 101t56 81.5t85 54.5t106 20t106 -20t85 -54.5t56 -81.5t20 -101
t-20 -101t-56 -81.5t-85 -54.5t-106 -20t-106 20t-85 54.5t-56 81.5t-20 101z" />
    <glyph glyph-name="p" unicode="p" horiz-adv-x="600" 
d="M192 -220h-121v712h120v-28l2 -1q25 17 57.5 28.5t73.5 11.5q48 0 91 -18t75 -51.5t50.5 -80.5t18.5 -104q0 -59 -20 -107t-55 -82t-81.5 -52.5t-100.5 -18.5q-33 0 -60.5 6.5t-47.5 16.5l-2 -1v-231zM192 117q19 -11 45.5 -19t56.5 -8q33 0 59.5 11.5t45 32t28.5 48
t10 60.5t-10 61.5t-28 49.5t-44 33.5t-58 12.5q-29 0 -56 -9.5t-49 -26.5v-246z" />
    <glyph glyph-name="q" unicode="q" horiz-adv-x="602" 
d="M408 24q-23 -14 -54.5 -24.5t-71.5 -10.5q-50 0 -93.5 18t-76 51t-51.5 79.5t-19 103.5q0 58 20 106.5t54.5 83t82 53.5t103.5 19q35 0 67 -8t61 -22l101 18v-711h-121v243zM410 373q-20 11 -47 19t-56 8q-33 0 -59.5 -12t-45 -33t-28.5 -49.5t-10 -60.5t9.5 -60t28 -49
t44.5 -33.5t59 -12.5q27 0 55 8.5t50 25.5v249z" />
    <glyph glyph-name="r" unicode="r" horiz-adv-x="384" 
d="M71 492h120v-69l2 -1q26 36 62.5 55.5t80.5 19.5q18 0 33 -4v-116q-9 2 -18.5 3.5t-21.5 1.5q-85 0 -137 -73v-309h-121v492z" />
    <glyph glyph-name="s" unicode="s" horiz-adv-x="497" 
d="M57 143q47 -29 98.5 -42t92.5 -13q42 0 66 12.5t24 40.5q0 18 -11 28t-30 16t-44 9.5t-53 9.5q-35 7 -64 18t-50 27.5t-32.5 40t-11.5 56.5q0 39 16 68t44 49t66 30t82 10q45 0 94 -9.5t88 -29.5v-110q-45 26 -94.5 38t-87.5 12q-39 0 -62.5 -11.5t-23.5 -37.5
q0 -17 11 -26.5t29.5 -15t43 -9t51.5 -9.5q35 -8 64.5 -18t51 -26.5t33.5 -40.5t12 -59q0 -42 -17 -72.5t-46.5 -50.5t-68.5 -29.5t-82 -9.5q-46 0 -96.5 10t-92.5 31v113z" />
    <glyph glyph-name="t" unicode="t" horiz-adv-x="400" 
d="M369 12q-17 -10 -44 -16.5t-56 -6.5q-32 0 -64.5 11t-55.5 37q-19 20 -29.5 53t-10.5 88v211h-86v103h86v131l121 21v-152h139v-103h-139v-194q0 -21 2.5 -39t9.5 -32t19.5 -22t33.5 -8q20 0 39.5 6.5t34.5 14.5v-103z" />
    <glyph glyph-name="u" unicode="u" horiz-adv-x="599" 
d="M405 55q-31 -29 -70.5 -47.5t-89.5 -18.5q-41 0 -74.5 13.5t-56.5 38.5t-33.5 60t-10.5 89v302h121v-282q0 -33 5.5 -53.5t16.5 -33.5q14 -16 31 -21.5t34 -5.5q36 0 69.5 18t58.5 46v332h121v-492h-120v54z" />
    <glyph glyph-name="v" unicode="v" horiz-adv-x="552" 
d="M14 492h128l70 -180q16 -41 31.5 -82t31.5 -85h2q17 44 32.5 83.5t32.5 82.5l73 181h123l-202 -492h-119z" />
    <glyph glyph-name="w" unicode="w" horiz-adv-x="825" 
d="M17 492h128l62 -188q23 -71 46 -147h2q11 35 24.5 74t25.5 73l66 188h88l67 -188q14 -38 26.5 -75t23.5 -72h2q11 36 22.5 73t23.5 74l62 188h122l-169 -492h-119l-61 171q-12 34 -23.5 69t-22.5 68h-2q-11 -33 -22 -67t-24 -70l-60 -171h-119z" />
    <glyph glyph-name="x" unicode="x" horiz-adv-x="523" 
d="M188 262l-171 230h137l41 -58q16 -23 33.5 -48.5t33.5 -48.5h2q16 23 34 49t33 47l42 59h131l-169 -228l194 -264h-139l-66 93q-17 23 -33 46t-31 46h-2q-15 -23 -32.5 -47.5t-31.5 -44.5l-66 -93h-134z" />
    <glyph glyph-name="y" unicode="y" horiz-adv-x="553" 
d="M86 -220l131 274l-203 438h131l67 -152q19 -43 34.5 -79.5t31.5 -75.5h2q17 42 35.5 83t36.5 82l64 142h123l-327 -712h-126z" />
    <glyph glyph-name="z" unicode="z" horiz-adv-x="483" 
d="M18 0l-1 2l245 385l-1 2h-223v103h421l1 -2l-245 -385l1 -2h238v-103h-436z" />
    <glyph glyph-name="braceleft" unicode="{" horiz-adv-x="378" 
d="M26 310h27q46 0 59.5 18t13.5 60v206q0 74 38 117t122 43q17 0 35 -1.5t29 -3.5v-89q-9 2 -21.5 3t-21.5 1q-39 0 -54.5 -19t-15.5 -65v-187q0 -53 -13.5 -84t-51.5 -43v-2q38 -12 51.5 -43t13.5 -84v-187q0 -46 15.5 -65t54.5 -19q9 0 21.5 1t21.5 3v-89
q-11 -2 -29 -3.5t-35 -1.5q-84 0 -122 43t-38 117v206q0 42 -13.5 60t-59.5 18h-27v90z" />
    <glyph glyph-name="bar" unicode="|" horiz-adv-x="322" 
d="M113 800h96v-1020h-96v1020z" />
    <glyph glyph-name="braceright" unicode="}" horiz-adv-x="378" 
d="M352 220h-27q-46 0 -59.5 -18t-13.5 -60v-206q0 -74 -38 -117t-122 -43q-17 0 -35 1.5t-29 3.5v89q9 -2 21.5 -3t21.5 -1q39 0 54.5 19t15.5 65v187q0 53 13.5 84t51.5 43v2q-38 12 -51.5 43t-13.5 84v187q0 46 -15.5 65t-54.5 19q-9 0 -21.5 -1t-21.5 -3v89q11 2 29 3.5
t35 1.5q84 0 122 -43t38 -117v-206q0 -42 13.5 -60t59.5 -18h27v-90z" />
    <glyph glyph-name="asciitilde" unicode="~" horiz-adv-x="555" 
d="M480 324q-35 -43 -98 -43q-29 0 -56.5 9.5t-58.5 24.5q-26 13 -48.5 22.5t-47.5 9.5q-35 0 -56 -18t-38 -39l-2 1v110q35 43 98 43q29 0 56.5 -9.5t58.5 -24.5q26 -13 48.5 -22.5t47.5 -9.5q35 0 56 18t38 39l2 -1v-110z" />
    <glyph glyph-name="uni00A0" unicode="&#xa0;" horiz-adv-x="240" 
 />
    <glyph glyph-name="exclamdown" unicode="&#xa1;" horiz-adv-x="300" 
d="M216 -220h-133l21 492h92zM225 440q0 -31 -22 -53t-53 -22t-53 22t-22 53t22 53t53 22t53 -22t22 -53z" />
    <glyph glyph-name="cent" unicode="&#xa2;" horiz-adv-x="517" 
d="M234 114q-45 10 -81.5 32.5t-62.5 54.5t-40 72.5t-14 86.5q0 47 15 87.5t41 73t62.5 55t79.5 33.5v133h95v-123q36 -2 68 -10.5t58 -21.5v-118q-32 21 -67.5 33t-71.5 12t-65 -12t-49.5 -32.5t-32 -48.5t-11.5 -60q0 -33 12 -60.5t33 -47.5t50.5 -31t64.5 -11
q40 0 78 13.5t67 36.5v-118q-29 -17 -64 -26t-70 -11v-124h-95v132z" />
    <glyph glyph-name="sterling" unicode="&#xa3;" horiz-adv-x="582" 
d="M68 398h47q-11 29 -18.5 58.5t-7.5 61.5q0 51 19 91.5t52 68.5t78 42.5t97 14.5q54 0 99 -14t74 -33v-126q-38 28 -82.5 43t-82.5 15q-56 0 -91.5 -28.5t-35.5 -81.5q0 -24 8 -52.5t18 -59.5h178v-96h-150q5 -28 5 -52q0 -38 -13.5 -73.5t-42.5 -61.5v-2h316v-113h-467
v94q40 25 63.5 65.5t23.5 86.5q0 14 -2 28t-5 28h-80v96z" />
    <glyph glyph-name="currency" unicode="&#xa4;" horiz-adv-x="602" 
d="M180 350q0 -26 9 -49t25 -40t38 -26.5t49 -9.5t49 9.5t38 26.5t25 40t9 49t-9 49t-25 40t-38 26.5t-49 9.5t-49 -9.5t-38 -26.5t-25 -40t-9 -49zM116 241q-28 50 -28 109t28 109l-77 77l75 75l76 -77q24 14 51.5 21.5t59.5 7.5t59.5 -7.5t51.5 -21.5l76 77l75 -75
l-77 -77q28 -50 28 -109t-28 -109l77 -77l-75 -75l-76 77q-24 -14 -51.5 -21.5t-59.5 -7.5t-59.5 7.5t-51.5 21.5l-76 -77l-75 75z" />
    <glyph glyph-name="yen" unicode="&#xa5;" horiz-adv-x="682" 
d="M659 724l-167 -239h99v-88h-160l-26 -37v-60h186v-88h-186v-212h-127v212h-186v88h186v59l-27 38h-159v88h97l-169 239h148l83 -121q24 -35 47 -69.5t44 -66.5h2q43 66 92 138l81 119h142z" />
    <glyph glyph-name="brokenbar" unicode="&#xa6;" horiz-adv-x="322" 
d="M113 800h96v-392h-96v392zM209 172v-392h-96v392h96z" />
    <glyph glyph-name="section" unicode="&#xa7;" horiz-adv-x="574" 
d="M117 -7q32 -20 72 -33.5t78 -13.5q41 0 67.5 18t26.5 53q0 22 -12 37t-32 27t-47 23t-58 24q-30 13 -58.5 28t-51 35.5t-36 47.5t-13.5 63q0 53 28 88.5t72 51.5v2q-23 20 -38 48.5t-15 67.5q0 40 16 71.5t44 54t65.5 34.5t81.5 12q42 0 79.5 -10t63.5 -24v-110
q-31 19 -67 31t-69 12q-40 0 -66.5 -18t-26.5 -51q0 -22 12 -37.5t32 -27t46 -21.5t54 -22q31 -13 60.5 -28t52.5 -36t37 -48.5t14 -65.5q0 -54 -27.5 -89.5t-71.5 -50.5v-2q23 -20 37.5 -49t14.5 -67q0 -41 -16.5 -73t-45 -54t-67.5 -34t-85 -12q-48 0 -86 11t-65 25v112z
M251 385q-35 -8 -57 -26t-22 -49q0 -24 13.5 -40.5t34 -28.5t45.5 -21t48 -19l21 -9q35 8 55.5 27t20.5 50q0 22 -11.5 38t-31.5 28t-47 22.5t-57 23.5z" />
    <glyph glyph-name="dieresis" unicode="&#xa8;" horiz-adv-x="518" 
d="M298 647q0 27 19.5 46.5t46.5 19.5t46.5 -19.5t19.5 -46.5t-19.5 -46.5t-46.5 -19.5t-46.5 19.5t-19.5 46.5zM88 647q0 27 19.5 46.5t46.5 19.5t46.5 -19.5t19.5 -46.5t-19.5 -46.5t-46.5 -19.5t-46.5 19.5t-19.5 46.5z" />
    <glyph glyph-name="copyright" unicode="&#xa9;" horiz-adv-x="816" 
d="M212 366q0 45 16.5 82.5t45.5 64.5t69 42.5t87 15.5q31 0 60 -6.5t52 -19.5v-92q-23 16 -51 25.5t-57 9.5q-57 0 -91.5 -34.5t-34.5 -86.5q0 -51 34.5 -85.5t92.5 -34.5q31 0 60.5 10t52.5 28v-93q-26 -15 -58 -22t-62 -7q-48 0 -87.5 15.5t-68 42.5t-44.5 64t-16 81z
M107 362q0 -64 21.5 -119t61 -95.5t95 -63.5t123.5 -23t123.5 23t95 63.5t61 95.5t21.5 119t-21.5 119t-61 95.5t-95 63.5t-123.5 23t-123.5 -23t-95 -63.5t-61 -95.5t-21.5 -119zM29 362q0 79 28.5 147t79.5 118.5t120.5 79t150.5 28.5t150.5 -28.5t120.5 -79t79.5 -118.5
t28.5 -147t-28.5 -147t-79.5 -118.5t-120.5 -79t-150.5 -28.5t-150.5 28.5t-120.5 79t-79.5 118.5t-28.5 147z" />
    <glyph glyph-name="ordfeminine" unicode="&#xaa;" horiz-adv-x="370" 
d="M256 430q-16 -12 -39 -20.5t-52 -8.5q-20 0 -39.5 5.5t-35.5 16.5q-17 12 -27.5 30.5t-10.5 43.5q0 26 11.5 45.5t28.5 30.5q19 13 41.5 18t48.5 5q32 0 59 -7v17q0 55 -65 55q-29 0 -53 -8.5t-43 -19.5v77q19 11 46.5 18.5t62.5 7.5q28 0 56 -6.5t48 -23.5
q35 -29 35 -87v-118q0 -28 21 -28q10 0 17 4v-66q-8 -4 -19 -6.5t-24 -2.5q-19 0 -36.5 6.5t-29.5 21.5h-1zM241 534q-9 3 -21.5 4.5t-23.5 1.5q-23 0 -41.5 -8.5t-18.5 -29.5q0 -19 14.5 -27.5t34.5 -8.5q34 0 56 19v49z" />
    <glyph glyph-name="guillemotleft" unicode="&#xab;" horiz-adv-x="569" 
d="M141 246l164 -219h-114l-164 219l164 219h114zM363 246l164 -219h-114l-164 219l164 219h114z" />
    <glyph glyph-name="logicalnot" unicode="&#xac;" horiz-adv-x="594" 
d="M54 408h487v-292h-96v201h-391v91z" />
    <glyph glyph-name="uni00AD" unicode="&#xad;" horiz-adv-x="346" 
d="M52 328h242v-102h-242v102z" />
    <glyph glyph-name="registered" unicode="&#xae;" horiz-adv-x="446" 
d="M35 549q0 40 14 74t39.5 59t59.5 39t75 14q40 0 74.5 -14t60 -39t39.5 -59t14 -74t-14 -74t-39.5 -59t-60 -39t-74.5 -14q-41 0 -75 14t-59.5 39t-39.5 59t-14 74zM69 549q0 -33 11.5 -61t31.5 -49t48.5 -32.5t62.5 -11.5t62.5 11.5t48.5 32.5t31.5 49t11.5 61t-11.5 61
t-31.5 49t-48.5 32.5t-62.5 11.5t-62.5 -11.5t-48.5 -32.5t-31.5 -49t-11.5 -61zM221 520h-26v-72h-43v202h75q32 0 54.5 -16.5t22.5 -48.5q0 -22 -11.5 -36.5t-29.5 -21.5l48 -79h-49zM223 554q37 0 37 29t-37 29h-28v-58h28z" />
    <glyph glyph-name="macron" unicode="&#xaf;" horiz-adv-x="518" 
d="M114 687h290v-84h-290v84z" />
    <glyph glyph-name="degree" unicode="&#xb0;" horiz-adv-x="366" 
d="M183 441q-33 0 -60.5 11.5t-47.5 31.5t-31.5 46.5t-11.5 57.5t11.5 57.5t31.5 46.5t47.5 31.5t60.5 11.5t60.5 -11.5t47.5 -31.5t31.5 -46.5t11.5 -57.5t-11.5 -57.5t-31.5 -46.5t-47.5 -31.5t-60.5 -11.5zM183 501q38 0 63 26t25 61t-25 61t-63 26t-63 -26t-25 -61
t25 -61t63 -26z" />
    <glyph glyph-name="plusminus" unicode="&#xb1;" horiz-adv-x="594" 
d="M249 409h-181v91h181v170h96v-170h181v-91h-181v-171h-96v171zM68 162h458v-91h-458v91z" />
    <glyph glyph-name="uni00B2" unicode="&#xb2;" horiz-adv-x="371" 
d="M153 599q34 43 51 69.5t17 52.5t-19 41t-49 15q-27 0 -54.5 -13t-51.5 -34v93q19 15 48.5 27.5t67.5 12.5q32 0 60 -9.5t49 -27t33 -42t12 -55.5q0 -37 -18.5 -73.5t-53.5 -79.5l-55 -67l1 -2h143v-85h-317l-1 2z" />
    <glyph glyph-name="uni00B3" unicode="&#xb3;" horiz-adv-x="361" 
d="M41 539q29 -17 59.5 -27.5t59.5 -10.5q33 0 53.5 14t20.5 39q0 26 -21.5 40.5t-61.5 14.5h-45v73h45q35 0 52.5 13.5t17.5 34.5q0 23 -19 35.5t-49 12.5q-26 0 -52.5 -8.5t-46.5 -19.5v86q22 14 49.5 20.5t57.5 6.5q34 0 62.5 -9t49.5 -24.5t32.5 -37t11.5 -46.5
q0 -30 -17.5 -55t-47.5 -36v-2q37 -13 57 -39.5t20 -64.5q0 -30 -13 -54.5t-35 -42.5t-52.5 -27.5t-64.5 -9.5t-67 8.5t-56 22.5v93z" />
    <glyph glyph-name="acute" unicode="&#xb4;" horiz-adv-x="518" 
d="M276 563h-86l81 164h118z" />
    <glyph glyph-name="mu" unicode="&#xb5;" horiz-adv-x="599" 
d="M193 492v-282q0 -33 5.5 -53.5t16.5 -33.5q14 -16 31 -21.5t34 -5.5q36 0 69.5 18t58.5 46v332h121v-492h-120v54l-2 1q-31 -29 -69.5 -47.5t-86.5 -18.5q-20 0 -35.5 3.5t-28.5 9.5l-2 -1l13 -221h-126v712h121z" />
    <glyph glyph-name="paragraph" unicode="&#xb6;" horiz-adv-x="590" 
d="M232 362q-38 0 -71.5 14t-58 39t-39 57.5t-14.5 70.5q0 37 14.5 70t39 58t58 39t71.5 14h269v-944h-95v860h-79v-860h-95v582z" />
    <glyph glyph-name="periodcentered" unicode="&#xb7;" horiz-adv-x="300" 
d="M73 302q0 32 23 55t55 23t55 -23t23 -55t-23 -55t-55 -23t-55 23t-23 55z" />
    <glyph glyph-name="cedilla" unicode="&#xb8;" horiz-adv-x="518" 
d="M248 37l50 -12l-20 -65q41 -9 64.5 -31.5t23.5 -59.5q0 -41 -29.5 -65.5t-79.5 -24.5q-24 0 -46 5t-38 13l18 57q17 -8 33.5 -13.5t31.5 -5.5q17 0 30 7.5t13 23.5q0 13 -9.5 22t-23.5 14t-29.5 7t-27.5 3z" />
    <glyph glyph-name="uni00B9" unicode="&#xb9;" horiz-adv-x="329" 
d="M138 740l-92 -31v87l187 67v-441h-95v318z" />
    <glyph glyph-name="ordmasculine" unicode="&#xba;" horiz-adv-x="406" 
d="M203 478q38 0 62 26t24 64t-24 64t-62 26t-62 -26t-24 -64t24 -64t62 -26zM203 401q-39 0 -71 12.5t-55 35t-36 53t-13 66.5t13 66.5t36 53t55 35t71 12.5t71 -12.5t55 -35t36 -53t13 -66.5t-13 -66.5t-36 -53t-55 -35t-71 -12.5z" />
    <glyph glyph-name="guillemotright" unicode="&#xbb;" horiz-adv-x="569" 
d="M206 246l-164 219h114l164 -219l-164 -219h-114zM428 246l-164 219h114l164 -219l-164 -219h-114z" />
    <glyph glyph-name="onequarter" unicode="&#xbc;" horiz-adv-x="963" 
d="M182 -13l476 737h105l-476 -737h-105zM838 166h69v-73h-69v-93h-94v93h-218l-1 2l229 339h84v-268zM657 168l1 -2h87v68q0 16 0.5 32.5t1.5 32.5l-3 1q-8 -14 -18 -29l-22 -33zM156 612l-92 -31v87l187 67v-441h-95v318z" />
    <glyph glyph-name="onehalf" unicode="&#xbd;" horiz-adv-x="992" 
d="M741 177q34 43 51 69.5t17 52.5t-19 41t-49 15q-27 0 -54.5 -13t-51.5 -34v93q19 15 48.5 27.5t67.5 12.5q32 0 60 -9.5t49 -27t33 -42t12 -55.5q0 -37 -18.5 -73.5t-53.5 -79.5l-55 -67l1 -2h143v-85h-317l-1 2zM182 -13l476 737h105l-476 -737h-105zM156 612l-92 -31
v87l187 67v-441h-95v318z" />
    <glyph glyph-name="threequarters" unicode="&#xbe;" horiz-adv-x="1023" 
d="M74 411q29 -17 59.5 -27.5t59.5 -10.5q33 0 53.5 14t20.5 39q0 26 -21.5 40.5t-61.5 14.5h-45v73h45q35 0 52.5 13.5t17.5 34.5q0 23 -19 35.5t-49 12.5q-26 0 -52.5 -8.5t-46.5 -19.5v86q22 14 49.5 20.5t57.5 6.5q34 0 62.5 -9t49.5 -24.5t32.5 -37t11.5 -46.5
q0 -30 -17.5 -55t-47.5 -36v-2q37 -13 57 -39.5t20 -64.5q0 -30 -13 -54.5t-35 -42.5t-52.5 -27.5t-64.5 -9.5t-67 8.5t-56 22.5v93zM242 -13l476 737h105l-476 -737h-105zM898 166h69v-73h-69v-93h-94v93h-218l-1 2l229 339h84v-268zM717 168l1 -2h87v68q0 16 0.5 32.5
t1.5 32.5l-3 1q-8 -14 -18 -29l-22 -33z" />
    <glyph glyph-name="questiondown" unicode="&#xbf;" horiz-adv-x="491" 
d="M379 115q-8 1 -13 1h-12q-41 0 -75.5 -7t-59.5 -21.5t-39 -37t-14 -53.5q0 -49 33.5 -80.5t90.5 -31.5q32 0 66 10.5t63 30.5v-122q-29 -16 -65 -25.5t-75 -9.5q-51 0 -95 16.5t-76.5 45.5t-51 69.5t-18.5 87.5q0 45 17 83t46.5 66.5t68.5 46t84 22.5l1 91h112zM382 440
q0 -31 -22 -53t-53 -22t-53 22t-22 53t22 53t53 22t53 -22t22 -53z" />
    <glyph glyph-name="Agrave" unicode="&#xc0;" horiz-adv-x="725" 
d="M721 0h-135l-69 177h-312l-70 -177h-131l297 724h124zM246 281h230l-42 109q-19 49 -37 97t-35 97h-2q-35 -99 -72 -194zM233 959h118l81 -164h-86z" />
    <glyph glyph-name="Aacute" unicode="&#xc1;" horiz-adv-x="725" 
d="M721 0h-135l-69 177h-312l-70 -177h-131l297 724h124zM246 281h230l-42 109q-19 49 -37 97t-35 97h-2q-35 -99 -72 -194zM379 795h-86l81 164h118z" />
    <glyph glyph-name="Acircumflex" unicode="&#xc2;" horiz-adv-x="725" 
d="M721 0h-135l-69 177h-312l-70 -177h-131l297 724h124zM246 281h230l-42 109q-19 49 -37 97t-35 97h-2q-35 -99 -72 -194zM308 959h108l115 -164h-88l-81 98l-81 -98h-88z" />
    <glyph glyph-name="Atilde" unicode="&#xc3;" horiz-adv-x="725" 
d="M721 0h-135l-69 177h-312l-70 -177h-131l297 724h124zM246 281h230l-42 109q-19 49 -37 97t-35 97h-2q-35 -99 -72 -194zM523 853q-14 -19 -35.5 -30.5t-49.5 -11.5q-20 0 -40.5 6.5t-43.5 17.5q-20 10 -35 16.5t-33 6.5q-28 0 -47.5 -15t-35.5 -32l-2 1v92
q14 19 35.5 30.5t49.5 11.5q20 0 40.5 -6.5t43.5 -17.5q20 -10 35 -16.5t33 -6.5q28 0 47.5 15t35.5 32l2 -1v-92z" />
    <glyph glyph-name="Adieresis" unicode="&#xc4;" horiz-adv-x="725" 
d="M721 0h-135l-69 177h-312l-70 -177h-131l297 724h124zM246 281h230l-42 109q-19 49 -37 97t-35 97h-2q-35 -99 -72 -194zM401 879q0 27 19.5 46.5t46.5 19.5t46.5 -19.5t19.5 -46.5t-19.5 -46.5t-46.5 -19.5t-46.5 19.5t-19.5 46.5zM191 879q0 27 19.5 46.5t46.5 19.5
t46.5 -19.5t19.5 -46.5t-19.5 -46.5t-46.5 -19.5t-46.5 19.5t-19.5 46.5z" />
    <glyph glyph-name="Aring" unicode="&#xc5;" horiz-adv-x="725" 
d="M721 0h-135l-69 177h-312l-70 -177h-131l297 724h124zM246 281h230l-42 109q-19 49 -37 97t-35 97h-2q-35 -99 -72 -194zM301 897q0 -26 16 -44t45 -18t45 18t16 44t-16 44t-45 18t-45 -18t-16 -44zM486 897q0 -26 -9.5 -47.5t-26 -37.5t-39 -25t-49.5 -9t-49.5 9t-39 25
t-26 37.5t-9.5 47.5q0 25 9.5 47t26 38t39 25t49.5 9t49.5 -9t39 -25t26 -38t9.5 -47z" />
    <glyph glyph-name="AE" unicode="&#xc6;" horiz-adv-x="948" 
d="M408 724h490v-113h-295v-180h255v-109h-255v-209h305v-113h-432v177h-245l-99 -177h-134zM289 281h187v127v103t2 107h-2q-28 -52 -56 -103t-56 -101z" />
    <glyph glyph-name="Ccedilla" unicode="&#xc7;" horiz-adv-x="675" 
d="M376 -8q-75 7 -137.5 38t-107 80t-69 112.5t-24.5 137.5q0 78 28 146.5t79 119t122 80t157 29.5q56 0 107.5 -12.5t94.5 -35.5v-132q-40 29 -92.5 47t-109.5 18t-105 -19.5t-82 -54t-53 -82t-19 -102.5q0 -54 19 -101t53.5 -81.5t84 -54.5t109.5 -20q58 0 110 18.5
t96 51.5v-134q-45 -26 -99 -38.5t-109 -13.5l-9 -29q41 -9 64.5 -31.5t23.5 -59.5q0 -41 -29.5 -65.5t-79.5 -24.5q-24 0 -46 5t-38 13l18 57q17 -8 33.5 -13.5t31.5 -5.5q17 0 30 7.5t13 23.5q0 13 -9.5 22t-23.5 14t-29.5 7t-27.5 3z" />
    <glyph glyph-name="Egrave" unicode="&#xc8;" horiz-adv-x="556" 
d="M74 724h432v-113h-305v-180h265v-109h-265v-209h315v-113h-442v724zM163 959h118l81 -164h-86z" />
    <glyph glyph-name="Eacute" unicode="&#xc9;" horiz-adv-x="556" 
d="M74 724h432v-113h-305v-180h265v-109h-265v-209h315v-113h-442v724zM309 795h-86l81 164h118z" />
    <glyph glyph-name="Ecircumflex" unicode="&#xca;" horiz-adv-x="556" 
d="M74 724h432v-113h-305v-180h265v-109h-265v-209h315v-113h-442v724zM238 959h108l115 -164h-88l-81 98l-81 -98h-88z" />
    <glyph glyph-name="Edieresis" unicode="&#xcb;" horiz-adv-x="556" 
d="M74 724h432v-113h-305v-180h265v-109h-265v-209h315v-113h-442v724zM331 879q0 27 19.5 46.5t46.5 19.5t46.5 -19.5t19.5 -46.5t-19.5 -46.5t-46.5 -19.5t-46.5 19.5t-19.5 46.5zM121 879q0 27 19.5 46.5t46.5 19.5t46.5 -19.5t19.5 -46.5t-19.5 -46.5t-46.5 -19.5
t-46.5 19.5t-19.5 46.5z" />
    <glyph glyph-name="Igrave" unicode="&#xcc;" horiz-adv-x="274" 
d="M74 724h127v-724h-127v724zM8 959h118l81 -164h-86z" />
    <glyph glyph-name="Iacute" unicode="&#xcd;" horiz-adv-x="274" 
d="M74 724h127v-724h-127v724zM154 795h-86l81 164h118z" />
    <glyph glyph-name="Icircumflex" unicode="&#xce;" horiz-adv-x="274" 
d="M74 724h127v-724h-127v724zM83 959h108l115 -164h-88l-81 98l-81 -98h-88z" />
    <glyph glyph-name="Idieresis" unicode="&#xcf;" horiz-adv-x="274" 
d="M74 724h127v-724h-127v724zM176 879q0 27 19.5 46.5t46.5 19.5t46.5 -19.5t19.5 -46.5t-19.5 -46.5t-46.5 -19.5t-46.5 19.5t-19.5 46.5zM-34 879q0 27 19.5 46.5t46.5 19.5t46.5 -19.5t19.5 -46.5t-19.5 -46.5t-46.5 -19.5t-46.5 19.5t-19.5 46.5z" />
    <glyph glyph-name="Eth" unicode="&#xd0;" horiz-adv-x="752" 
d="M3 416h84v308h201q85 0 154.5 -15t125.5 -51q72 -47 111 -123.5t39 -170.5q0 -89 -34.5 -162t-97.5 -121q-57 -43 -133 -62t-181 -19h-185v322h-84v94zM283 113q72 0 124 11.5t91 40.5q42 31 67.5 81.5t25.5 116.5q0 68 -27.5 119.5t-72.5 82.5q-43 29 -96 37.5t-113 8.5
h-68v-195h143v-94h-143v-209h69z" />
    <glyph glyph-name="Ntilde" unicode="&#xd1;" horiz-adv-x="780" 
d="M73 0v724h120l262 -349q66 -88 129 -175l2 1q-2 51 -2 106v113v304h123v-724h-120l-262 349q-66 88 -129 175l-2 -1q2 -51 2 -106v-113v-304h-123zM551 853q-14 -19 -35.5 -30.5t-49.5 -11.5q-20 0 -40.5 6.5t-43.5 17.5q-20 10 -35 16.5t-33 6.5q-28 0 -47.5 -15
t-35.5 -32l-2 1v92q14 19 35.5 30.5t49.5 11.5q20 0 40.5 -6.5t43.5 -17.5q20 -10 35 -16.5t33 -6.5q28 0 47.5 15t35.5 32l2 -1v-92z" />
    <glyph glyph-name="Ograve" unicode="&#xd2;" 
d="M410 105q53 0 98 20t78 54.5t51.5 81.5t18.5 101t-18.5 101t-51.5 81.5t-78 54.5t-98 20t-98 -20t-78 -54.5t-51.5 -81.5t-18.5 -101t18.5 -101t51.5 -81.5t78 -54.5t98 -20zM410 -11q-80 0 -148 28.5t-118 79t-78.5 118.5t-28.5 147t28.5 147t78.5 118.5t118 79
t148 28.5t148 -28.5t118 -79t78.5 -118.5t28.5 -147t-28.5 -147t-78.5 -118.5t-118 -79t-148 -28.5zM281 959h118l81 -164h-86z" />
    <glyph glyph-name="Oacute" unicode="&#xd3;" 
d="M410 105q53 0 98 20t78 54.5t51.5 81.5t18.5 101t-18.5 101t-51.5 81.5t-78 54.5t-98 20t-98 -20t-78 -54.5t-51.5 -81.5t-18.5 -101t18.5 -101t51.5 -81.5t78 -54.5t98 -20zM410 -11q-80 0 -148 28.5t-118 79t-78.5 118.5t-28.5 147t28.5 147t78.5 118.5t118 79
t148 28.5t148 -28.5t118 -79t78.5 -118.5t28.5 -147t-28.5 -147t-78.5 -118.5t-118 -79t-148 -28.5zM427 795h-86l81 164h118z" />
    <glyph glyph-name="Ocircumflex" unicode="&#xd4;" 
d="M410 105q53 0 98 20t78 54.5t51.5 81.5t18.5 101t-18.5 101t-51.5 81.5t-78 54.5t-98 20t-98 -20t-78 -54.5t-51.5 -81.5t-18.5 -101t18.5 -101t51.5 -81.5t78 -54.5t98 -20zM410 -11q-80 0 -148 28.5t-118 79t-78.5 118.5t-28.5 147t28.5 147t78.5 118.5t118 79
t148 28.5t148 -28.5t118 -79t78.5 -118.5t28.5 -147t-28.5 -147t-78.5 -118.5t-118 -79t-148 -28.5zM356 959h108l115 -164h-88l-81 98l-81 -98h-88z" />
    <glyph glyph-name="Otilde" unicode="&#xd5;" 
d="M410 105q53 0 98 20t78 54.5t51.5 81.5t18.5 101t-18.5 101t-51.5 81.5t-78 54.5t-98 20t-98 -20t-78 -54.5t-51.5 -81.5t-18.5 -101t18.5 -101t51.5 -81.5t78 -54.5t98 -20zM410 -11q-80 0 -148 28.5t-118 79t-78.5 118.5t-28.5 147t28.5 147t78.5 118.5t118 79
t148 28.5t148 -28.5t118 -79t78.5 -118.5t28.5 -147t-28.5 -147t-78.5 -118.5t-118 -79t-148 -28.5zM571 853q-14 -19 -35.5 -30.5t-49.5 -11.5q-20 0 -40.5 6.5t-43.5 17.5q-20 10 -35 16.5t-33 6.5q-28 0 -47.5 -15t-35.5 -32l-2 1v92q14 19 35.5 30.5t49.5 11.5
q20 0 40.5 -6.5t43.5 -17.5q20 -10 35 -16.5t33 -6.5q28 0 47.5 15t35.5 32l2 -1v-92z" />
    <glyph glyph-name="Odieresis" unicode="&#xd6;" 
d="M410 105q53 0 98 20t78 54.5t51.5 81.5t18.5 101t-18.5 101t-51.5 81.5t-78 54.5t-98 20t-98 -20t-78 -54.5t-51.5 -81.5t-18.5 -101t18.5 -101t51.5 -81.5t78 -54.5t98 -20zM410 -11q-80 0 -148 28.5t-118 79t-78.5 118.5t-28.5 147t28.5 147t78.5 118.5t118 79
t148 28.5t148 -28.5t118 -79t78.5 -118.5t28.5 -147t-28.5 -147t-78.5 -118.5t-118 -79t-148 -28.5zM449 879q0 27 19.5 46.5t46.5 19.5t46.5 -19.5t19.5 -46.5t-19.5 -46.5t-46.5 -19.5t-46.5 19.5t-19.5 46.5zM239 879q0 27 19.5 46.5t46.5 19.5t46.5 -19.5t19.5 -46.5
t-19.5 -46.5t-46.5 -19.5t-46.5 19.5t-19.5 46.5z" />
    <glyph glyph-name="multiply" unicode="&#xd7;" horiz-adv-x="594" 
d="M362 363l149 -149l-65 -65l-149 149l-149 -149l-65 65l149 149l-149 149l65 65l149 -149l149 149l65 -65z" />
    <glyph glyph-name="Oslash" unicode="&#xd8;" 
d="M543 580q-59 39 -133 39q-53 0 -98 -20t-78 -54.5t-51.5 -81.5t-18.5 -101q0 -47 13.5 -88t39.5 -74zM135 105q-46 50 -72 115.5t-26 141.5q0 79 28.5 147t78.5 118.5t118 79t148 28.5q60 0 113.5 -16.5t98.5 -46.5l61 71l63 -53l-61 -71q46 -50 72 -115.5t26 -141.5
q0 -79 -28.5 -147t-78.5 -118.5t-118 -79t-148 -28.5q-60 0 -113.5 16.5t-98.5 46.5l-61 -71l-63 53zM277 144q59 -39 133 -39q53 0 98 20t78 54.5t51.5 81.5t18.5 101q0 47 -13.5 88t-39.5 74z" />
    <glyph glyph-name="Ugrave" unicode="&#xd9;" horiz-adv-x="740" 
d="M674 352q0 -81 -10.5 -141.5t-41.5 -106.5q-38 -56 -103 -85.5t-150 -29.5q-88 0 -152 31t-100 86q-30 45 -40.5 104.5t-10.5 133.5v380h127v-372q0 -64 6 -103.5t22 -67.5q18 -32 54 -54t99 -22q57 0 92.5 19.5t55.5 53.5q17 29 23 70.5t6 101.5v374h123v-372zM243 959
h118l81 -164h-86z" />
    <glyph glyph-name="Uacute" unicode="&#xda;" horiz-adv-x="740" 
d="M674 352q0 -81 -10.5 -141.5t-41.5 -106.5q-38 -56 -103 -85.5t-150 -29.5q-88 0 -152 31t-100 86q-30 45 -40.5 104.5t-10.5 133.5v380h127v-372q0 -64 6 -103.5t22 -67.5q18 -32 54 -54t99 -22q57 0 92.5 19.5t55.5 53.5q17 29 23 70.5t6 101.5v374h123v-372zM389 795
h-86l81 164h118z" />
    <glyph glyph-name="Ucircumflex" unicode="&#xdb;" horiz-adv-x="740" 
d="M674 352q0 -81 -10.5 -141.5t-41.5 -106.5q-38 -56 -103 -85.5t-150 -29.5q-88 0 -152 31t-100 86q-30 45 -40.5 104.5t-10.5 133.5v380h127v-372q0 -64 6 -103.5t22 -67.5q18 -32 54 -54t99 -22q57 0 92.5 19.5t55.5 53.5q17 29 23 70.5t6 101.5v374h123v-372zM318 959
h108l115 -164h-88l-81 98l-81 -98h-88z" />
    <glyph glyph-name="Udieresis" unicode="&#xdc;" horiz-adv-x="740" 
d="M674 352q0 -81 -10.5 -141.5t-41.5 -106.5q-38 -56 -103 -85.5t-150 -29.5q-88 0 -152 31t-100 86q-30 45 -40.5 104.5t-10.5 133.5v380h127v-372q0 -64 6 -103.5t22 -67.5q18 -32 54 -54t99 -22q57 0 92.5 19.5t55.5 53.5q17 29 23 70.5t6 101.5v374h123v-372zM411 879
q0 27 19.5 46.5t46.5 19.5t46.5 -19.5t19.5 -46.5t-19.5 -46.5t-46.5 -19.5t-46.5 19.5t-19.5 46.5zM201 879q0 27 19.5 46.5t46.5 19.5t46.5 -19.5t19.5 -46.5t-19.5 -46.5t-46.5 -19.5t-46.5 19.5t-19.5 46.5z" />
    <glyph glyph-name="Yacute" unicode="&#xdd;" horiz-adv-x="672" 
d="M274 326l-281 398h151l104 -153q24 -35 47 -69t43 -65h2q21 32 44 66.5t47 69.5l103 151h145l-278 -397v-327h-127v326zM356 795h-86l81 164h118z" />
    <glyph glyph-name="Thorn" unicode="&#xde;" horiz-adv-x="631" 
d="M74 724h127v-134h75q59 0 114 -6.5t101 -31.5q48 -26 79 -72t31 -115q0 -65 -28 -111.5t-73 -73.5q-45 -26 -103.5 -34.5t-133.5 -8.5h-62v-137h-127v724zM273 246q56 0 90 4t60 19q24 14 37.5 37t13.5 56q0 35 -15.5 58.5t-43.5 37.5q-27 14 -62 16.5t-82 2.5h-70v-231
h72z" />
    <glyph glyph-name="germandbls" unicode="&#xdf;" horiz-adv-x="633" 
d="M71 575q0 53 19.5 92t54.5 64q29 20 67 32t86 12q46 0 87.5 -11.5t72.5 -33.5t49 -55t18 -76q0 -51 -26 -88.5t-73 -54.5v-2q43 -10 75 -30.5t53 -49t31.5 -63.5t10.5 -74q0 -56 -19.5 -101.5t-53.5 -78t-80.5 -50.5t-99.5 -18q-27 0 -50.5 4t-40.5 10v107
q17 -6 37.5 -10.5t41.5 -4.5q33 0 59.5 11t45 30t29 45.5t10.5 56.5q0 31 -11 57.5t-32 46t-50 30t-65 10.5h-39v96h23q51 0 77.5 28.5t26.5 70.5q0 45 -29.5 69.5t-77.5 24.5q-45 0 -73 -24q-33 -28 -33 -80v-567h-121v575z" />
    <glyph glyph-name="agrave" unicode="&#xe0;" horiz-adv-x="533" 
d="M352 36q-23 -18 -60 -32.5t-86 -14.5q-30 0 -59.5 7.5t-54.5 25.5q-26 19 -40.5 47.5t-14.5 65.5q0 41 17.5 70.5t45.5 48.5t64 26.5t74 7.5q26 0 49 -3t46 -8v29q0 44 -24 67q-27 24 -83 24q-45 0 -82 -13t-66 -31v110q29 17 71 28.5t95 11.5q48 0 89 -11.5t69 -34.5
q25 -21 38.5 -53t13.5 -78v-189q0 -20 8 -33t26 -13q13 0 27 7v-95q-11 -5 -26.5 -8.5t-33.5 -3.5q-30 0 -57 11t-44 34h-2zM333 198q-17 5 -37.5 7.5t-38.5 2.5q-19 0 -36.5 -3.5t-31.5 -11t-22.5 -19.5t-8.5 -30q0 -30 23 -44.5t55 -14.5q28 0 53.5 8.5t43.5 21.5v83z
M136 727h118l81 -164h-86z" />
    <glyph glyph-name="aacute" unicode="&#xe1;" horiz-adv-x="533" 
d="M352 36q-23 -18 -60 -32.5t-86 -14.5q-30 0 -59.5 7.5t-54.5 25.5q-26 19 -40.5 47.5t-14.5 65.5q0 41 17.5 70.5t45.5 48.5t64 26.5t74 7.5q26 0 49 -3t46 -8v29q0 44 -24 67q-27 24 -83 24q-45 0 -82 -13t-66 -31v110q29 17 71 28.5t95 11.5q48 0 89 -11.5t69 -34.5
q25 -21 38.5 -53t13.5 -78v-189q0 -20 8 -33t26 -13q13 0 27 7v-95q-11 -5 -26.5 -8.5t-33.5 -3.5q-30 0 -57 11t-44 34h-2zM333 198q-17 5 -37.5 7.5t-38.5 2.5q-19 0 -36.5 -3.5t-31.5 -11t-22.5 -19.5t-8.5 -30q0 -30 23 -44.5t55 -14.5q28 0 53.5 8.5t43.5 21.5v83z
M282 563h-86l81 164h118z" />
    <glyph glyph-name="acircumflex" unicode="&#xe2;" horiz-adv-x="533" 
d="M352 36q-23 -18 -60 -32.5t-86 -14.5q-30 0 -59.5 7.5t-54.5 25.5q-26 19 -40.5 47.5t-14.5 65.5q0 41 17.5 70.5t45.5 48.5t64 26.5t74 7.5q26 0 49 -3t46 -8v29q0 44 -24 67q-27 24 -83 24q-45 0 -82 -13t-66 -31v110q29 17 71 28.5t95 11.5q48 0 89 -11.5t69 -34.5
q25 -21 38.5 -53t13.5 -78v-189q0 -20 8 -33t26 -13q13 0 27 7v-95q-11 -5 -26.5 -8.5t-33.5 -3.5q-30 0 -57 11t-44 34h-2zM333 198q-17 5 -37.5 7.5t-38.5 2.5q-19 0 -36.5 -3.5t-31.5 -11t-22.5 -19.5t-8.5 -30q0 -30 23 -44.5t55 -14.5q28 0 53.5 8.5t43.5 21.5v83z
M211 727h108l115 -164h-88l-81 98l-81 -98h-88z" />
    <glyph glyph-name="atilde" unicode="&#xe3;" horiz-adv-x="533" 
d="M352 36q-23 -18 -60 -32.5t-86 -14.5q-30 0 -59.5 7.5t-54.5 25.5q-26 19 -40.5 47.5t-14.5 65.5q0 41 17.5 70.5t45.5 48.5t64 26.5t74 7.5q26 0 49 -3t46 -8v29q0 44 -24 67q-27 24 -83 24q-45 0 -82 -13t-66 -31v110q29 17 71 28.5t95 11.5q48 0 89 -11.5t69 -34.5
q25 -21 38.5 -53t13.5 -78v-189q0 -20 8 -33t26 -13q13 0 27 7v-95q-11 -5 -26.5 -8.5t-33.5 -3.5q-30 0 -57 11t-44 34h-2zM333 198q-17 5 -37.5 7.5t-38.5 2.5q-19 0 -36.5 -3.5t-31.5 -11t-22.5 -19.5t-8.5 -30q0 -30 23 -44.5t55 -14.5q28 0 53.5 8.5t43.5 21.5v83z
M426 621q-14 -19 -35.5 -30.5t-49.5 -11.5q-20 0 -40.5 6.5t-43.5 17.5q-20 10 -35 16.5t-33 6.5q-28 0 -47.5 -15t-35.5 -32l-2 1v92q14 19 35.5 30.5t49.5 11.5q20 0 40.5 -6.5t43.5 -17.5q20 -10 35 -16.5t33 -6.5q28 0 47.5 15t35.5 32l2 -1v-92z" />
    <glyph glyph-name="adieresis" unicode="&#xe4;" horiz-adv-x="533" 
d="M352 36q-23 -18 -60 -32.5t-86 -14.5q-30 0 -59.5 7.5t-54.5 25.5q-26 19 -40.5 47.5t-14.5 65.5q0 41 17.5 70.5t45.5 48.5t64 26.5t74 7.5q26 0 49 -3t46 -8v29q0 44 -24 67q-27 24 -83 24q-45 0 -82 -13t-66 -31v110q29 17 71 28.5t95 11.5q48 0 89 -11.5t69 -34.5
q25 -21 38.5 -53t13.5 -78v-189q0 -20 8 -33t26 -13q13 0 27 7v-95q-11 -5 -26.5 -8.5t-33.5 -3.5q-30 0 -57 11t-44 34h-2zM333 198q-17 5 -37.5 7.5t-38.5 2.5q-19 0 -36.5 -3.5t-31.5 -11t-22.5 -19.5t-8.5 -30q0 -30 23 -44.5t55 -14.5q28 0 53.5 8.5t43.5 21.5v83z
M304 647q0 27 19.5 46.5t46.5 19.5t46.5 -19.5t19.5 -46.5t-19.5 -46.5t-46.5 -19.5t-46.5 19.5t-19.5 46.5zM94 647q0 27 19.5 46.5t46.5 19.5t46.5 -19.5t19.5 -46.5t-19.5 -46.5t-46.5 -19.5t-46.5 19.5t-19.5 46.5z" />
    <glyph glyph-name="aring" unicode="&#xe5;" horiz-adv-x="533" 
d="M352 36q-23 -18 -60 -32.5t-86 -14.5q-30 0 -59.5 7.5t-54.5 25.5q-26 19 -40.5 47.5t-14.5 65.5q0 41 17.5 70.5t45.5 48.5t64 26.5t74 7.5q26 0 49 -3t46 -8v29q0 44 -24 67q-27 24 -83 24q-45 0 -82 -13t-66 -31v110q29 17 71 28.5t95 11.5q48 0 89 -11.5t69 -34.5
q25 -21 38.5 -53t13.5 -78v-189q0 -20 8 -33t26 -13q13 0 27 7v-95q-11 -5 -26.5 -8.5t-33.5 -3.5q-30 0 -57 11t-44 34h-2zM333 198q-17 5 -37.5 7.5t-38.5 2.5q-19 0 -36.5 -3.5t-31.5 -11t-22.5 -19.5t-8.5 -30q0 -30 23 -44.5t55 -14.5q28 0 53.5 8.5t43.5 21.5v83z
M204 665q0 -26 16 -44t45 -18t45 18t16 44t-16 44t-45 18t-45 -18t-16 -44zM389 665q0 -26 -9.5 -47.5t-26 -37.5t-39 -25t-49.5 -9t-49.5 9t-39 25t-26 37.5t-9.5 47.5q0 25 9.5 47t26 38t39 25t49.5 9t49.5 -9t39 -25t26 -38t9.5 -47z" />
    <glyph glyph-name="ae" unicode="&#xe6;" horiz-adv-x="848" 
d="M414 438q65 65 162 65q45 0 86 -15.5t72.5 -46t50 -75.5t18.5 -104q0 -11 -0.5 -25.5t-2.5 -23.5h-352q12 -61 55 -92.5t106 -31.5q45 0 87.5 15.5t79.5 41.5v-111q-35 -22 -83 -34t-98 -12q-69 0 -119 22t-82 57q-38 -36 -83.5 -57.5t-101.5 -21.5q-32 0 -62 8t-55 26
q-26 19 -40.5 47t-14.5 65q0 41 17.5 70.5t45.5 48.5t63.5 26.5t72.5 7.5q25 0 47.5 -2.5t43.5 -7.5v28q0 44 -24 67q-26 24 -81 24q-43 0 -79.5 -13t-64.5 -31v110q29 17 70 28.5t93 11.5q46 0 92.5 -13.5t78.5 -51.5h2zM689 297q-5 45 -35 76.5t-80 31.5q-21 0 -41 -6.5
t-37 -20t-29.5 -33.5t-18.5 -48h241zM353 133q-15 31 -21 65q-17 5 -37 7.5t-39 2.5t-36.5 -3.5t-31 -11t-22 -19.5t-8.5 -30q0 -30 22.5 -44.5t55.5 -14.5q31 0 61 12t56 36z" />
    <glyph glyph-name="ccedilla" unicode="&#xe7;" horiz-adv-x="511" 
d="M465 26q-33 -19 -72.5 -27.5t-77.5 -9.5l-9 -29q41 -9 64.5 -31.5t23.5 -59.5q0 -41 -29.5 -65.5t-79.5 -24.5q-24 0 -45.5 5t-37.5 13l17 57q17 -8 33.5 -13.5t31.5 -5.5q17 0 30 7.5t13 23.5q0 13 -9.5 22t-23.5 14t-29.5 7t-27.5 3l25 81q-50 7 -91 28.5t-70 54.5
t-45.5 75.5t-16.5 92.5q0 58 22 105.5t59.5 81.5t88 53t108.5 19q40 0 75.5 -9t64.5 -23v-118q-32 21 -67.5 33t-70.5 12q-36 0 -65 -12t-49.5 -32.5t-32 -48.5t-11.5 -60q0 -33 12 -60.5t33 -47.5t50.5 -31t64.5 -11q39 0 77 13t67 36v-118z" />
    <glyph glyph-name="egrave" unicode="&#xe8;" horiz-adv-x="566" 
d="M163 213q11 -62 55.5 -93t107.5 -31q47 0 89.5 15.5t78.5 41.5v-111q-35 -22 -83.5 -34t-96.5 -12q-59 0 -109.5 18.5t-87 52t-57 80.5t-20.5 105t20.5 106t55 81.5t80 52t95.5 18.5q46 0 87.5 -15.5t73 -46t50.5 -75.5t19 -104q0 -12 -0.5 -25.5t-2.5 -23.5h-355z
M408 297q-3 28 -14.5 48t-27.5 33.5t-35.5 20t-40.5 6.5t-41.5 -6.5t-37.5 -20t-29.5 -33.5t-18.5 -48h245zM156 727h118l81 -164h-86z" />
    <glyph glyph-name="eacute" unicode="&#xe9;" horiz-adv-x="566" 
d="M163 213q11 -62 55.5 -93t107.5 -31q47 0 89.5 15.5t78.5 41.5v-111q-35 -22 -83.5 -34t-96.5 -12q-59 0 -109.5 18.5t-87 52t-57 80.5t-20.5 105t20.5 106t55 81.5t80 52t95.5 18.5q46 0 87.5 -15.5t73 -46t50.5 -75.5t19 -104q0 -12 -0.5 -25.5t-2.5 -23.5h-355z
M408 297q-3 28 -14.5 48t-27.5 33.5t-35.5 20t-40.5 6.5t-41.5 -6.5t-37.5 -20t-29.5 -33.5t-18.5 -48h245zM302 563h-86l81 164h118z" />
    <glyph glyph-name="ecircumflex" unicode="&#xea;" horiz-adv-x="566" 
d="M163 213q11 -62 55.5 -93t107.5 -31q47 0 89.5 15.5t78.5 41.5v-111q-35 -22 -83.5 -34t-96.5 -12q-59 0 -109.5 18.5t-87 52t-57 80.5t-20.5 105t20.5 106t55 81.5t80 52t95.5 18.5q46 0 87.5 -15.5t73 -46t50.5 -75.5t19 -104q0 -12 -0.5 -25.5t-2.5 -23.5h-355z
M408 297q-3 28 -14.5 48t-27.5 33.5t-35.5 20t-40.5 6.5t-41.5 -6.5t-37.5 -20t-29.5 -33.5t-18.5 -48h245zM231 727h108l115 -164h-88l-81 98l-81 -98h-88z" />
    <glyph glyph-name="edieresis" unicode="&#xeb;" horiz-adv-x="566" 
d="M163 213q11 -62 55.5 -93t107.5 -31q47 0 89.5 15.5t78.5 41.5v-111q-35 -22 -83.5 -34t-96.5 -12q-59 0 -109.5 18.5t-87 52t-57 80.5t-20.5 105t20.5 106t55 81.5t80 52t95.5 18.5q46 0 87.5 -15.5t73 -46t50.5 -75.5t19 -104q0 -12 -0.5 -25.5t-2.5 -23.5h-355z
M408 297q-3 28 -14.5 48t-27.5 33.5t-35.5 20t-40.5 6.5t-41.5 -6.5t-37.5 -20t-29.5 -33.5t-18.5 -48h245zM324 647q0 27 19.5 46.5t46.5 19.5t46.5 -19.5t19.5 -46.5t-19.5 -46.5t-46.5 -19.5t-46.5 19.5t-19.5 46.5zM114 647q0 27 19.5 46.5t46.5 19.5t46.5 -19.5
t19.5 -46.5t-19.5 -46.5t-46.5 -19.5t-46.5 19.5t-19.5 46.5z" />
    <glyph glyph-name="igrave" unicode="&#xec;" horiz-adv-x="263" 
d="M71 492h121v-492h-121v492zM2 727h118l81 -164h-86z" />
    <glyph glyph-name="iacute" unicode="&#xed;" horiz-adv-x="263" 
d="M71 492h121v-492h-121v492zM148 563h-86l81 164h118z" />
    <glyph glyph-name="icircumflex" unicode="&#xee;" horiz-adv-x="263" 
d="M71 492h121v-492h-121v492zM77 727h108l115 -164h-88l-81 98l-81 -98h-88z" />
    <glyph glyph-name="idieresis" unicode="&#xef;" horiz-adv-x="263" 
d="M71 492h121v-492h-121v492zM170 647q0 27 19.5 46.5t46.5 19.5t46.5 -19.5t19.5 -46.5t-19.5 -46.5t-46.5 -19.5t-46.5 19.5t-19.5 46.5zM-40 647q0 27 19.5 46.5t46.5 19.5t46.5 -19.5t19.5 -46.5t-19.5 -46.5t-46.5 -19.5t-46.5 19.5t-19.5 46.5z" />
    <glyph glyph-name="eth" unicode="&#xf0;" horiz-adv-x="582" 
d="M117 583l102 38q-43 29 -92 53l74 76q72 -37 132 -86l114 43l16 -77l-66 -25q76 -81 113.5 -171.5t37.5 -177.5q0 -65 -20 -115t-55 -84t-82 -51t-102 -17q-59 0 -106 18.5t-81 51.5t-52 78t-18 98q0 52 17.5 97t49 78t74.5 52t95 19q33 0 61 -9.5t48 -25.5l2 2
q-31 62 -89 117l-157 -59zM153 240q0 -31 9.5 -57.5t27.5 -46t43.5 -30.5t56.5 -11q32 0 57 11.5t42.5 31.5t27 46.5t9.5 56.5q0 33 -10.5 59.5t-29 44.5t-44 28t-54.5 10q-30 0 -55 -10.5t-43 -29.5t-27.5 -45.5t-9.5 -57.5z" />
    <glyph glyph-name="ntilde" unicode="&#xf1;" horiz-adv-x="596" 
d="M71 492h120v-53l2 -1q31 28 72 46.5t90 18.5q40 0 73.5 -13t56.5 -39q22 -23 32 -56.5t10 -88.5v-306h-121v285q0 33 -4.5 52.5t-15.5 31.5q-23 27 -65 27q-36 0 -71 -18t-58 -44v-334h-121v492zM459 621q-14 -19 -35.5 -30.5t-49.5 -11.5q-20 0 -40.5 6.5t-43.5 17.5
q-20 10 -35 16.5t-33 6.5q-28 0 -47.5 -15t-35.5 -32l-2 1v92q14 19 35.5 30.5t49.5 11.5q20 0 40.5 -6.5t43.5 -17.5q20 -10 35 -16.5t33 -6.5q28 0 47.5 15t35.5 32l2 -1v-92z" />
    <glyph glyph-name="ograve" unicode="&#xf2;" horiz-adv-x="612" 
d="M160 246q0 -32 11 -59.5t30.5 -48t46 -32t58.5 -11.5q31 0 58 11.5t46.5 32t30.5 48t11 59.5t-11 59.5t-30.5 48t-46.5 32t-58 11.5q-32 0 -58.5 -11.5t-46 -32t-30.5 -48t-11 -59.5zM39 246q0 54 20 101t56 81.5t85 54.5t106 20t106 -20t85 -54.5t56 -81.5t20 -101
t-20 -101t-56 -81.5t-85 -54.5t-106 -20t-106 20t-85 54.5t-56 81.5t-20 101zM177 727h118l81 -164h-86z" />
    <glyph glyph-name="oacute" unicode="&#xf3;" horiz-adv-x="612" 
d="M160 246q0 -32 11 -59.5t30.5 -48t46 -32t58.5 -11.5q31 0 58 11.5t46.5 32t30.5 48t11 59.5t-11 59.5t-30.5 48t-46.5 32t-58 11.5q-32 0 -58.5 -11.5t-46 -32t-30.5 -48t-11 -59.5zM39 246q0 54 20 101t56 81.5t85 54.5t106 20t106 -20t85 -54.5t56 -81.5t20 -101
t-20 -101t-56 -81.5t-85 -54.5t-106 -20t-106 20t-85 54.5t-56 81.5t-20 101zM323 563h-86l81 164h118z" />
    <glyph glyph-name="ocircumflex" unicode="&#xf4;" horiz-adv-x="612" 
d="M160 246q0 -32 11 -59.5t30.5 -48t46 -32t58.5 -11.5q31 0 58 11.5t46.5 32t30.5 48t11 59.5t-11 59.5t-30.5 48t-46.5 32t-58 11.5q-32 0 -58.5 -11.5t-46 -32t-30.5 -48t-11 -59.5zM39 246q0 54 20 101t56 81.5t85 54.5t106 20t106 -20t85 -54.5t56 -81.5t20 -101
t-20 -101t-56 -81.5t-85 -54.5t-106 -20t-106 20t-85 54.5t-56 81.5t-20 101zM252 727h108l115 -164h-88l-81 98l-81 -98h-88z" />
    <glyph glyph-name="otilde" unicode="&#xf5;" horiz-adv-x="612" 
d="M160 246q0 -32 11 -59.5t30.5 -48t46 -32t58.5 -11.5q31 0 58 11.5t46.5 32t30.5 48t11 59.5t-11 59.5t-30.5 48t-46.5 32t-58 11.5q-32 0 -58.5 -11.5t-46 -32t-30.5 -48t-11 -59.5zM39 246q0 54 20 101t56 81.5t85 54.5t106 20t106 -20t85 -54.5t56 -81.5t20 -101
t-20 -101t-56 -81.5t-85 -54.5t-106 -20t-106 20t-85 54.5t-56 81.5t-20 101zM467 621q-14 -19 -35.5 -30.5t-49.5 -11.5q-20 0 -40.5 6.5t-43.5 17.5q-20 10 -35 16.5t-33 6.5q-28 0 -47.5 -15t-35.5 -32l-2 1v92q14 19 35.5 30.5t49.5 11.5q20 0 40.5 -6.5t43.5 -17.5
q20 -10 35 -16.5t33 -6.5q28 0 47.5 15t35.5 32l2 -1v-92z" />
    <glyph glyph-name="odieresis" unicode="&#xf6;" horiz-adv-x="612" 
d="M160 246q0 -32 11 -59.5t30.5 -48t46 -32t58.5 -11.5q31 0 58 11.5t46.5 32t30.5 48t11 59.5t-11 59.5t-30.5 48t-46.5 32t-58 11.5q-32 0 -58.5 -11.5t-46 -32t-30.5 -48t-11 -59.5zM39 246q0 54 20 101t56 81.5t85 54.5t106 20t106 -20t85 -54.5t56 -81.5t20 -101
t-20 -101t-56 -81.5t-85 -54.5t-106 -20t-106 20t-85 54.5t-56 81.5t-20 101zM345 647q0 27 19.5 46.5t46.5 19.5t46.5 -19.5t19.5 -46.5t-19.5 -46.5t-46.5 -19.5t-46.5 19.5t-19.5 46.5zM135 647q0 27 19.5 46.5t46.5 19.5t46.5 -19.5t19.5 -46.5t-19.5 -46.5t-46.5 -19.5
t-46.5 19.5t-19.5 46.5z" />
    <glyph glyph-name="divide" unicode="&#xf7;" horiz-adv-x="594" 
d="M54 317v91h486v-91h-486zM230 571q0 28 19.5 47.5t47.5 19.5t47.5 -19.5t19.5 -47.5t-19.5 -47.5t-47.5 -19.5t-47.5 19.5t-19.5 47.5zM364 154q0 -28 -19.5 -47.5t-47.5 -19.5t-47.5 19.5t-19.5 47.5t19.5 47.5t47.5 19.5t47.5 -19.5t19.5 -47.5z" />
    <glyph glyph-name="oslash" unicode="&#xf8;" horiz-adv-x="612" 
d="M378 378q-32 19 -72 19q-32 0 -58.5 -11.5t-46 -32t-30.5 -48t-11 -59.5q0 -50 25 -87zM107 71q-32 35 -50 79.5t-18 95.5q0 54 20 101t56 81.5t85 54.5t106 20q42 0 79.5 -10.5t66.5 -29.5l48 55l51 -44l-46 -53q32 -35 50 -79.5t18 -95.5q0 -54 -20 -101t-56 -81.5
t-85 -54.5t-106 -20q-42 0 -79.5 10.5t-66.5 29.5l-48 -55l-51 44zM234 114q32 -19 72 -19q31 0 58 11.5t46.5 32t30.5 48t11 59.5q0 49 -25 87z" />
    <glyph glyph-name="ugrave" unicode="&#xf9;" horiz-adv-x="599" 
d="M405 55q-31 -29 -70.5 -47.5t-89.5 -18.5q-41 0 -74.5 13.5t-56.5 38.5t-33.5 60t-10.5 89v302h121v-282q0 -33 5.5 -53.5t16.5 -33.5q14 -16 31 -21.5t34 -5.5q36 0 69.5 18t58.5 46v332h121v-492h-120v54zM170 727h118l81 -164h-86z" />
    <glyph glyph-name="uacute" unicode="&#xfa;" horiz-adv-x="599" 
d="M405 55q-31 -29 -70.5 -47.5t-89.5 -18.5q-41 0 -74.5 13.5t-56.5 38.5t-33.5 60t-10.5 89v302h121v-282q0 -33 5.5 -53.5t16.5 -33.5q14 -16 31 -21.5t34 -5.5q36 0 69.5 18t58.5 46v332h121v-492h-120v54zM316 563h-86l81 164h118z" />
    <glyph glyph-name="ucircumflex" unicode="&#xfb;" horiz-adv-x="599" 
d="M405 55q-31 -29 -70.5 -47.5t-89.5 -18.5q-41 0 -74.5 13.5t-56.5 38.5t-33.5 60t-10.5 89v302h121v-282q0 -33 5.5 -53.5t16.5 -33.5q14 -16 31 -21.5t34 -5.5q36 0 69.5 18t58.5 46v332h121v-492h-120v54zM245 727h108l115 -164h-88l-81 98l-81 -98h-88z" />
    <glyph glyph-name="udieresis" unicode="&#xfc;" horiz-adv-x="599" 
d="M405 55q-31 -29 -70.5 -47.5t-89.5 -18.5q-41 0 -74.5 13.5t-56.5 38.5t-33.5 60t-10.5 89v302h121v-282q0 -33 5.5 -53.5t16.5 -33.5q14 -16 31 -21.5t34 -5.5q36 0 69.5 18t58.5 46v332h121v-492h-120v54zM338 647q0 27 19.5 46.5t46.5 19.5t46.5 -19.5t19.5 -46.5
t-19.5 -46.5t-46.5 -19.5t-46.5 19.5t-19.5 46.5zM128 647q0 27 19.5 46.5t46.5 19.5t46.5 -19.5t19.5 -46.5t-19.5 -46.5t-46.5 -19.5t-46.5 19.5t-19.5 46.5z" />
    <glyph glyph-name="yacute" unicode="&#xfd;" horiz-adv-x="553" 
d="M86 -220l131 274l-203 438h131l67 -152q19 -43 34.5 -79.5t31.5 -75.5h2q17 42 35.5 83t36.5 82l64 142h123l-327 -712h-126zM296 563h-86l81 164h118z" />
    <glyph glyph-name="thorn" unicode="&#xfe;" horiz-adv-x="601" 
d="M71 764h121v-298l2 -1q24 16 57 27t73 11q48 0 91 -18t75 -51t51 -79.5t19 -103.5q0 -59 -20 -107t-55 -82.5t-82.5 -53.5t-102.5 -19q-32 0 -58 6t-48 15l-2 -1v-229h-121v984zM192 116q20 -11 47 -18.5t55 -7.5q33 0 60 12t45.5 33t28.5 49t10 61t-10 61t-28 48.5
t-44 32.5t-58 12q-30 0 -57.5 -10t-48.5 -24v-249z" />
    <glyph glyph-name="ydieresis" unicode="&#xff;" horiz-adv-x="553" 
d="M86 -220l131 274l-203 438h131l67 -152q19 -43 34.5 -79.5t31.5 -75.5h2q17 42 35.5 83t36.5 82l64 142h123l-327 -712h-126zM318 647q0 27 19.5 46.5t46.5 19.5t46.5 -19.5t19.5 -46.5t-19.5 -46.5t-46.5 -19.5t-46.5 19.5t-19.5 46.5zM108 647q0 27 19.5 46.5
t46.5 19.5t46.5 -19.5t19.5 -46.5t-19.5 -46.5t-46.5 -19.5t-46.5 19.5t-19.5 46.5z" />
    <glyph glyph-name="dotlessi" unicode="&#x131;" horiz-adv-x="263" 
d="M71 492h121v-492h-121v492z" />
    <glyph glyph-name="OE" unicode="&#x152;" horiz-adv-x="933" 
d="M468 0q-88 0 -156 15.5t-124 51.5q-73 48 -112 123t-39 172q0 87 32.5 158.5t98.5 122.5q58 45 132.5 63t169.5 18h413v-113h-295v-180h255v-109h-255v-209h305v-113h-425zM461 611q-70 -2 -117.5 -13t-85.5 -39q-45 -32 -69.5 -82.5t-24.5 -115.5q0 -69 27.5 -119
t73.5 -82q40 -28 85.5 -37t110.5 -10v498z" />
    <glyph glyph-name="oe" unicode="&#x153;" horiz-adv-x="970" 
d="M505 86q-35 -45 -86.5 -71t-116.5 -26q-57 0 -105 19.5t-83 54t-55 81.5t-20 102q0 54 20 101t55 81.5t83 54.5t105 20q66 0 117.5 -26t85.5 -71h2q34 46 84 71.5t109 25.5q45 0 86 -15.5t71.5 -46t49 -75.5t18.5 -105q0 -11 -0.5 -25t-2.5 -23h-351q12 -61 55 -92.5
t106 -31.5q45 0 87 15.5t79 41.5v-111q-35 -22 -82 -34t-95 -12q-69 0 -124 25t-90 72h-2zM160 247q0 -32 11 -59.5t30 -48t45.5 -32.5t57.5 -12t57 11.5t45 32t30 48t11 59.5t-11 59.5t-30.5 48t-46 32t-57.5 11.5t-57 -11.5t-45 -31.5t-29.5 -47.5t-10.5 -59.5zM812 297
q-5 45 -35.5 76.5t-80.5 31.5q-42 0 -78 -26.5t-47 -81.5h241z" />
    <glyph glyph-name="Scaron" unicode="&#x160;" horiz-adv-x="569" 
d="M59 177q27 -20 57.5 -34t60 -23t57 -13.5t50.5 -4.5q54 0 89 23.5t35 74.5q0 30 -13.5 48.5t-36.5 30.5t-54 20.5t-66 19.5q-38 12 -73.5 27.5t-62.5 39t-43.5 57.5t-16.5 82q0 49 17.5 88t49.5 66t77 41.5t100 14.5q53 0 111 -13t104 -40v-128q-54 35 -112.5 51.5
t-103.5 16.5q-51 0 -83.5 -21t-32.5 -67q0 -29 13 -46.5t35.5 -29t52 -20t62.5 -18.5q40 -12 77 -28.5t65 -40.5t44.5 -59t16.5 -85q0 -51 -18.5 -91.5t-51.5 -68.5t-79.5 -43t-102.5 -15q-54 0 -114 14t-110 41v133zM339 795h-108l-115 164h88l81 -98l81 98h88z" />
    <glyph glyph-name="scaron" unicode="&#x161;" horiz-adv-x="497" 
d="M303 563h-108l-115 164h88l81 -98l81 98h88zM57 143q47 -29 98.5 -42t92.5 -13q42 0 66 12.5t24 40.5q0 18 -11 28t-30 16t-44 9.5t-53 9.5q-35 7 -64 18t-50 27.5t-32.5 40t-11.5 56.5q0 39 16 68t44 49t66 30t82 10q45 0 94 -9.5t88 -29.5v-110q-45 26 -94.5 38
t-87.5 12q-39 0 -62.5 -11.5t-23.5 -37.5q0 -17 11 -26.5t29.5 -15t43 -9t51.5 -9.5q35 -8 64.5 -18t51 -26.5t33.5 -40.5t12 -59q0 -42 -17 -72.5t-46.5 -50.5t-68.5 -29.5t-82 -9.5q-46 0 -96.5 10t-92.5 31v113z" />
    <glyph glyph-name="Ydieresis" unicode="&#x178;" horiz-adv-x="672" 
d="M274 326l-281 398h151l104 -153q24 -35 47 -69t43 -65h2q21 32 44 66.5t47 69.5l103 151h145l-278 -397v-327h-127v326zM378 879q0 27 19.5 46.5t46.5 19.5t46.5 -19.5t19.5 -46.5t-19.5 -46.5t-46.5 -19.5t-46.5 19.5t-19.5 46.5zM168 879q0 27 19.5 46.5t46.5 19.5
t46.5 -19.5t19.5 -46.5t-19.5 -46.5t-46.5 -19.5t-46.5 19.5t-19.5 46.5z" />
    <glyph glyph-name="Zcaron" unicode="&#x17d;" horiz-adv-x="645" 
d="M27 0l-1 2l374 607l-1 2h-346v113h561l1 -2l-374 -607l1 -2h365v-113h-580zM380 795h-108l-115 164h88l81 -98l81 98h88z" />
    <glyph glyph-name="zcaron" unicode="&#x17e;" horiz-adv-x="483" 
d="M18 0l-1 2l245 385l-1 2h-223v103h421l1 -2l-245 -385l1 -2h238v-103h-436zM296 563h-108l-115 164h88l81 -98l81 98h88z" />
    <glyph glyph-name="florin" unicode="&#x192;" horiz-adv-x="520" 
d="M134 492h84l18 101q8 46 27 79t47 54t62.5 30.5t74.5 9.5q16 0 32.5 -1.5t29.5 -5.5v-105q-16 4 -33 5.5t-29 1.5q-37 0 -61.5 -16.5t-32.5 -61.5l-16 -91h121l-17 -103h-122l-79 -450q-9 -52 -28.5 -85t-46 -52t-58 -26t-63.5 -7q-20 0 -35.5 2t-27.5 4v108q12 -3 29 -6
t33 -3q33 0 53 17.5t27 56.5l77 441h-83z" />
    <glyph glyph-name="circumflex" unicode="&#x2c6;" horiz-adv-x="518" 
d="M205 727h108l115 -164h-88l-81 98l-81 -98h-88z" />
    <glyph glyph-name="tilde" unicode="&#x2dc;" horiz-adv-x="518" 
d="M420 621q-14 -19 -35.5 -30.5t-49.5 -11.5q-20 0 -40.5 6.5t-43.5 17.5q-20 10 -35 16.5t-33 6.5q-28 0 -47.5 -15t-35.5 -32l-2 1v92q14 19 35.5 30.5t49.5 11.5q20 0 40.5 -6.5t43.5 -17.5q20 -10 35 -16.5t33 -6.5q28 0 47.5 15t35.5 32l2 -1v-92z" />
    <glyph glyph-name="endash" unicode="&#x2013;" horiz-adv-x="493" 
d="M50 323h393v-91h-393v91z" />
    <glyph glyph-name="emdash" unicode="&#x2014;" horiz-adv-x="786" 
d="M35 316h716v-77h-716v77z" />
    <glyph glyph-name="quoteleft" unicode="&#x2018;" horiz-adv-x="267" 
d="M131 742h84l-57 -276h-112z" />
    <glyph glyph-name="quoteright" unicode="&#x2019;" horiz-adv-x="267" 
d="M109 742h112l-85 -276h-84z" />
    <glyph glyph-name="quotesinglbase" unicode="&#x201a;" horiz-adv-x="267" 
d="M109 164h112l-85 -276h-84z" />
    <glyph glyph-name="quotedblleft" unicode="&#x201c;" horiz-adv-x="442" 
d="M131 742h84l-57 -276h-112zM306 742h84l-57 -276h-112z" />
    <glyph glyph-name="quotedblright" unicode="&#x201d;" horiz-adv-x="442" 
d="M109 742h112l-85 -276h-84zM284 742h112l-85 -276h-84z" />
    <glyph glyph-name="quotedblbase" unicode="&#x201e;" horiz-adv-x="442" 
d="M109 164h112l-85 -276h-84zM284 164h112l-85 -276h-84z" />
    <glyph glyph-name="dagger" unicode="&#x2020;" horiz-adv-x="609" 
d="M249 395h-188v103h188v226h111v-226h188v-103h-188v-615h-111v615z" />
    <glyph glyph-name="daggerdbl" unicode="&#x2021;" horiz-adv-x="609" 
d="M61 110h188v285h-188v103h188v226h111v-226h188v-103h-188v-285h188v-103h-188v-227h-111v227h-188v103z" />
    <glyph glyph-name="bullet" unicode="&#x2022;" horiz-adv-x="380" 
d="M72 297q0 25 9.5 46.5t25.5 37.5t37.5 25.5t45.5 9.5q25 0 46.5 -9.5t37.5 -25.5t25.5 -37.5t9.5 -46.5q0 -24 -9.5 -45.5t-25.5 -37.5t-37.5 -25.5t-46.5 -9.5q-24 0 -45.5 9.5t-37.5 25.5t-25.5 37.5t-9.5 45.5z" />
    <glyph glyph-name="ellipsis" unicode="&#x2026;" horiz-adv-x="836" 
d="M72 67q0 32 23 55t55 23t55 -23t23 -55t-23 -55t-55 -23t-55 23t-23 55zM340 67q0 32 23 55t55 23t55 -23t23 -55t-23 -55t-55 -23t-55 23t-23 55zM608 67q0 32 23 55t55 23t55 -23t23 -55t-23 -55t-55 -23t-55 23t-23 55z" />
    <glyph glyph-name="perthousand" unicode="&#x2030;" horiz-adv-x="1364" 
d="M658 724h105l-477 -724h-105zM228 448q39 0 61 29t22 71t-22 71t-61 29t-61 -29t-22 -71t22 -71t61 -29zM228 361q-40 0 -73 14t-57 39t-37 59t-13 75q0 40 13 74.5t37 59.5t57 39t73 14t73 -14t57 -39t37 -59.5t13 -74.5t-13 -74.5t-37 -59.5t-57 -39t-73 -14zM716 276
q-39 0 -61 -29t-22 -71t22 -71t61 -29t61 29t22 71t-22 71t-61 29zM716 363q40 0 73 -14t57 -39t37 -59.5t13 -74.5t-13 -74.5t-37 -59.5t-57 -39t-73 -14t-73 14t-57 39t-37 59.5t-13 74.5t13 74.5t37 59.5t57 39t73 14zM1136 276q-39 0 -61 -29t-22 -71t22 -71t61 -29
t61 29t22 71t-22 71t-61 29zM1136 363q40 0 73 -14t57 -39t37 -59.5t13 -74.5t-13 -74.5t-37 -59.5t-57 -39t-73 -14t-73 14t-57 39t-37 59.5t-13 74.5t13 74.5t37 59.5t57 39t73 14z" />
    <glyph glyph-name="guilsinglleft" unicode="&#x2039;" horiz-adv-x="347" 
d="M141 246l164 -219h-114l-164 219l164 219h114z" />
    <glyph glyph-name="guilsinglright" unicode="&#x203a;" horiz-adv-x="347" 
d="M206 246l-164 219h114l164 -219l-164 -219h-114z" />
    <glyph glyph-name="Euro" unicode="&#x20ac;" horiz-adv-x="605" 
d="M16 326h69q-1 9 -1 18v19t0.5 21t1.5 19h-70v88h86q16 55 46.5 100t74 77t99.5 49.5t123 17.5q35 0 63 -5t54 -13v-119q-29 11 -57 16.5t-60 5.5q-75 0 -128.5 -34.5t-79.5 -94.5h181v-88h-204q-1 -8 -1.5 -18.5t-0.5 -20.5t0.5 -21t1.5 -17h204v-88h-182
q26 -61 80 -96.5t132 -35.5q32 0 64 6.5t61 18.5v-120q-29 -11 -64 -16.5t-70 -5.5q-66 0 -121.5 18t-98 51t-72.5 78.5t-46 101.5h-85v88z" />
    <glyph glyph-name="trademark" unicode="&#x2122;" horiz-adv-x="640" 
d="M109 665h-85v59h235v-59h-85v-231h-65v231zM447 501l-45 62q-11 15 -20.5 29t-17.5 28l-2 -1q1 -12 1.5 -30.5t0.5 -33.5v-121h-63v290h61l85 -118l85 118h62v-290h-64v121q0 15 0.5 33.5t1.5 30.5l-2 1q-8 -14 -17.5 -28t-20.5 -29z" />
    </font>
</defs>
</svg>
