<?xml version="1.0" encoding="utf-8"?>
<!-- Generator: Adobe Illustrator 19.2.1, SVG Export Plug-In . SVG Version: 6.00 Build 0)  -->
<svg version="1.1" id="Layer_1" xmlns="http://www.w3.org/2000/svg" xmlns:xlink="http://www.w3.org/1999/xlink" x="0px" y="0px"
	 viewBox="0 0 60 60" enable-background="new 0 0 60 60" xml:space="preserve">
<path opacity="0.75" fill="#EF5E5E" d="M12.7,33.3v5.9c0,0.6,0.4,1,1,1h0.6c0.6,0,1,0.4,1,1V59c0,0.6,0.4,1,1,1h30.5
	c0.6,0,1-0.4,1-1V41.2c0-0.6,0.4-1,1-1h1.5c0.6,0,1-0.4,1-1v-5.9c0-0.6-0.4-1-1-1H13.7C13.1,32.3,12.7,32.7,12.7,33.3z"/>
<path opacity="0.75" fill="#EF5E5E" d="M46.3,34.1L46.3,34.1c0,0.6-0.4,1.1-1,1.1h-1.5c-0.6,0-1,0.4-1,1V54c0,0.6-0.4,1-1,1H20.3
	c-0.6,0-1,0.4-1,1v3c0,0.6,0.4,1,1,1h26.5c0.6,0,1-0.4,1-1V41.2c0-0.6,0.4-1,1-1h1.5c0.6,0,1-0.4,1-1v-5.1c0-0.6-0.4-1-1-1h-3
	C46.8,33.1,46.3,33.6,46.3,34.1z"/>
<g>
	<path opacity="0.5" fill="#F5C554" d="M25.1,13.5c-0.6-0.9-1.4-1.7-2.3-2.3c-0.5-0.4-0.5-1.1,0-1.5c0.9-0.6,1.7-1.4,2.3-2.3
		c0.4-0.5,1.1-0.5,1.5,0C27.2,8.2,28,9,28.9,9.6c0.5,0.4,0.5,1.1,0,1.5c-0.9,0.6-1.7,1.4-2.3,2.3C26.2,14,25.5,14,25.1,13.5z"/>
	<g>
		<path opacity="0.5" fill="#F5C554" d="M34.5,6.2C34.3,6,34,5.7,33.7,5.5c-0.5-0.4-0.5-1.2,0-1.6c0.3-0.2,0.5-0.5,0.7-0.7
			c0.4-0.5,1.2-0.5,1.6,0c0.2,0.3,0.5,0.5,0.7,0.7c0.5,0.4,0.5,1.2,0,1.6c-0.3,0.2-0.5,0.5-0.7,0.7C35.7,6.8,34.9,6.8,34.5,6.2z"/>
		<path fill="none" stroke="#2A5869" stroke-width="2" stroke-linecap="round" stroke-linejoin="round" stroke-miterlimit="10" d="
			M34.2,6.1c-0.5-1.1-1.4-2-2.5-2.5c1.1-0.5,2-1.4,2.5-2.5c0.5,1.1,1.4,2,2.5,2.5C35.6,4,34.7,4.9,34.2,6.1z"/>
	</g>
	<g>
		<path opacity="0.5" fill="#F5C554" d="M37.3,16.3c-0.2-0.3-0.5-0.5-0.7-0.7c-0.5-0.4-0.5-1.2,0-1.6c0.3-0.2,0.5-0.5,0.7-0.7
			c0.4-0.5,1.2-0.5,1.6,0c0.2,0.3,0.5,0.5,0.7,0.7c0.5,0.4,0.5,1.2,0,1.6c-0.3,0.2-0.5,0.5-0.7,0.7C38.5,16.8,37.7,16.8,37.3,16.3z"
			/>
		<path fill="none" stroke="#2A5869" stroke-width="2" stroke-linecap="round" stroke-linejoin="round" stroke-miterlimit="10" d="
			M37,16.1c-0.5-1.1-1.4-2-2.5-2.5c1.1-0.5,2-1.4,2.5-2.5c0.5,1.1,1.4,2,2.5,2.5C38.4,14,37.4,15,37,16.1z"/>
	</g>
	<path fill="none" stroke="#2A5869" stroke-width="2" stroke-linecap="round" stroke-linejoin="round" stroke-miterlimit="10" d="
		M24.5,13.4C23.6,11.4,22,9.8,20,9c2-0.9,3.6-2.5,4.5-4.5c0.9,2,2.5,3.6,4.5,4.5C26.9,9.8,25.3,11.4,24.5,13.4z"/>
</g>
<rect x="13.3" y="38.2" fill="none" stroke="#2A5869" stroke-width="2" stroke-linecap="round" stroke-linejoin="round" stroke-miterlimit="10" width="32.5" height="19.8"/>
<g>
	<g>
		<g>
			<path fill="#2A5869" d="M35.8,23l-0.1,0.6c0,0.2-0.1,0.5-0.2,0.7c-0.1,0.2-0.1,0.4-0.2,0.6c-0.1,0.2-0.2,0.4-0.3,0.6
				c-0.4,0.8-0.8,1.4-1.3,2.1c-0.5,0.6-1,1.2-1.6,1.8c-0.6,0.6-1.1,1.1-1.8,1.6l0,0c-0.2,0.2-0.6,0.2-0.8,0l0,0
				c-0.9-0.7-1.7-1.4-2.4-2.1c-0.4-0.4-0.7-0.8-1.1-1.2c-0.3-0.4-0.7-0.9-1-1.4c-0.3-0.5-0.5-1-0.8-1.6c-0.1-0.3-0.2-0.6-0.2-0.9
				c0-0.3-0.1-0.6-0.1-1l0-0.4l0.1-0.5c0.1-0.3,0.1-0.6,0.2-0.9c0.2-0.6,0.5-1.1,0.9-1.6c0.7-1,1.8-1.7,3-2.1
				c0.6-0.2,1.2-0.3,1.9-0.3l0.4,0c0.1,0,0.3,0,0.5,0.1c0.3,0.1,0.6,0.1,0.9,0.2c1.2,0.4,2.2,1.2,2.9,2.2
				C35.5,20.5,35.9,21.7,35.8,23L35.8,23z M34.1,22.9c0-0.9-0.3-1.7-0.8-2.4c-0.5-0.7-1.2-1.2-2-1.4C31.1,19,30.9,19,30.7,19
				c-0.1,0-0.2,0-0.3,0l-0.4,0c-0.3,0-0.8,0.1-1.2,0.2c-0.8,0.2-1.5,0.7-2,1.4c-0.3,0.3-0.5,0.7-0.6,1.1c-0.1,0.2-0.1,0.4-0.2,0.6
				L26,22.4l0,0.4c0,0.2,0,0.4,0,0.6c0,0.2,0.1,0.4,0.1,0.6c0.1,0.4,0.3,0.8,0.5,1.3c0.4,0.8,1,1.6,1.7,2.4c0.6,0.8,1.3,1.5,2.1,2.1
				h-0.8l0,0c0.5-0.5,1.1-1,1.6-1.5c0.5-0.5,1-1.1,1.4-1.7c0.4-0.6,0.8-1.2,1.1-1.8c0.1-0.2,0.1-0.3,0.2-0.5
				c0.1-0.2,0.1-0.3,0.1-0.5c0-0.1,0.1-0.2,0.1-0.4L34.1,22.9L34.1,22.9z"/>
		</g>
	</g>
	<g>
		<g>
			<path fill="#2A5869" d="M29.2,22.7l0.3,0.4c0.1,0.1,0.2,0.3,0.3,0.5c0.1,0.2,0.2,0.3,0.2,0.5c0.1,0.2,0.1,0.3,0.2,0.5
				c0.2,0.7,0.3,1.3,0.4,2c0.1,0.7,0.1,1.3,0.1,1.9c0,0.6-0.1,1.3-0.1,1.9l0,0c0,0.3-0.3,0.5-0.6,0.6l0,0c-0.9,0.1-1.7,0.2-2.6,0.2
				c-0.9,0-1.8-0.1-2.7-0.3c-0.5-0.1-0.9-0.3-1.4-0.5c-0.2-0.1-0.4-0.3-0.7-0.4c-0.2-0.2-0.4-0.3-0.6-0.5l-0.2-0.2l-0.3-0.3
				c-0.2-0.2-0.3-0.4-0.4-0.7c-0.2-0.5-0.4-1-0.5-1.5c-0.2-1,0-2.1,0.5-3c0.3-0.5,0.5-0.9,1-1.3l0.2-0.2c0.1-0.1,0.2-0.2,0.3-0.2
				c0.2-0.2,0.4-0.3,0.7-0.4c0.9-0.5,2-0.6,3-0.4C27.5,21.4,28.4,21.9,29.2,22.7L29.2,22.7z M27.9,23.9c-1-0.9-2.5-1.1-3.6-0.5
				c-0.1,0.1-0.3,0.2-0.4,0.2c-0.1,0-0.1,0.1-0.2,0.1L23.6,24c-0.2,0.2-0.4,0.5-0.5,0.7c-0.3,0.6-0.4,1.2-0.3,1.8
				c0,0.3,0.1,0.6,0.2,0.9c0.1,0.1,0.2,0.3,0.2,0.4l0.1,0.2l0.2,0.2c0.1,0.1,0.2,0.2,0.3,0.3c0.1,0.1,0.3,0.2,0.4,0.3
				c0.3,0.2,0.6,0.3,1,0.4c0.7,0.2,1.5,0.3,2.3,0.4c0.8,0.1,1.6,0.1,2.4,0.1l-0.6,0.6l0,0c0-0.6,0-1.2,0-1.8c0-0.6-0.1-1.2-0.2-1.7
				c-0.1-0.6-0.2-1.1-0.4-1.6c0-0.1-0.1-0.2-0.2-0.4c-0.1-0.1-0.1-0.2-0.2-0.3c-0.1-0.1-0.1-0.2-0.2-0.3L27.9,23.9L27.9,23.9z"/>
		</g>
	</g>
	<g>
		<g>
			<path fill="#2A5869" d="M32.1,23.8l-0.3,0.3c-0.1,0.1-0.1,0.2-0.2,0.3c-0.1,0.1-0.1,0.2-0.2,0.3c-0.1,0.1-0.1,0.2-0.2,0.4
				c-0.2,0.5-0.3,1.1-0.4,1.6c-0.1,0.6-0.1,1.2-0.2,1.7c0,0.6,0,1.2,0,1.8l0,0l-0.6-0.6c0.8,0,1.6,0,2.4-0.1
				c0.8-0.1,1.6-0.2,2.3-0.4c0.4-0.1,0.7-0.3,1-0.4c0.1-0.1,0.3-0.2,0.4-0.3c0.1-0.1,0.2-0.2,0.3-0.3l0.2-0.2l0.1-0.2
				c0.1-0.1,0.2-0.3,0.2-0.4c0.1-0.3,0.2-0.6,0.2-0.9c0.1-0.6-0.1-1.3-0.3-1.8c-0.1-0.3-0.4-0.5-0.5-0.7l-0.2-0.2
				c-0.1-0.1-0.1-0.1-0.2-0.1c-0.1-0.1-0.3-0.2-0.4-0.2C34.5,22.8,33,22.9,32.1,23.8L32.1,23.8z M30.9,22.7c0.7-0.7,1.6-1.2,2.6-1.4
				c1-0.2,2.1-0.1,3,0.4c0.2,0.1,0.4,0.2,0.7,0.4c0.1,0.1,0.2,0.2,0.3,0.2l0.2,0.2c0.4,0.4,0.7,0.8,1,1.3c0.5,0.9,0.7,2,0.5,3
				c-0.1,0.5-0.2,1-0.5,1.5c-0.1,0.2-0.2,0.4-0.4,0.7l-0.3,0.3l-0.2,0.2c-0.2,0.2-0.4,0.4-0.6,0.5c-0.2,0.1-0.4,0.3-0.7,0.4
				c-0.5,0.2-0.9,0.4-1.4,0.5c-0.9,0.2-1.8,0.3-2.7,0.3c-0.9,0-1.7-0.1-2.6-0.2l0,0c-0.3,0-0.5-0.3-0.6-0.6l0,0
				c-0.1-0.7-0.1-1.3-0.1-1.9c0-0.6,0-1.3,0.1-1.9c0.1-0.7,0.2-1.3,0.4-2c0-0.2,0.1-0.3,0.2-0.5c0.1-0.2,0.1-0.3,0.2-0.5
				c0.1-0.2,0.2-0.4,0.3-0.5L30.9,22.7L30.9,22.7z"/>
		</g>
	</g>
</g>
<rect x="26" y="30.3" fill="#FFFFFF" stroke="#2A5869" stroke-width="2" stroke-linecap="round" stroke-linejoin="round" stroke-miterlimit="10" width="7.9" height="27.7"/>
<rect x="10.7" y="30.3" fill="none" stroke="#2A5869" stroke-width="2" stroke-linecap="round" stroke-linejoin="round" stroke-miterlimit="10" width="38.7" height="7.9"/>
</svg>
