<svg viewBox="0 0 20 17" version="1.1" xmlns="http://www.w3.org/2000/svg">
    <path fill="#B1BFC4" d="M11.6195455,7 L1.33431818,7 C0.597272727,7 0,7.62340089 0,8.3918118 L0,15.5605666 C0,16.3289775 0.597272727,16.9516676 1.33431818,16.9516676 L11.6195455,16.9516676 C12.3565909,16.9516676 12.9545455,16.3289775 12.9545455,15.5605666 L12.9545455,8.3918118 C12.9545455,7.62340089 12.3565909,7 11.6195455,7 L11.6195455,7 Z M3.40909091,8.38023903 C4.16181818,8.38023903 4.77272727,9.02023903 4.77272727,9.80881046 C4.77272727,10.5980962 4.16181818,11.2373819 3.40909091,11.2373819 C2.65568182,11.2373819 2.04545455,10.5980962 2.04545455,9.80881046 C2.04545455,9.02023903 2.65568182,8.38023903 3.40909091,8.38023903 L3.40909091,8.38023903 Z M11.0693182,15.8416676 L2.18386364,15.8416676 C1.60227273,15.8416676 1.30704545,15.110239 1.71204545,14.6738105 L2.85272727,13.4430962 C3.10840909,13.1673819 3.52636364,13.1673819 3.78204545,13.4430962 L4.59068182,14.315239 C4.86477273,14.6109533 5.325,14.5845247 5.56704545,14.2588105 L8.13340909,10.7973819 C8.4075,10.4273819 8.9475,10.4516676 9.19022727,10.8445247 L11.6215909,14.7788105 C11.9045455,15.2373819 11.5909091,15.8416676 11.0693182,15.8416676 Z M19.5929616,5.71584822 C19.7351911,5.71584822 19.8503485,5.60069083 19.8503485,5.45846135 L19.8503485,4.25840013 C19.8503485,4.11697877 19.7351911,4.00182138 19.5933657,4.00141732 L15.8517606,4.00141732 L15.8582256,0.259812295 C15.8586297,0.117986877 15.7434723,0.0028294872 15.6016469,0.00242542618 L14.4015856,1.060076e-06 C14.2597602,-0.000403000942 14.1446028,0.114754389 14.1441988,0.256579806 L14.1377338,4.00141732 L10.4098668,4.00141732 C10.2680414,4.00182138 10.152884,4.11697877 10.152884,4.25840013 L10.152884,5.45846135 C10.152884,5.60069083 10.2680414,5.71584822 10.4102709,5.71584822 L14.1349054,5.71584822 L14.1284404,9.43967456 C14.1284404,9.58190404 14.2431937,9.69746549 14.3854232,9.69746549 L15.5846763,9.69988985 C15.7269058,9.69988985 15.8424672,9.58513652 15.8424672,9.44290705 L15.8489322,5.71584822 L19.5929616,5.71584822 Z"></path>
</svg>
