<svg width="20px" height="13px" viewBox="0 0 20 13" version="1.1" xmlns="http://www.w3.org/2000/svg" xmlns:xlink="http://www.w3.org/1999/xlink" xmlns:sketch="http://www.bohemiancoding.com/sketch/ns"><g id="Page-1" stroke="none" stroke-width="1" fill="none" fill-rule="evenodd" sketch:type="MSPage"><g id="Icons" sketch:type="MSArtboardGroup" transform="translate(-89.000000, -15.000000)"><g id="Slices" sketch:type="MSLayerGroup" transform="translate(33.000000, 11.000000)"></g><g id="Email-Icon" sketch:type="MSLayerGroup" transform="translate(89.000000, 15.000000)" fill="#2A5969"><path d="M10,5.8237 L18.965,0.2597 C18.678,0.0997 18.352,0.0007 18,0.0007 L2,0.0007 C1.648,0.0007 1.322,0.0997 1.035,0.2597 L10,5.8237 Z" id="Fill-69" sketch:type="MSShapeGroup"></path><path d="M10.5273,7.8501 C10.3653,7.9501 10.1833,8.0001 10.0003,8.0001 C9.8173,8.0001 9.6343,7.9501 9.4723,7.8501 L0.0033,1.9741 C0.0033,1.9831 0.0003,1.9921 0.0003,2.0001 L0.0003,11.0001 C0.0003,12.1031 0.8973,13.0001 2.0003,13.0001 L18.0003,13.0001 C19.1033,13.0001 20.0003,12.1031 20.0003,11.0001 L20.0003,2.0001 C20.0003,1.9921 19.9973,1.9831 19.9973,1.9741 L10.5273,7.8501 Z" id="Fill-70" sketch:type="MSShapeGroup"></path></g></g></g></svg>