<svg width="14px" height="20px" viewBox="0 0 14 20" version="1.1" xmlns="http://www.w3.org/2000/svg" xmlns:xlink="http://www.w3.org/1999/xlink" xmlns:sketch="http://www.bohemiancoding.com/sketch/ns"><g id="Page-1" stroke="none" stroke-width="1" fill="none" fill-rule="evenodd" sketch:type="MSPage"><g id="Icons" sketch:type="MSArtboardGroup" transform="translate(-150.000000, -11.000000)"><g id="Slices" sketch:type="MSLayerGroup" transform="translate(33.000000, 11.000000)"></g><g id="Password-Icon" sketch:type="MSLayerGroup" transform="translate(149.000000, 11.000000)" fill="#B0BEC4"><path d="M10.9995,9.0005 L4.9995,9.0005 L4.9995,5.0005 C4.9995,3.3465 6.3455,2.0005 7.9995,2.0005 C9.6535,2.0005 10.9995,3.3465 10.9995,5.0005 L10.9995,9.0005 Z M7.9995,16.0005 C7.1715,16.0005 6.4995,15.3285 6.4995,14.5005 C6.4995,13.6725 7.1715,13.0005 7.9995,13.0005 C8.8275,13.0005 9.4995,13.6725 9.4995,14.5005 C9.4995,15.3285 8.8275,16.0005 7.9995,16.0005 L7.9995,16.0005 Z M12.9995,9.0005 L12.9995,5.0005 C12.9995,2.2435 10.7565,0.0005 7.9995,0.0005 C5.2425,0.0005 2.9995,2.2435 2.9995,5.0005 L2.9995,9.0005 C1.8965,9.0005 0.9995,9.8965 0.9995,11.0005 L0.9995,18.0005 C0.9995,19.1035 1.8965,20.0005 2.9995,20.0005 L12.9995,20.0005 C14.1025,20.0005 14.9995,19.1035 14.9995,18.0005 L14.9995,11.0005 C14.9995,9.8965 14.1025,9.0005 12.9995,9.0005 L12.9995,9.0005 Z" id="Fill-185" sketch:type="MSShapeGroup"></path></g></g></g></svg>