<svg viewBox="0 0 161 40" xmlns="http://www.w3.org/2000/svg" xmlns:xlink="http://www.w3.org/1999/xlink"><defs><path id="a" d="M14.285.128H.09v21.16h14.195V.128z"/><path id="c" d="M4.936 6.586V.018H.21v6.568h4.725z"/></defs><g fill="none" fill-rule="evenodd"><path d="M0 21.532v-2.806h2.212V5.192H0V2.386h8.847c4.06 0 6.536 1.881 6.536 5.15 0 2.145-1.255 3.466-2.84 4.093 2.279.627 3.896 2.245 3.896 4.456 0 3.5-2.707 5.447-7.13 5.447H0zm5.249-16.34v5.216h3.3c2.476 0 3.764-.925 3.764-2.608 0-1.717-1.32-2.608-3.796-2.608H5.249zm0 13.534h3.763c2.905 0 4.357-.957 4.357-2.806 0-1.815-1.551-2.805-4.589-2.805H5.25v5.61zM32.483 11.563c-.33-1.122-1.155-1.783-2.245-1.783-2.542 0-4.951 1.882-4.951 5.315v3.631h4.885v2.806H19.28v-2.806h3.103v-8.45H19.94V7.469h5.315v2.377c.891-1.65 2.707-2.838 5.117-2.838 2.706 0 4.39 1.551 4.885 3.763l-2.773.792zM47.338 13.345v-.792c0-1.98-1.584-2.806-3.3-2.806-1.618 0-3.005.66-4.127 1.684l-1.914-2.08c1.32-1.221 3.201-2.343 6.04-2.343 3.533 0 6.272 1.881 6.272 5.446v6.272h2.047v2.806h-5.018v-1.485c-.759 1.221-2.805 1.947-4.82 1.947-2.904 0-5.413-1.485-5.413-4.423 0-3.466 3.4-4.787 6.504-4.787 1.518 0 2.772.297 3.73.561zm0 2.509c-.924-.33-2.31-.594-3.598-.594-1.848 0-3.631.594-3.631 2.278 0 1.254 1.122 1.849 2.674 1.849 2.146 0 4.555-1.156 4.555-3.136v-.397z" fill="#000"/><g transform="translate(55.7 .245)"><mask id="b" fill="#fff"><use xlink:href="#a"/></mask><path d="M14.285 18.481v2.807H.09V18.48h5.876v-8.45h-4.49V7.225h7.395V18.48h5.414zM5.603 4.42h3.268V.128H5.603v4.29z" fill="#000" mask="url(#b)"/></g><path d="M73.485 18.726h2.145v-8.45h-2.013V7.469h4.885v1.816c.858-1.386 2.641-2.277 4.82-2.277 3.136 0 5.38 1.98 5.38 5.182v6.536h2.146v2.807h-7.295v-2.807h2.245v-5.744c0-2.443-1.486-3.136-2.84-3.136-2.211 0-4.423 1.651-4.423 4.192v4.688h2.245v2.807h-7.295v-2.807zM94.843 10.275H91.18V7.47h3.664V2.386h2.905v5.083h6.833v2.806h-6.833v5.91c0 2.178 1.519 3.07 3.268 3.07 1.65 0 3.037-.925 4.06-1.948l1.948 2.013c-1.287 1.387-3.268 2.674-6.008 2.674-3.532 0-6.173-1.947-6.173-5.71v-6.009zM122.87 11.563c-.33-1.122-1.155-1.783-2.245-1.783-2.542 0-4.952 1.882-4.952 5.315v3.631h4.886v2.806h-10.893v-2.806h3.102v-8.45h-2.442V7.469h5.314v2.377c.892-1.65 2.707-2.838 5.117-2.838 2.707 0 4.39 1.551 4.885 3.763l-2.772.792zM142.413 19.386c-1.453 1.519-4.028 2.608-6.9 2.608-4.72 0-8.02-3.17-8.02-7.493 0-4.324 3.201-7.494 7.658-7.494 4.423 0 7.526 3.4 7.526 8.022v.495h-12.115c.495 2.344 2.443 3.763 4.985 3.763 2.112 0 3.928-.858 4.918-1.947l1.948 2.046zm-11.719-6.337h8.649c-.43-2.014-2.212-3.368-4.192-3.368-2.245 0-3.962 1.387-4.457 3.368zM160.47 19.386c-1.452 1.519-4.027 2.608-6.899 2.608-4.72 0-8.021-3.17-8.021-7.493 0-4.324 3.202-7.494 7.658-7.494 4.424 0 7.527 3.4 7.527 8.022v.495H148.62c.495 2.344 2.442 3.763 4.984 3.763 2.113 0 3.929-.858 4.919-1.947l1.947 2.046zm-11.718-6.337h8.649c-.43-2.014-2.212-3.368-4.193-3.368-2.245 0-3.961 1.387-4.456 3.368zM66.74 34.75l-.815-2.718-1.487 2.719h2.302zm.203.714h-2.892l-1.048 1.914h-.856l4.002-7.118 2.169 7.118h-.815l-.56-1.914zM130.495 32.083a2.761 2.761 0 0 0-.794-.621 2.392 2.392 0 0 0-1.15-.275c-.887 0-1.66.336-2.21.886a3.142 3.142 0 0 0-.886 2.18c0 .824.336 1.435.713 1.832.488.51 1.058.703 1.71.703.52 0 .957-.113 1.293-.286.275-.142.622-.387.856-.6l-.112.936a4.633 4.633 0 0 1-.866.479c-.305.112-.794.183-1.222.183-.998 0-1.761-.336-2.311-.896-.621-.631-.856-1.405-.856-2.27 0-1.497.693-2.393 1.141-2.831.815-.795 1.751-1.029 2.75-1.029.386 0 .895.051 1.333.234.214.092.499.265.723.438l-.112.937zM131.92 34.17c-.357.347-.54.815-.54 1.324 0 .479.204.784.367.958.152.163.458.397.977.397.53 0 .906-.224 1.15-.489.317-.336.51-.845.51-1.334 0-.428-.163-.743-.346-.937a1.323 1.323 0 0 0-.968-.387c-.285 0-.743.071-1.15.469m-.754 2.749c-.295-.316-.54-.794-.54-1.476 0-.612.204-1.243.764-1.762.469-.428 1.009-.632 1.69-.632.693 0 1.192.224 1.548.58.428.429.52.948.52 1.386 0 .916-.377 1.507-.713 1.833-.54.53-1.192.652-1.762.652-.6 0-1.1-.153-1.507-.581M136.125 33.152h.733l-.051.448a1.15 1.15 0 0 1 .407-.387c.224-.122.418-.163.652-.163.244 0 .509.052.702.174.184.112.347.325.428.509.112-.204.275-.367.448-.479.245-.152.52-.204.794-.204.347 0 .703.082.988.357.265.254.336.56.336.866 0 .223-.04.478-.082.845l-.274 2.26h-.733l.285-2.26c.03-.235.06-.438.06-.632 0-.142-.02-.397-.203-.58a.718.718 0 0 0-.53-.204.918.918 0 0 0-.63.245c-.265.254-.347.63-.398 1.079l-.285 2.352h-.733l.305-2.505c.04-.295.092-.702-.173-.967-.101-.112-.275-.204-.54-.204a.822.822 0 0 0-.6.245c-.295.295-.367.763-.408 1.13l-.285 2.301h-.733l.52-4.226zM145.35 36.492c.386-.356.57-.926.57-1.446 0-.509-.204-.825-.367-.987-.183-.194-.479-.357-.937-.357-.458 0-.784.163-1.049.448-.305.326-.468.794-.468 1.283 0 .326.07.693.346 1.008.265.296.59.408.947.408.346 0 .672-.092.957-.357zm-2.75 3.228h-.733l.814-6.568h.733l-.07.59c.192-.253.417-.406.59-.498.285-.153.56-.194.865-.194.367 0 .897.072 1.324.49.326.315.55.773.55 1.455 0 .805-.295 1.517-.744 1.956-.468.458-.987.55-1.517.55-.275 0-.641-.031-.967-.235a1.645 1.645 0 0 1-.479-.478l-.366 2.932zM148.424 34.1c-.316.294-.54.804-.54 1.323 0 .418.153.845.438 1.11.254.245.56.316.855.316.458 0 .805-.153 1.049-.418.306-.315.479-.855.479-1.375 0-.57-.255-.885-.397-1.018a1.22 1.22 0 0 0-.866-.336c-.468 0-.805.194-1.018.397zm2.484-.948h.734l-.52 4.226h-.733l.071-.59a1.778 1.778 0 0 1-.53.499 1.757 1.757 0 0 1-.875.213c-.509 0-.978-.101-1.375-.519-.315-.336-.55-.815-.55-1.507 0-.866.337-1.497.734-1.874.397-.377.886-.55 1.517-.55.285 0 .59.041.896.204.255.133.428.295.56.5l.071-.602zM152.618 33.152h.733l-.06.49c.02-.031.203-.255.427-.398.265-.163.55-.194.784-.194.305 0 .703.062 1.008.367.285.285.336.631.336.947 0 .214-.03.448-.061.703l-.285 2.311h-.733l.254-2.108c.02-.173.061-.53.061-.723 0-.173-.02-.438-.214-.63-.122-.123-.325-.215-.59-.215-.326 0-.59.122-.754.296-.285.295-.366.794-.417 1.17l-.275 2.21h-.733l.519-4.226z" fill="#000"/><g transform="translate(155.96 33.134)"><mask id="d" fill="#fff"><use xlink:href="#c"/></mask><path d="M1.891 3.847L.415.017h.814l1.12 3.025L4.101.018h.835l-3.91 6.568H.21l1.68-2.74z" fill="#000" mask="url(#d)"/></g><path d="M89.613 30.272h-1.818a.316.316 0 0 0-.312.267l-.08.508-.127-.184c-.394-.571-1.271-.762-2.147-.762-2.009 0-3.724 1.522-4.058 3.656-.174 1.065.073 2.083.676 2.793.555.653 1.347.924 2.29.924 1.619 0 2.516-1.04 2.516-1.04l-.08.505a.317.317 0 0 0 .312.367h1.637c.26 0 .48-.19.52-.446l.983-6.222a.316.316 0 0 0-.312-.366M87.08 33.81c-.176 1.039-1 1.736-2.052 1.736-.527 0-.95-.17-1.22-.49-.27-.32-.37-.773-.285-1.278.163-1.029 1-1.749 2.037-1.749.516 0 .935.171 1.211.496.279.326.388.783.309 1.285M116.689 30.272h-1.818a.317.317 0 0 0-.313.267l-.08.508-.126-.184c-.394-.571-1.271-.762-2.148-.762-2.008 0-3.723 1.522-4.057 3.656-.174 1.065.073 2.083.676 2.793.555.653 1.347.924 2.29.924 1.619 0 2.517-1.04 2.517-1.04l-.082.505a.316.316 0 0 0 .313.367h1.637c.26 0 .48-.19.52-.446l.984-6.222a.317.317 0 0 0-.313-.366m-2.533 3.538c-.176 1.039-1 1.736-2.052 1.736-.527 0-.95-.17-1.22-.49-.27-.32-.37-.773-.286-1.278.164-1.029 1.002-1.749 2.037-1.749.517 0 .936.171 1.212.496.279.326.388.783.309 1.285M78.266 26.757H74.47c-.26 0-.48.189-.52.445l-1.536 9.734a.316.316 0 0 0 .313.366h1.812c.26 0 .48-.189.521-.445l.415-2.627a.527.527 0 0 1 .52-.445h1.202c2.5 0 3.943-1.21 4.32-3.608.17-1.05.007-1.874-.484-2.45-.54-.635-1.497-.97-2.767-.97m.439 3.555c-.208 1.363-1.249 1.363-2.255 1.363h-.573l.402-2.545a.316.316 0 0 1 .312-.267h.263c.685 0 1.332 0 1.666.39.2.234.26.58.185 1.06M105.365 26.757h-3.796c-.26 0-.48.189-.521.445l-1.535 9.734a.316.316 0 0 0 .312.366h1.813c.26 0 .48-.189.52-.445l.415-2.627a.527.527 0 0 1 .521-.445h1.201c2.5 0 3.944-1.21 4.321-3.608.17-1.05.007-1.874-.484-2.45-.54-.635-1.497-.97-2.767-.97m.438 3.555c-.207 1.363-1.248 1.363-2.255 1.363h-.573l.402-2.545a.316.316 0 0 1 .313-.267h.262c.685 0 1.333 0 1.667.39.2.234.26.58.184 1.06M99.295 30.272h-1.827a.527.527 0 0 0-.437.231l-2.52 3.712-1.068-3.567a.527.527 0 0 0-.506-.376h-1.796a.317.317 0 0 0-.3.418l2.013 5.906-1.893 2.67c-.148.21.002.5.259.5h1.825a.527.527 0 0 0 .433-.228l6.077-8.77a.317.317 0 0 0-.26-.496M118.831 27.028l-1.558 9.912a.317.317 0 0 0 .313.365h1.567c.26 0 .48-.188.52-.445l1.537-9.734a.316.316 0 0 0-.312-.366h-1.754a.317.317 0 0 0-.313.268" fill="#000"/></g></svg>
