<?xml version="1.0" encoding="UTF-8" standalone="no"?>
<svg viewBox="0 0 190 76" version="1.1" xmlns="http://www.w3.org/2000/svg">
    <path d="M129.879394,13.6675953 C129.080906,19 125.077169,19 121.203374,19 L119,19 L120.546128,9.04387951 C120.638406,8.44245168 121.14876,8 121.747626,8 L122.758918,8 C125.395434,8 127.885058,8 129.169418,9.52655407 C129.937774,10.4401881 130.169411,11.7962737 129.879394,13.6675953 M127.985131,0 L113.085682,0 C112.06562,0 111.199239,0.734555581 111.039794,1.7317243 L105.015468,39.5784637 C104.896365,40.3244372 105.480355,41 106.24108,41 L113.886749,41 C114.599448,41 115.206491,40.4861917 115.31791,39.789696 L117.02762,29.0587143 C117.185144,28.0615456 118.053446,27.32699 119.071588,27.32699 L123.785776,27.32699 C133.600279,27.32699 139.265373,22.6227895 140.74456,13.2962172 C141.411155,9.22000464 140.771455,6.01536319 138.84467,3.77173358 C136.725782,1.3054537 132.970184,0 127.985131,0" fill="#2790C3"></path>
    <path d="M24.8793941,13.6675953 C24.0809065,19 20.0771689,19 16.2033739,19 L14,19 L15.5461282,9.04387951 C15.6384062,8.44245168 16.1487604,8 16.7476261,8 L17.7589182,8 C20.395434,8 22.8850582,8 24.1694181,9.52655407 C24.9377741,10.4401881 25.1694109,11.7962737 24.8793941,13.6675953 M22.9851455,0 L8.0857138,0 C7.06565214,0 6.19927209,0.734555581 6.03982742,1.7317243 L0.0155084774,39.5784637 C-0.103594767,40.3244372 0.478474315,41 1.24111928,41 L8.35657763,41 C9.37471826,41 10.2410983,40.2654444 10.400543,39.2701787 L12.027647,29.0587143 C12.1851706,28.0615456 13.0534717,27.32699 14.0716123,27.32699 L18.7857956,27.32699 C28.6002871,27.32699 34.2653753,22.6227895 35.7445608,13.2962172 C36.4111547,9.22000464 35.7714551,6.01536319 33.8446719,3.77173358 C31.7257868,1.3054537 27.9701926,0 22.9851455,0" fill="#27346A"></path>
    <path d="M56.9015642,28.0886569 C56.2205307,32.223382 53.0259337,35 48.9492182,35 C46.9061178,35 45.2689817,34.3238692 44.2180276,33.0456507 C43.1765586,31.7791232 42.7838736,29.9728601 43.1139567,27.9639527 C43.7475644,23.8643006 46.9952782,21 51.0093918,21 C53.0107575,21 54.6346144,21.6819763 55.7064358,22.9718859 C56.7858454,24.2715379 57.2107799,26.0875435 56.9015642,28.0886569 M66.7564392,13.6737471 L59.6185438,13.6737471 C59.0073831,13.6737471 58.4865512,14.1184202 58.3904568,14.7247926 L58.0771889,16.722934 L57.5794197,15.9991371 C56.0322991,13.7526718 52.5863523,13 49.1461711,13 C41.2606609,13 34.5244403,18.9867242 33.2137121,27.381613 C32.5314415,31.570395 33.5000735,35.5724527 35.8716844,38.3656157 C38.0491846,40.9316296 41.1568789,42 44.8603589,42 C51.2179674,42 54.7427116,37.9113176 54.7427116,37.9113176 L54.4236781,39.8979091 C54.304521,40.6525058 54.8868533,41.3358779 55.6517651,41.3358779 L62.0785616,41.3358779 C63.0990846,41.3358779 63.9658565,40.5947561 64.1253733,39.5860604 L67.9845262,15.1117159 C68.1036834,14.3571192 67.5194291,13.6737471 66.7564392,13.6737471" fill="#27346A"></path>
    <path d="M162.901566,28.0886569 C162.220544,32.223382 159.026,35 154.949353,35 C152.906287,35 151.269178,34.3238692 150.218241,33.0456507 C149.174893,31.7791232 148.784111,29.9728601 149.114189,27.9639527 C149.747786,23.8643006 152.995445,21 157.009492,21 C159.010824,21 160.634654,21.6819763 161.706457,22.9718859 C162.785849,24.2715379 163.210776,26.0875435 162.901566,28.0886569 M172.756439,13.6737471 L165.618544,13.6737471 C165.007383,13.6737471 164.486551,14.1184202 164.390457,14.7247926 L164.077189,16.722934 L163.577498,15.9991371 C162.032299,13.7526718 158.586352,13 155.146171,13 C147.260661,13 140.52444,18.9867242 139.213712,27.381613 C138.531442,31.570395 139.500074,35.5724527 141.871684,38.3656157 C144.049185,40.9316296 147.156879,42 150.860359,42 C157.217967,42 160.742712,37.9113176 160.742712,37.9113176 L160.423678,39.8979091 C160.304521,40.6525058 160.886853,41.3358779 161.651765,41.3358779 L168.078562,41.3358779 C169.099085,41.3358779 169.965857,40.5947561 170.125373,39.5860604 L173.984526,15.1117159 C174.103683,14.3571192 173.519429,13.6737471 172.756439,13.6737471" fill="#2790C3"></path>
    <path d="M103.774058,14 L96.7041381,14 C96.0280166,14 95.3954548,14.3376469 95.0166752,14.9022994 L85.263102,29.3696123 L81.1306171,15.4669519 C80.8711531,14.5970819 80.0757161,14 79.1742208,14 L72.22551,14 C71.3865134,14 70.7956173,14.8317179 71.0664446,15.6310064 L78.8503643,38.6482264 L71.5285557,49.054238 C70.9547047,49.870695 71.5342374,51 72.5285337,51 L79.5908783,51 C80.2594242,51 80.8863043,50.6699835 81.2688717,50.1167767 L104.779718,15.936224 C105.342206,15.1178594 104.762673,14 103.774058,14" fill="#27346A"></path>
    <path d="M180.939351,1.03903458 L175.015026,39.5784637 C174.899629,40.3244372 175.463585,41 176.202497,41 L182.162186,41 C183.148643,41 183.989923,40.2654444 184.142545,39.2682757 L189.984975,1.42153632 C190.100372,0.675562776 189.536417,0 188.795643,0 L182.128683,0 C181.534948,0 181.030552,0.439591553 180.939351,1.03903458" fill="#2790C3"></path>
    <path d="M50.585,72 L52.363,72 L52.363,68.206 L53.231,68.206 C54.631,68.206 55.723,68.094 56.549,67.604 C57.389,67.1 57.963,66.218 57.963,65.014 C57.963,63.74 57.305,62.872 56.423,62.396 C55.569,61.934 54.505,61.864 53.413,61.864 L50.585,61.864 L50.585,72 Z M52.363,66.68 L52.363,63.446 L53.343,63.446 C54.211,63.446 54.855,63.46 55.359,63.712 C55.877,63.978 56.185,64.398 56.185,65.056 C56.185,65.672 55.919,66.092 55.471,66.358 C54.995,66.638 54.407,66.68 53.371,66.68 L52.363,66.68 Z M63.087,71.496 C63.409,71.93 63.941,72.126 64.501,72.126 C64.837,72.126 65.131,72.056 65.341,71.958 L65.341,70.628 C65.229,70.684 65.089,70.726 64.963,70.726 C64.627,70.726 64.487,70.46 64.487,70.082 L64.487,67.436 C64.487,66.582 64.221,65.994 63.759,65.602 C63.241,65.168 62.443,64.958 61.547,64.958 C60.567,64.958 59.769,65.21 59.223,65.518 L59.223,67.058 C59.755,66.722 60.469,66.442 61.295,66.442 C61.813,66.442 62.205,66.554 62.457,66.778 C62.681,66.988 62.793,67.296 62.793,67.716 L62.793,68.122 C62.373,68.024 61.939,67.968 61.463,67.968 C60.749,67.968 60.049,68.094 59.531,68.444 C59.013,68.794 58.649,69.354 58.649,70.11 C58.649,70.796 58.943,71.342 59.419,71.692 C59.881,72.028 60.455,72.154 61.015,72.154 C61.925,72.154 62.639,71.832 63.059,71.496 L63.087,71.496 Z M62.793,70.39 C62.457,70.628 61.953,70.81 61.435,70.81 C60.833,70.81 60.343,70.544 60.343,69.984 C60.343,69.312 61.029,69.088 61.729,69.088 C62.065,69.088 62.485,69.144 62.793,69.228 L62.793,70.39 Z M68.099,75.08 L72.677,65.112 L70.955,65.112 L70.059,67.1 C69.723,67.856 69.373,68.64 69.051,69.41 L69.023,69.41 C68.729,68.682 68.449,68.038 68.099,67.24 L67.161,65.112 L65.327,65.112 L68.169,71.244 L66.335,75.08 L68.099,75.08 Z M83.051,72 L84.745,72 L84.745,67.688 C84.745,66.722 84.563,66.12 84.143,65.658 C83.723,65.21 83.107,64.958 82.351,64.958 C81.455,64.958 80.601,65.322 79.831,66.036 C79.425,65.28 78.585,64.958 77.773,64.958 C76.891,64.958 76.135,65.336 75.575,65.854 L75.547,65.84 L75.547,65.112 L73.867,65.112 L73.867,72 L75.561,72 L75.561,67.282 C75.981,66.848 76.639,66.456 77.283,66.456 C77.619,66.456 77.941,66.554 78.179,66.82 C78.389,67.058 78.459,67.366 78.459,67.968 L78.459,72 L80.153,72 L80.153,67.688 C80.153,67.534 80.153,67.394 80.139,67.268 C80.559,66.834 81.217,66.456 81.861,66.456 C82.225,66.456 82.519,66.568 82.743,66.82 C82.953,67.058 83.051,67.38 83.051,67.968 L83.051,72 Z M92.963,69.018 C92.991,68.836 93.005,68.556 93.005,68.332 C93.005,66.12 91.493,64.958 89.785,64.958 C87.909,64.958 86.271,66.386 86.271,68.57 C86.271,70.726 87.895,72.154 90.107,72.154 C91.003,72.154 91.983,71.916 92.627,71.51 L92.627,69.956 C91.955,70.432 91.143,70.754 90.275,70.754 C89.113,70.754 88.203,70.166 87.993,69.018 L92.963,69.018 Z M87.993,67.842 C88.203,66.806 88.987,66.33 89.771,66.33 C90.541,66.33 91.297,66.806 91.423,67.842 L87.993,67.842 Z M94.629,72 L96.323,72 L96.323,67.324 C96.757,66.848 97.457,66.456 98.129,66.456 C98.521,66.456 98.829,66.582 99.039,66.834 C99.235,67.058 99.319,67.394 99.319,68.01 L99.319,72 L101.013,72 L101.013,67.716 C101.013,66.694 100.831,66.12 100.425,65.686 C99.991,65.21 99.347,64.958 98.605,64.958 C97.695,64.958 96.911,65.35 96.337,65.868 L96.309,65.854 L96.309,65.112 L94.629,65.112 L94.629,72 Z M107.145,70.39 C106.865,70.544 106.473,70.684 106.109,70.684 C105.339,70.684 105.199,70.04 105.199,69.27 L105.199,66.554 L107.145,66.554 L107.145,65.112 L105.199,65.112 L105.199,62.984 L103.505,63.278 L103.505,65.112 L102.301,65.112 L102.301,66.554 L103.505,66.554 L103.505,69.508 C103.505,70.53 103.715,71.104 104.065,71.482 C104.499,71.972 105.143,72.154 105.745,72.154 C106.277,72.154 106.837,72.014 107.145,71.832 L107.145,70.39 Z M108.377,71.58 C109.147,71.972 110.169,72.154 111.023,72.154 C112.647,72.154 114.019,71.44 114.019,69.886 C114.019,68.57 113.081,68.15 111.765,67.87 C110.743,67.66 109.875,67.674 109.875,67.03 C109.875,66.554 110.351,66.344 111.079,66.344 C111.779,66.344 112.787,66.568 113.627,67.044 L113.627,65.504 C112.899,65.126 111.905,64.958 111.079,64.958 C109.427,64.958 108.181,65.714 108.167,67.156 C108.167,68.402 109.063,68.864 110.379,69.144 C111.429,69.368 112.311,69.34 112.311,70.026 C112.311,70.544 111.821,70.768 111.051,70.768 C110.295,70.768 109.245,70.53 108.377,69.998 L108.377,71.58 Z M118.933,72 L120.711,72 L120.711,68.206 L121.579,68.206 C122.979,68.206 124.071,68.094 124.897,67.604 C125.737,67.1 126.311,66.218 126.311,65.014 C126.311,63.74 125.653,62.872 124.771,62.396 C123.917,61.934 122.853,61.864 121.761,61.864 L118.933,61.864 L118.933,72 Z M120.711,66.68 L120.711,63.446 L121.691,63.446 C122.559,63.446 123.203,63.46 123.707,63.712 C124.225,63.978 124.533,64.398 124.533,65.056 C124.533,65.672 124.267,66.092 123.819,66.358 C123.343,66.638 122.755,66.68 121.719,66.68 L120.711,66.68 Z M127.613,72 L129.307,72 L129.307,67.674 C129.783,67.002 130.427,66.652 131.225,66.652 C131.449,66.652 131.617,66.68 131.785,66.722 L131.785,65.098 C131.631,65.056 131.477,65.042 131.323,65.042 C130.511,65.042 129.797,65.42 129.321,66.092 L129.293,66.078 L129.293,65.112 L127.613,65.112 L127.613,72 Z M134.123,68.556 C134.123,67.366 134.991,66.442 136.167,66.442 C137.343,66.442 138.211,67.366 138.211,68.556 C138.211,69.746 137.343,70.67 136.167,70.67 C134.991,70.67 134.123,69.746 134.123,68.556 L134.123,68.556 Z M132.429,68.556 C132.429,70.586 134.025,72.154 136.167,72.154 C138.309,72.154 139.905,70.586 139.905,68.556 C139.905,66.526 138.309,64.958 136.167,64.958 C134.025,64.958 132.429,66.526 132.429,68.556 L132.429,68.556 Z" fill="#A3ADB0"></path>
</svg>
