<?xml version="1.0" encoding="UTF-8" standalone="no"?>
<svg viewBox="0 0 190 76" version="1.1" xmlns="http://www.w3.org/2000/svg">
    <path d="M129.879394,13.6675953 C129.080906,19 125.077169,19 121.203374,19 L119,19 L120.546128,9.04387951 C120.638406,8.44245168 121.14876,8 121.747626,8 L122.758918,8 C125.395434,8 127.885058,8 129.169418,9.52655407 C129.937774,10.4401881 130.169411,11.7962737 129.879394,13.6675953 M127.985131,0 L113.085682,0 C112.06562,0 111.199239,0.734555581 111.039794,1.7317243 L105.015468,39.5784637 C104.896365,40.3244372 105.480355,41 106.24108,41 L113.886749,41 C114.599448,41 115.206491,40.4861917 115.31791,39.789696 L117.02762,29.0587143 C117.185144,28.0615456 118.053446,27.32699 119.071588,27.32699 L123.785776,27.32699 C133.600279,27.32699 139.265373,22.6227895 140.74456,13.2962172 C141.411155,9.22000464 140.771455,6.01536319 138.84467,3.77173358 C136.725782,1.3054537 132.970184,0 127.985131,0" fill="#2790C3"></path>
    <path d="M24.8793941,13.6675953 C24.0809065,19 20.0771689,19 16.2033739,19 L14,19 L15.5461282,9.04387951 C15.6384062,8.44245168 16.1487604,8 16.7476261,8 L17.7589182,8 C20.395434,8 22.8850582,8 24.1694181,9.52655407 C24.9377741,10.4401881 25.1694109,11.7962737 24.8793941,13.6675953 M22.9851455,0 L8.0857138,0 C7.06565214,0 6.19927209,0.734555581 6.03982742,1.7317243 L0.0155084774,39.5784637 C-0.103594767,40.3244372 0.478474315,41 1.24111928,41 L8.35657763,41 C9.37471826,41 10.2410983,40.2654444 10.400543,39.2701787 L12.027647,29.0587143 C12.1851706,28.0615456 13.0534717,27.32699 14.0716123,27.32699 L18.7857956,27.32699 C28.6002871,27.32699 34.2653753,22.6227895 35.7445608,13.2962172 C36.4111547,9.22000464 35.7714551,6.01536319 33.8446719,3.77173358 C31.7257868,1.3054537 27.9701926,0 22.9851455,0" fill="#27346A"></path>
    <path d="M56.9015642,28.0886569 C56.2205307,32.223382 53.0259337,35 48.9492182,35 C46.9061178,35 45.2689817,34.3238692 44.2180276,33.0456507 C43.1765586,31.7791232 42.7838736,29.9728601 43.1139567,27.9639527 C43.7475644,23.8643006 46.9952782,21 51.0093918,21 C53.0107575,21 54.6346144,21.6819763 55.7064358,22.9718859 C56.7858454,24.2715379 57.2107799,26.0875435 56.9015642,28.0886569 M66.7564392,13.6737471 L59.6185438,13.6737471 C59.0073831,13.6737471 58.4865512,14.1184202 58.3904568,14.7247926 L58.0771889,16.722934 L57.5794197,15.9991371 C56.0322991,13.7526718 52.5863523,13 49.1461711,13 C41.2606609,13 34.5244403,18.9867242 33.2137121,27.381613 C32.5314415,31.570395 33.5000735,35.5724527 35.8716844,38.3656157 C38.0491846,40.9316296 41.1568789,42 44.8603589,42 C51.2179674,42 54.7427116,37.9113176 54.7427116,37.9113176 L54.4236781,39.8979091 C54.304521,40.6525058 54.8868533,41.3358779 55.6517651,41.3358779 L62.0785616,41.3358779 C63.0990846,41.3358779 63.9658565,40.5947561 64.1253733,39.5860604 L67.9845262,15.1117159 C68.1036834,14.3571192 67.5194291,13.6737471 66.7564392,13.6737471" fill="#27346A"></path>
    <path d="M162.901566,28.0886569 C162.220544,32.223382 159.026,35 154.949353,35 C152.906287,35 151.269178,34.3238692 150.218241,33.0456507 C149.174893,31.7791232 148.784111,29.9728601 149.114189,27.9639527 C149.747786,23.8643006 152.995445,21 157.009492,21 C159.010824,21 160.634654,21.6819763 161.706457,22.9718859 C162.785849,24.2715379 163.210776,26.0875435 162.901566,28.0886569 M172.756439,13.6737471 L165.618544,13.6737471 C165.007383,13.6737471 164.486551,14.1184202 164.390457,14.7247926 L164.077189,16.722934 L163.577498,15.9991371 C162.032299,13.7526718 158.586352,13 155.146171,13 C147.260661,13 140.52444,18.9867242 139.213712,27.381613 C138.531442,31.570395 139.500074,35.5724527 141.871684,38.3656157 C144.049185,40.9316296 147.156879,42 150.860359,42 C157.217967,42 160.742712,37.9113176 160.742712,37.9113176 L160.423678,39.8979091 C160.304521,40.6525058 160.886853,41.3358779 161.651765,41.3358779 L168.078562,41.3358779 C169.099085,41.3358779 169.965857,40.5947561 170.125373,39.5860604 L173.984526,15.1117159 C174.103683,14.3571192 173.519429,13.6737471 172.756439,13.6737471" fill="#2790C3"></path>
    <path d="M103.774058,14 L96.7041381,14 C96.0280166,14 95.3954548,14.3376469 95.0166752,14.9022994 L85.263102,29.3696123 L81.1306171,15.4669519 C80.8711531,14.5970819 80.0757161,14 79.1742208,14 L72.22551,14 C71.3865134,14 70.7956173,14.8317179 71.0664446,15.6310064 L78.8503643,38.6482264 L71.5285557,49.054238 C70.9547047,49.870695 71.5342374,51 72.5285337,51 L79.5908783,51 C80.2594242,51 80.8863043,50.6699835 81.2688717,50.1167767 L104.779718,15.936224 C105.342206,15.1178594 104.762673,14 103.774058,14" fill="#27346A"></path>
    <path d="M180.939351,1.03903458 L175.015026,39.5784637 C174.899629,40.3244372 175.463585,41 176.202497,41 L182.162186,41 C183.148643,41 183.989923,40.2654444 184.142545,39.2682757 L189.984975,1.42153632 C190.100372,0.675562776 189.536417,0 188.795643,0 L182.128683,0 C181.534948,0 181.030552,0.439591553 180.939351,1.03903458" fill="#2790C3"></path>
    <path d="M32.385,72 L34.163,72 L34.163,68.206 L35.031,68.206 C36.431,68.206 37.523,68.094 38.349,67.604 C39.189,67.1 39.763,66.218 39.763,65.014 C39.763,63.74 39.105,62.872 38.223,62.396 C37.369,61.934 36.305,61.864 35.213,61.864 L32.385,61.864 L32.385,72 Z M34.163,66.68 L34.163,63.446 L35.143,63.446 C36.011,63.446 36.655,63.46 37.159,63.712 C37.677,63.978 37.985,64.398 37.985,65.056 C37.985,65.672 37.719,66.092 37.271,66.358 C36.795,66.638 36.207,66.68 35.171,66.68 L34.163,66.68 Z M44.887,71.496 C45.209,71.93 45.741,72.126 46.301,72.126 C46.637,72.126 46.931,72.056 47.141,71.958 L47.141,70.628 C47.029,70.684 46.889,70.726 46.763,70.726 C46.427,70.726 46.287,70.46 46.287,70.082 L46.287,67.436 C46.287,66.582 46.021,65.994 45.559,65.602 C45.041,65.168 44.243,64.958 43.347,64.958 C42.367,64.958 41.569,65.21 41.023,65.518 L41.023,67.058 C41.555,66.722 42.269,66.442 43.095,66.442 C43.613,66.442 44.005,66.554 44.257,66.778 C44.481,66.988 44.593,67.296 44.593,67.716 L44.593,68.122 C44.173,68.024 43.739,67.968 43.263,67.968 C42.549,67.968 41.849,68.094 41.331,68.444 C40.813,68.794 40.449,69.354 40.449,70.11 C40.449,70.796 40.743,71.342 41.219,71.692 C41.681,72.028 42.255,72.154 42.815,72.154 C43.725,72.154 44.439,71.832 44.859,71.496 L44.887,71.496 Z M44.593,70.39 C44.257,70.628 43.753,70.81 43.235,70.81 C42.633,70.81 42.143,70.544 42.143,69.984 C42.143,69.312 42.829,69.088 43.529,69.088 C43.865,69.088 44.285,69.144 44.593,69.228 L44.593,70.39 Z M49.899,75.08 L54.477,65.112 L52.755,65.112 L51.859,67.1 C51.523,67.856 51.173,68.64 50.851,69.41 L50.823,69.41 C50.529,68.682 50.249,68.038 49.899,67.24 L48.961,65.112 L47.127,65.112 L49.969,71.244 L48.135,75.08 L49.899,75.08 Z M64.851,72 L66.545,72 L66.545,67.688 C66.545,66.722 66.363,66.12 65.943,65.658 C65.523,65.21 64.907,64.958 64.151,64.958 C63.255,64.958 62.401,65.322 61.631,66.036 C61.225,65.28 60.385,64.958 59.573,64.958 C58.691,64.958 57.935,65.336 57.375,65.854 L57.347,65.84 L57.347,65.112 L55.667,65.112 L55.667,72 L57.361,72 L57.361,67.282 C57.781,66.848 58.439,66.456 59.083,66.456 C59.419,66.456 59.741,66.554 59.979,66.82 C60.189,67.058 60.259,67.366 60.259,67.968 L60.259,72 L61.953,72 L61.953,67.688 C61.953,67.534 61.953,67.394 61.939,67.268 C62.359,66.834 63.017,66.456 63.661,66.456 C64.025,66.456 64.319,66.568 64.543,66.82 C64.753,67.058 64.851,67.38 64.851,67.968 L64.851,72 Z M74.763,69.018 C74.791,68.836 74.805,68.556 74.805,68.332 C74.805,66.12 73.293,64.958 71.585,64.958 C69.709,64.958 68.071,66.386 68.071,68.57 C68.071,70.726 69.695,72.154 71.907,72.154 C72.803,72.154 73.783,71.916 74.427,71.51 L74.427,69.956 C73.755,70.432 72.943,70.754 72.075,70.754 C70.913,70.754 70.003,70.166 69.793,69.018 L74.763,69.018 Z M69.793,67.842 C70.003,66.806 70.787,66.33 71.571,66.33 C72.341,66.33 73.097,66.806 73.223,67.842 L69.793,67.842 Z M76.429,72 L78.123,72 L78.123,67.324 C78.557,66.848 79.257,66.456 79.929,66.456 C80.321,66.456 80.629,66.582 80.839,66.834 C81.035,67.058 81.119,67.394 81.119,68.01 L81.119,72 L82.813,72 L82.813,67.716 C82.813,66.694 82.631,66.12 82.225,65.686 C81.791,65.21 81.147,64.958 80.405,64.958 C79.495,64.958 78.711,65.35 78.137,65.868 L78.109,65.854 L78.109,65.112 L76.429,65.112 L76.429,72 Z M88.945,70.39 C88.665,70.544 88.273,70.684 87.909,70.684 C87.139,70.684 86.999,70.04 86.999,69.27 L86.999,66.554 L88.945,66.554 L88.945,65.112 L86.999,65.112 L86.999,62.984 L85.305,63.278 L85.305,65.112 L84.101,65.112 L84.101,66.554 L85.305,66.554 L85.305,69.508 C85.305,70.53 85.515,71.104 85.865,71.482 C86.299,71.972 86.943,72.154 87.545,72.154 C88.077,72.154 88.637,72.014 88.945,71.832 L88.945,70.39 Z M90.177,71.58 C90.947,71.972 91.969,72.154 92.823,72.154 C94.447,72.154 95.819,71.44 95.819,69.886 C95.819,68.57 94.881,68.15 93.565,67.87 C92.543,67.66 91.675,67.674 91.675,67.03 C91.675,66.554 92.151,66.344 92.879,66.344 C93.579,66.344 94.587,66.568 95.427,67.044 L95.427,65.504 C94.699,65.126 93.705,64.958 92.879,64.958 C91.227,64.958 89.981,65.714 89.967,67.156 C89.967,68.402 90.863,68.864 92.179,69.144 C93.229,69.368 94.111,69.34 94.111,70.026 C94.111,70.544 93.621,70.768 92.851,70.768 C92.095,70.768 91.045,70.53 90.177,69.998 L90.177,71.58 Z M100.523,71.384 C101.447,71.888 102.665,72.154 103.659,72.154 C105.759,72.154 107.187,71.006 107.187,69.102 C107.187,67.24 105.843,66.582 104.345,66.12 C103.127,65.742 102.063,65.602 102.063,64.524 C102.063,63.67 102.735,63.292 103.687,63.292 C104.513,63.292 105.703,63.586 106.711,64.244 L106.711,62.452 C105.857,61.948 104.681,61.71 103.701,61.71 C101.657,61.71 100.285,62.816 100.285,64.65 C100.285,66.456 101.615,67.1 103.029,67.534 C104.345,67.926 105.409,68.08 105.409,69.2 C105.409,70.138 104.681,70.572 103.673,70.572 C102.833,70.572 101.545,70.25 100.523,69.522 L100.523,71.384 Z M112.829,70.39 C112.549,70.544 112.157,70.684 111.793,70.684 C111.023,70.684 110.883,70.04 110.883,69.27 L110.883,66.554 L112.829,66.554 L112.829,65.112 L110.883,65.112 L110.883,62.984 L109.189,63.278 L109.189,65.112 L107.985,65.112 L107.985,66.554 L109.189,66.554 L109.189,69.508 C109.189,70.53 109.399,71.104 109.749,71.482 C110.183,71.972 110.827,72.154 111.429,72.154 C111.961,72.154 112.521,72.014 112.829,71.832 L112.829,70.39 Z M118.219,71.496 C118.541,71.93 119.073,72.126 119.633,72.126 C119.969,72.126 120.263,72.056 120.473,71.958 L120.473,70.628 C120.361,70.684 120.221,70.726 120.095,70.726 C119.759,70.726 119.619,70.46 119.619,70.082 L119.619,67.436 C119.619,66.582 119.353,65.994 118.891,65.602 C118.373,65.168 117.575,64.958 116.679,64.958 C115.699,64.958 114.901,65.21 114.355,65.518 L114.355,67.058 C114.887,66.722 115.601,66.442 116.427,66.442 C116.945,66.442 117.337,66.554 117.589,66.778 C117.813,66.988 117.925,67.296 117.925,67.716 L117.925,68.122 C117.505,68.024 117.071,67.968 116.595,67.968 C115.881,67.968 115.181,68.094 114.663,68.444 C114.145,68.794 113.781,69.354 113.781,70.11 C113.781,70.796 114.075,71.342 114.551,71.692 C115.013,72.028 115.587,72.154 116.147,72.154 C117.057,72.154 117.771,71.832 118.191,71.496 L118.219,71.496 Z M117.925,70.39 C117.589,70.628 117.085,70.81 116.567,70.81 C115.965,70.81 115.475,70.544 115.475,69.984 C115.475,69.312 116.161,69.088 116.861,69.088 C117.197,69.088 117.617,69.144 117.925,69.228 L117.925,70.39 Z M121.719,72 L123.413,72 L123.413,67.324 C123.847,66.848 124.547,66.456 125.219,66.456 C125.611,66.456 125.919,66.582 126.129,66.834 C126.325,67.058 126.409,67.394 126.409,68.01 L126.409,72 L128.103,72 L128.103,67.716 C128.103,66.694 127.921,66.12 127.515,65.686 C127.081,65.21 126.437,64.958 125.695,64.958 C124.785,64.958 124.001,65.35 123.427,65.868 L123.399,65.854 L123.399,65.112 L121.719,65.112 L121.719,72 Z M134.823,71.608 L134.823,72 L136.503,72 L136.503,61.304 L134.809,61.304 L134.809,65.252 L134.781,65.266 C134.375,65.084 133.899,64.958 133.297,64.958 C131.183,64.958 129.657,66.54 129.657,68.682 C129.657,70.796 131.155,72.154 132.961,72.154 C133.703,72.154 134.333,71.916 134.795,71.594 L134.823,71.608 Z M134.809,70.25 C134.403,70.516 133.885,70.726 133.311,70.726 C132.079,70.726 131.365,69.788 131.365,68.598 C131.365,67.366 132.121,66.4 133.409,66.4 C133.927,66.4 134.417,66.554 134.809,66.75 L134.809,70.25 Z M142.453,71.496 C142.775,71.93 143.307,72.126 143.867,72.126 C144.203,72.126 144.497,72.056 144.707,71.958 L144.707,70.628 C144.595,70.684 144.455,70.726 144.329,70.726 C143.993,70.726 143.853,70.46 143.853,70.082 L143.853,67.436 C143.853,66.582 143.587,65.994 143.125,65.602 C142.607,65.168 141.809,64.958 140.913,64.958 C139.933,64.958 139.135,65.21 138.589,65.518 L138.589,67.058 C139.121,66.722 139.835,66.442 140.661,66.442 C141.179,66.442 141.571,66.554 141.823,66.778 C142.047,66.988 142.159,67.296 142.159,67.716 L142.159,68.122 C141.739,68.024 141.305,67.968 140.829,67.968 C140.115,67.968 139.415,68.094 138.897,68.444 C138.379,68.794 138.015,69.354 138.015,70.11 C138.015,70.796 138.309,71.342 138.785,71.692 C139.247,72.028 139.821,72.154 140.381,72.154 C141.291,72.154 142.005,71.832 142.425,71.496 L142.453,71.496 Z M142.159,70.39 C141.823,70.628 141.319,70.81 140.801,70.81 C140.199,70.81 139.709,70.544 139.709,69.984 C139.709,69.312 140.395,69.088 141.095,69.088 C141.431,69.088 141.851,69.144 142.159,69.228 L142.159,70.39 Z M145.953,72 L147.647,72 L147.647,67.674 C148.123,67.002 148.767,66.652 149.565,66.652 C149.789,66.652 149.957,66.68 150.125,66.722 L150.125,65.098 C149.971,65.056 149.817,65.042 149.663,65.042 C148.851,65.042 148.137,65.42 147.661,66.092 L147.633,66.078 L147.633,65.112 L145.953,65.112 L145.953,72 Z M155.977,71.608 L155.977,72 L157.657,72 L157.657,61.304 L155.963,61.304 L155.963,65.252 L155.935,65.266 C155.529,65.084 155.053,64.958 154.451,64.958 C152.337,64.958 150.811,66.54 150.811,68.682 C150.811,70.796 152.309,72.154 154.115,72.154 C154.857,72.154 155.487,71.916 155.949,71.594 L155.977,71.608 Z M155.963,70.25 C155.557,70.516 155.039,70.726 154.465,70.726 C153.233,70.726 152.519,69.788 152.519,68.598 C152.519,67.366 153.275,66.4 154.563,66.4 C155.081,66.4 155.571,66.554 155.963,66.75 L155.963,70.25 Z" fill="#A3ADB0"></path>
</svg>
