<svg xmlns="http://www.w3.org/2000/svg" xmlns:xlink="http://www.w3.org/1999/xlink" style="display:none"><symbol id="crop" viewBox="0 0 45 34"> <path d="M0,13.3452439 L0,4.78390244 C0,2.65829268 2.10338555,0 4.72565682,0 L13.189822,0 L9.51459238,3.72109756 L4.72565682,3.72109756 C4.20423994,3.72109756 3.67776077,4.24865854 3.67776077,4.78390244 L3.67776077,9.62670732 L0,13.3452439"></path> <path d="M13.189822,33.3426829 L4.72565682,33.3426829 C2.62733357,33.3426829 0,31.2170732 0,28.5587805 L0,20 L3.67776077,23.7185366 L3.67776077,28.5587805 C3.67776077,29.0914634 4.20423994,29.6241463 4.72565682,29.6241463 L9.51459238,29.6241463 L13.189822,33.3426829"></path> <path d="M44.1872909,20 L44.1872909,28.5587805 C44.1872909,30.6843902 42.0864365,33.3426829 39.4591029,33.3426829 L31,33.3426829 L34.6726985,29.6241463 L39.4591029,29.6241463 C39.9855821,29.6241463 40.5095301,29.0914634 40.5095301,28.5587805 L40.5095301,23.7185366 L44.1872909,20"></path> <path d="M31,0 L39.4591029,0 C41.5599573,0 44.1872909,2.12560976 44.1872909,4.78390244 L44.1872909,13.3452439 L40.5095301,9.62670732 L40.5095301,4.78390244 C40.5095301,4.24865854 39.9855821,3.72109756 39.4591029,3.72109756 L34.6726985,3.72109756 L31,0"></path></symbol><symbol id="downCaret" viewBox="0 0 11 7"> <path d="M5.5,4.08578644 L1.70710678,0.292893219 C1.31658249,-0.0976310729 0.683417511,-0.0976310729 0.292893219,0.292893219 C-0.0976310729,0.683417511 -0.0976310729,1.31658249 0.292893219,1.70710678 L4.79289322,6.20710678 C4.98815536,6.40236893 5.24407768,6.5 5.5,6.5 C5.75592232,6.5 6.01184464,6.40236893 6.20710678,6.20710678 L10.7071068,1.70710678 C11.0976311,1.31658249 11.0976311,0.683417511 10.7071068,0.292893219 C10.3165825,-0.0976310729 9.68341751,-0.0976310729 9.29289322,0.292893219 L5.5,4.08578644 Z"></path></symbol><symbol id="iconAccount" viewBox="0 0 25 25"><g> <path d="M17,13.6c-1.1,0.9-2.5,1.4-4,1.4s-2.9-0.5-4-1.4c-3,0.7-5.2,3.3-5.2,6.3v1.4c0,0.9,0.8,1.7,1.8,1.7 c1.5,0,2.6,0,3.6,0c1.2,0,2.3,0,3.8,0c1.4,0,2.4,0,3.5,0c1.1,0,2.2,0,3.8,0h0c0.5,0,0.9-0.2,1.3-0.5c0.3-0.3,0.5-0.7,0.5-1.2v-1.5 C22.1,16.9,19.9,14.3,17,13.6z"/> <ellipse cx="13" cy="7.6" rx="5.1" ry="5.8"/></g></symbol><symbol id="iconAlbum" viewBox="0 0 20 20"> <path d="M17.5,16H4c-0.3,0-0.5,0.2-0.5,0.5S3.7,17,4,17h13.5V16z"/> <path d="M17.4,1H3.6C2.4,1,1.5,2,1.5,3.1l0,14.3C1.5,18.3,2.2,19,3,19h13.5h1c0.6,0,1-0.4,1-1h-1h-1H3c-0.3,0-0.5-0.2-0.5-0.5V16 v-0.5C2.5,15.2,2.7,15,3,15h13.1c0.5,0,0.8,0,0.8,0l0,0h0c0.4,0,0.7-0.2,1-0.4c0,0,0,0,0,0c0.1-0.1,0.2-0.3,0.3-0.4c0,0,0,0,0,0 c0.1-0.2,0.1-0.3,0.2-0.5V13l0-10.9C18.5,1.5,18,1,17.4,1z M10,12C8,12,6.5,10.2,6.5,8C6.5,5.8,8,4,10,4s3.5,1.8,3.5,4 C13.5,10.2,11.9,12,10,12z"/></symbol><symbol id="iconAlbumNoPhotos" viewBox="0 0 18 17"> <g stroke="none" stroke-width="1" fill-rule="evenodd"> <path d="M16.785,4.978 L1.199,4.969 C0.537,4.969 0,5.528 0,6.217 L1,15.752 C1,16.441 1.537,17 2.199,17 L15.813,17 C16.475,17 17.012,16.441 17.012,15.752 L17.984,6.227 C17.984,5.537 17.447,4.978 16.785,4.978 Z M16,3 L16,2.5 C16,1.671 15.329,1 14.5,1 L9.908,1 C9.702,0.419 9.153,0 8.5,0 L3.469,0 C2.641,0 1.969,0.671 1.969,1.5 L2,4 L16,3 Z"></path> </g></symbol><symbol id="iconAlbumPhotos" viewBox="0 0 18 17"> <g stroke="none" stroke-width="1" fill-rule="evenodd"> <path d="M16.785,4.978 L1.199,4.969 C0.537,4.969 0,5.528 0,6.217 L1,15.752 C1,16.441 1.537,17 2.199,17 L15.813,17 C16.475,17 17.012,16.441 17.012,15.752 L17.984,6.227 C17.984,5.537 17.447,4.978 16.785,4.978 Z M16,3 L16,2.5 C16,1.671 15.329,1 14.5,1 L9.908,1 C9.702,0.419 9.153,0 8.5,0 L3.469,0 C2.641,0 1.969,0.671 1.969,1.5 L2,4 L16,3 Z"></path> <path d="M5.60730399,8 C6.30935807,8 6.87863076,8.55441772 6.87863076,9.23815194 C6.87863076,9.92260062 6.30935807,10.4763039 5.60730399,10.4763039 C4.90524992,10.4763039 4.33597723,9.92260062 4.33597723,9.23815194 C4.33597723,8.55441772 4.90524992,8 5.60730399,8 L5.60730399,8 Z M14.2696389,15.1152655 L4.70864543,15.1152655 C4.08361923,15.1152655 3.76597094,14.3829483 4.20099504,13.9464158 L5.42903948,12.7154084 C5.70340544,12.4396285 6.15383512,12.4396285 6.42893468,12.7154084 L7.29824929,13.587759 C7.59388962,13.8835437 8.08906882,13.8571088 8.34876281,13.531317 L11.1107624,10.0690641 C11.4056691,9.69897595 11.9866794,9.7239819 12.2478406,10.1169326 L14.8631204,14.0514408 C15.1682975,14.5101215 14.8301084,15.1152655 14.2696389,15.1152655 L14.2696389,15.1152655 Z" fill="#FFFFFF"></path> </g></symbol><symbol id="iconArrowLeft" viewBox="0 0 6.5 12.8"><g transform="translate(-354.000000, -770.000000)"><g transform="translate(332.000000, 755.000000)"><g transform="translate(26.000000, 22.000000) rotate(-180.000000) translate(-26.000000, -22.000000) translate(0.000000, 1.000000)"><path d="M29.7,22.3l-5.5,5.5c-0.4,0.4-0.7,0.3-0.7-0.3V15.7c0-0.5,0.3-0.7,0.7-0.3l5.5,5.5C30.1,21.3,30.1,21.9,29.7,22.3z"/></g></g></g></symbol><symbol id="iconArrowRight" viewBox="0 0 6.5 12.8"><path d="M6.2,7.1l-5.5,5.5C0.3,13,0,12.9,0,12.3V0.5C0,0,0.3-0.2,0.7,0.2l5.5,5.5C6.6,6.1,6.6,6.7,6.2,7.1z"/></symbol><symbol id="iconBack" viewBox="0 0 612 792"> <path d="M220.3,457.2l79.6,79.6c6.1,6.1,6.1,15.3,0,18.4l-36.7,36.7c-6.1,6.1-15.3,6.1-18.4,0L73.4,420.5 c-6.1-6.1-6.1-15.3,0-18.4l171.4-171.4c6.1-6.1,15.3-6.1,18.4,0l36.7,36.7c6.1,6.1,6.1,15.3,0,18.4l-79.6,79.6h318.2 c6.1,0,12.2,6.1,12.2,15.3V445c0,9.2-6.1,15.3-15.3,15.3L220.3,457.2z"/></symbol><symbol id="iconBrands" viewBox="0 0 25 25"><path d="M13.8,3.5l2,5.3c0.1,0.2,0.3,0.4,0.6,0.4l5.6,0.1c1.1,0.2,1.6,1.5,0.8,2.3l-4.3,3.1 c-0.2,0.2-0.3,0.4-0.2,0.7l1.5,5.7c0.2,1.1-1,2-2,1.4L13,18.9c-0.2-0.1-0.5-0.1-0.7,0l-4.6,3.7c-1,0.5-2.2-0.3-2-1.4l1.4-5.8 c0-0.2,0-0.5-0.2-0.7l-4.3-3c-0.8-0.8-0.4-2.2,0.8-2.3L8.8,9C9,9,9.2,8.8,9.3,8.6l2-5.1C11.9,2.5,13.3,2.5,13.8,3.5z"/></symbol><symbol id="iconButtonAlpha" viewBox="0 0 14 14"> <path d="M6.9,4.5C6.8,4.9,6.7,5.3,6.5,5.7L5.8,7.6H8L7.4,5.8C7.1,5.2,7,4.8,6.9,4.5z"/> <path d="M7,1C3.7,1,1,3.7,1,7s2.7,6,6,6s6-2.7,6-6S10.3,1,7,1z M9,10.2l-0.8-2H5.6l-0.7,2H4l2.5-6.4h0.9l2.6,6.4H9z"/></symbol><symbol id="iconButtonCards" viewBox="0 0 14 14"> <path d="M2,4 L1.99539757,4 C1.4556644,4 1,4.4463856 1,4.99703014 L1,11.0029699 C1,11.5469637 1.44565467,12 1.99539757,12 L10.0046024,12 C10.5443356,12 11,11.5536144 11,11.0029699 L11,11 L2.99539757,11 C2.44565467,11 2,10.5469637 2,10.0029699 L2,4 L2,4 Z M3,2.99703014 C3,2.4463856 3.4556644,2 3.99539757,2 L12.0046024,2 C12.5543453,2 13,2.45303631 13,2.99703014 L13,9.00296986 C13,9.5536144 12.5443356,10 12.0046024,10 L3.99539757,10 C3.44565467,10 3,9.54696369 3,9.00296986 L3,2.99703014 Z"></path></symbol><symbol id="iconButtonDownload" viewBox="0 0 14 14"> <path d="M8.00921631,6.40032959 L8.00128149,1.75089269 C8.00057374,1.33618611 7.66974068,1 7.25527382,1 L6.74472618,1 C6.33342527,1 6.00156157,1.33734137 6.00347105,1.74984034 L6.02496338,6.39276123 L4.77706833,6.39468804 C4.11957057,6.39468804 3.760583,7.15610973 4.18082331,7.65858638 L6.40375499,10.3143142 C6.71389544,10.6850064 7.28610456,10.6850064 7.59624501,10.3143142 L9.81917669,7.65858638 C10.239417,7.15610973 9.88042943,6.39468804 9.22293167,6.39468804 L8.00921631,6.40032959 Z M2,12 C2,11.4477153 2.4556644,11 2.99539757,11 L11.0046024,11 C11.5543453,11 12,11.4438648 12,12 C12,12.5522847 11.5443356,13 11.0046024,13 L2.99539757,13 C2.44565467,13 2,12.5561352 2,12 Z"></path></symbol><symbol id="iconButtonFolder" viewBox="0 0 14 14"> <path d="M1.80004448,4.5 C1.35831851,4.5 1,4.87170643 1,5.3298562 L1.66725979,11.6701438 C1.66725979,12.1282936 2.02557829,12.5 2.46730427,12.5 L11.551379,12.5 C11.993105,12.5 12.3514235,12.1282936 12.3514235,11.6701438 L13,5.33650569 C13,4.87769097 12.6416815,4.50598454 12.1999555,4.50598454 L1.80004448,4.5 Z M12,3.11764706 C12,2.58123529 11.5908346,2 11,2 L7.5,2 C7.35318224,1.62405882 6.96539805,1.5 6.5,1.5 L3,1.5 C2.40987813,1.5 2,1.93417647 2,2.47058824 L2,4 L12,3.44117647 L12,3.11764706 Z"></path></symbol><symbol id="iconButtonFolderPhoto" viewBox="0 0 14 14"> <path d="M12.1999555,4.50598454 L1.80004448,4.5 C1.35831851,4.5 1,4.87170643 1,5.3298562 L1.66725979,11.6701438 C1.66725979,12.1282936 2.02557829,12.5 2.46730427,12.5 L11.551379,12.5 C11.993105,12.5 12.3514235,12.1282936 12.3514235,11.6701438 L13,5.33650569 C13,4.87769097 12.6416815,4.50598454 12.1999555,4.50598454 Z M4.5,6 C5.05222158,6 5.5,6.44777842 5.5,7 C5.5,7.55279862 5.05222158,8 4.5,8 C3.94777842,8 3.5,7.55279862 3.5,7 C3.5,6.44777842 3.94777842,6 4.5,6 Z M10.4837373,10.5 L3.51640727,10.5 C3.06093538,10.5 2.8294573,9.94825082 3.14647001,9.61935448 L4.04137605,8.69187757 C4.24131324,8.48409691 4.56955237,8.48409691 4.77002415,8.69187757 L5.40351499,9.34913196 C5.61895533,9.5719848 5.97980454,9.552068 6.1690499,9.3066069 L8.1817866,6.69804445 C8.39669235,6.41920926 8.82008876,6.43804947 9.0104033,6.73411001 L10.9162217,9.69848339 C11.1386117,10.0440668 10.8921651,10.5 10.4837373,10.5 Z M12,3 C12,2.46358824 11.5908346,2 11,2 L7.5,2 C7.35318224,1.62405882 6.96539805,1.5 6.5,1.5 L3,1.5 C2.40987813,1.5 2,1.93417647 2,2.47058824 L2.02209393,4.08823529 L12,3.44117647 L12,3 Z"></path></symbol><symbol id="iconButtonList" viewBox="0 0 14 14"> <path d="M3.25075,4 L1.74925,4 C1.33525,4 1,3.70190063 1,3.33377793 L1,2.66622207 C1,2.29809937 1.33525,2 1.74925,2 L3.25075,2 C3.66475,2 4,2.29809937 4,2.66622207 L4,3.33377793 C4,3.70190063 3.66475,4 3.25075,4 Z M12.3333333,4 L5.66666667,4 C5.29866667,4 5,3.70133333 5,3.33333333 L5,2.66666667 C5,2.29866667 5.29866667,2 5.66666667,2 L12.3333333,2 C12.7013333,2 13,2.29866667 13,2.66666667 L13,3.33333333 C13,3.70133333 12.7013333,4 12.3333333,4 Z M3.25075,8 L1.74925,8 C1.33525,8 1,7.70190063 1,7.33377793 L1,6.66622207 C1,6.29809937 1.33525,6 1.74925,6 L3.25075,6 C3.66475,6 4,6.29809937 4,6.66622207 L4,7.33377793 C4,7.70190063 3.66475,8 3.25075,8 Z M12.3333333,8 L5.66666667,8 C5.29866667,8 5,7.70133333 5,7.33333333 L5,6.66666667 C5,6.298 5.29866667,6 5.66666667,6 L12.3333333,6 C12.7013333,6 13,6.298 13,6.66666667 L13,7.33333333 C13,7.70133333 12.7013333,8 12.3333333,8 Z M3.25075,12 L1.74925,12 C1.33525,12 1,11.7019006 1,11.3337779 L1,10.6662221 C1,10.2980994 1.33525,10 1.74925,10 L3.25075,10 C3.66475,10 4,10.2980994 4,10.6662221 L4,11.3337779 C4,11.7019006 3.66475,12 3.25075,12 Z M12.3333333,12 L5.66666667,12 C5.29866667,12 5,11.7013333 5,11.3333333 L5,10.6666667 C5,10.2986667 5.29866667,10 5.66666667,10 L12.3333333,10 C12.7013333,10 13,10.2986667 13,10.6666667 L13,11.3333333 C13,11.7013333 12.7013333,12 12.3333333,12 Z"></path></symbol><symbol id="iconButtonLock" viewBox="0 0 14 14"> <path d="M10,7 L10,4 C10,2.5 9,1 6.98959858,1 C4.97919716,1 4,2.5 4,4 C4,4.03652754 4,7 4,7 L3.99713135,7 C3.44643091,7 3,7.45097518 3,7.99077797 L3,12.009222 C3,12.5564136 3.45303631,13 3.99703014,13 L10.0029699,13 C10.5536144,13 11,12.5490248 11,12.009222 L11,7.99077797 C11,7.44358641 10.546814,7 10.0028687,7 L10,7 Z M6.00333222,4.2392 C6.00266578,4.2112 6.00133289,4.184 6,4.1544 C6.01932689,3.5136 6.45918027,3 6.997001,3 C7.54615128,3 7.99333555,3.5368 7.99466844,4.196 L8,5.6624 L8,7 L6.00466511,7 L6.00466511,4.28 L6.00333222,4.2392 L6.00333222,4.2392 Z"></path></symbol><symbol id="iconButtonPhone" viewBox="0 0 14 14"> <path d="M10,1H4C3.4,1,3,1.4,3,2v10c0,0.5,0.4,1,1,1h6c0.5,0,1-0.4,1-1V2C11,1.4,10.6,1,10,1z M7,12.5 c-0.6,0-1-0.4-1-1s0.4-1,1-1s1,0.4,1,1S7.6,12.5,7,12.5z M9.5,9c0,0.3-0.2,0.5-0.5,0.5H5C4.7,9.5,4.5,9.3,4.5,9V3 c0-0.3,0.2-0.5,0.5-0.5h4c0.3,0,0.5,0.2,0.5,0.5V9z"/></symbol><symbol id="iconButtonPhoto" viewBox="0 0 14 14"> <path d="M2.23663158,2.5 C1.55389474,2.5 1,3.06378571 1,3.75871429 L1,10.2412857 C1,10.9362143 1.55389474,11.5 2.23663158,11.5 L11.7633684,11.5 C12.4467368,11.5 13,10.9362143 13,10.2412857 L13,3.75871429 C13,3.06378571 12.4467368,2.5 11.7633684,2.5 L2.23663158,2.5 Z M4.25,4 C4.940625,4 5.5,4.559375 5.5,5.25 C5.5,5.940625 4.940625,6.5 4.25,6.5 C3.559375,6.5 3,5.940625 3,5.25 C3,4.559375 3.559375,4 4.25,4 L4.25,4 Z M10.9192044,10 L3.08095818,10 C2.5685523,10 2.30813946,9.31095005 2.66477876,8.89980794 L3.67094664,7.73972775 C3.89647739,7.47998822 4.26574642,7.47998822 4.49127717,7.73972775 L5.20395436,8.56201197 C5.44572333,8.84059271 5.85228011,8.8150225 6.06518114,8.50885284 L8.32950993,5.24730489 C8.5712789,4.89941541 9.04759985,4.92229403 9.26170372,5.29238921 L11.4057494,8.99872429 C11.6559382,9.43005341 11.3786857,10 10.9192044,10 L10.9192044,10 Z"></path></symbol><symbol id="iconButtonPhotos" viewBox="0 0 14 14"> <path d="M2.23663158,4 C1.55389474,4 1,4.56378571 1,5.25871429 L1,11.7412857 C1,12.4362143 1.55389474,13 2.23663158,13 L11.7633684,13 C12.4461053,13 13,12.4362143 13,11.7412857 L13,5.25871429 C13,4.56378571 12.4461053,4 11.7633684,4 L2.23663158,4 Z M4.25,5.5 C4.940625,5.5 5.5,6.059375 5.5,6.75 C5.5,7.440625 4.940625,8 4.25,8 C3.559375,8 3,7.440625 3,6.75 C3,6.059375 3.559375,5.5 4.25,5.5 L4.25,5.5 L4.25,5.5 Z M10.832056,11.3153487 L2.99380979,11.3153487 C2.48140391,11.3153487 2.22099106,10.6517456 2.57763036,10.255787 L3.58379824,9.13854891 C3.809329,8.88840162 4.17859802,8.88840162 4.40412878,9.13854891 L5.11680597,9.93046595 C5.35857494,10.1987586 5.76513171,10.1741327 5.97803274,9.87927001 L8.24236153,6.73817186 C8.48352909,6.40313003 8.96045146,6.42516373 9.17455532,6.78159121 L11.318601,10.3510504 C11.5687898,10.7664504 11.2915373,11.3153487 10.832056,11.3153487 L10.832056,11.3153487 L10.832056,11.3153487 Z M2,2.25 C2,1.83578644 2.3327179,1.5 2.7516253,1.5 L11.2483747,1.5 C11.6634859,1.5 12,1.83289862 12,2.25 L12,3 L2,3 L2,2.25 Z"></path></symbol><symbol id="iconButtonShare" viewBox="0 0 14 14"> <path d="M12.9071724,6.68378138 L8.87234905,3.07659648 C8.78587348,2.99985316 8.66011481,2.97842483 8.55096577,3.02302566 C8.44181673,3.06787564 8.37168716,3.16903728 8.37168716,3.28116226 L8.37168716,5.40979254 C1.84146371,5.58769749 1.01019097,11.6262501 1.00201798,11.6875451 C0.985671986,11.8198525 1.07003839,11.9454325 1.20397006,11.9862958 C1.23481653,11.9960133 1.26566299,12 1.29650946,12 C1.40064924,12 1.50057071,11.9474258 1.55409064,11.857975 C3.41305166,8.77154834 6.62925724,8.43766509 7.92691801,8.43766509 C8.08958699,8.43766509 8.22747333,8.44239925 8.33477686,8.44937592 L8.33477686,10.5984379 C8.33477686,10.7113103 8.40569737,10.812472 8.5148464,10.8563253 C8.62399544,10.9001786 8.75080869,10.8777536 8.83728426,10.7997645 L12.9092816,7.0886771 C12.9680744,7.03510628 13.00103,6.96210047 12.9999754,6.88510799 C12.9999754,6.80936134 12.9659652,6.73635553 12.9071724,6.68378138 L12.9071724,6.68378138 Z"></path></symbol><symbol id="iconButtonShield" viewBox="0 0 14 14"> <path d="M2.00026605,2.67963077 L2,2.86276923 L2,7.37981538 C2,8.94030769 2.84258976,10.3993846 4.43638008,11.5991385 C5.62803134,12.4962462 6.80797627,12.9300923 6.85772817,12.9481846 L7.00006651,13 L7.14240485,12.9483077 C7.19202373,12.9303385 8.37183563,12.4963692 9.56375294,11.5992615 C11.1575433,10.3995077 12,8.94030769 12,7.37993846 L12,2.67987692 C12,2.67987692 9.27272727,1 7.00006651,1 C4.72740575,1 2.00026605,2.67963077 2.00026605,2.67963077 Z"></path></symbol><symbol id="iconButtonTrash" viewBox="0 0 14 14"> <path d="M3.71132349,12.1163155 C3.76081577,12.6046175 4.15880195,13 4.60013653,13 L9.39986347,13 C9.84188071,13 10.2391842,12.6046175 10.2886765,12.1163155 L11,5 L3,5 L3.71132349,12.1163155 Z M4.5,3 L4.97368809,1.48414421 C5.05724308,1.21675875 5.34832976,1 5.6152306,1 L8.3847694,1 C8.65552856,1 8.94190579,1.21403503 9.02631191,1.48414421 L9.5,3 L11.0119338,3.30238676 C11.5576277,3.41152554 12,3.9425543 12,4.42862367 L12,4.42862367 L6,4.42862367 L2,4.42862367 L2,4.42862367 C2,3.91575898 2.43546677,3.41290665 2.9880662,3.30238676 L4.5,3 Z M5.5,3 L8.5,3 L8.29581232,2.19281006 C8.26887548,2.086324 8.16394553,2 8.0510712,2 L5.94559539,2 C5.83736544,2 5.72659079,2.09228516 5.70149699,2.19281006 L5.5,3 Z"></path></symbol><symbol id="iconCalendar" viewBox="0 0 20 20"><path d="M17.9,3l-3,0V2.5c0-0.8-0.7-1.5-1.5-1.5s-1.5,0.7-1.5,1.5v2.6c0,0.9,0.7,1.6,1.5,1.6c0.2,0,0.4,0,0.5-0.1	c-0.2,0.5-0.8,0.9-1.4,0.9c-0.8,0-1.5-0.7-1.5-1.5V3H8.8V2.5C8.8,1.7,8.1,1,7.3,1S5.7,1.7,5.7,2.5v2.6c0,0.9,0.7,1.6,1.5,1.6	c0.2,0,0.4,0,0.5-0.1C7.5,7.1,7,7.5,6.4,7.5C5.6,7.5,5,6.9,5,5.9V3H3.1C2.5,3,2,3.5,2,4.1v13.9C2,18.5,2.5,19,3.1,19l14.9,0	c0.6,0,1.1-0.5,1.1-1.1V4.1C19,3.5,18.5,3,17.9,3z M17,16.5c0,0.3-0.2,0.5-0.5,0.5h-12C4.2,17,4,16.8,4,16.5v-7C4,9.2,4.2,9,4.5,9	h12C16.8,9,17,9.2,17,9.5V16.5z"/></symbol><symbol id="iconCardView" viewBox="0 0 20 20"> <path d="M8,9H3C2.5,9,2,8.6,2,8V3c0-0.6,0.4-1,1-1h5c0.6,0,1,0.4,1,1v5C9,8.6,8.6,9,8,9z"/> <path d="M17,9h-5c-0.6,0-1-0.4-1-1V3c0-0.6,0.4-1,1-1h5c0.6,0,1,0.4,1,1v5C18,8.6,17.6,9,17,9z"/> <path d="M8,18H3c-0.6,0-1-0.4-1-1v-5c0-0.6,0.4-1,1-1h5c0.6,0,1,0.4,1,1v5C9,17.6,8.6,18,8,18z"/> <path d="M17,18h-5c-0.6,0-1-0.4-1-1v-5c0-0.6,0.4-1,1-1h5c0.6,0,1,0.4,1,1v5C18,17.6,17.6,18,17,18z"/></symbol><symbol id="iconCheckSelected" viewBox="0 0 140 140"> <path d="M140,70 C140,31.3400675 108.659932,0 70,0 C31.3400675,0 0,31.3400675 0,70 C0,108.659932 31.3400675,140 70,140 C108.659932,140 140,108.659932 140,70 Z M13.5483871,70 C13.5483871,38.8226351 38.8226351,13.5483871 70,13.5483871 C101.177365,13.5483871 126.451613,38.8226351 126.451613,70 C126.451613,101.177365 101.177365,126.451613 70,126.451613 C38.8226351,126.451613 13.5483871,101.177365 13.5483871,70 Z M48.1593284,72.3949204 L40.6451613,80.0977542 L59.430579,99.3548387 L103.870968,52.8641241 L96.3568007,45.1612903 L58.9747683,83.4819159 L48.1593284,72.3949204 Z"></path></symbol><symbol id="iconCheckmark" viewBox="0 0 17 16"> <path d="M4.89625,15.5329319 L0.29325,10.9299319 C-0.09775,10.5399319 -0.09775,9.9069319 0.29325,9.5159319 L1.70725,8.1019319 C2.09725,7.7109319 2.73125,7.7109319 3.12125,8.1019319 L5.29425,10.2749319 L12.80225,0.394931896 C13.13625,-0.0450681041 13.76425,-0.130068104 14.20325,0.203931896 L15.79625,1.4139319 C16.23625,1.7479319 16.32225,2.3749319 15.98825,2.8149319 L6.39925,15.4309319 C6.03325,15.9139319 5.32525,15.9619319 4.89625,15.5329319"></path></symbol><symbol id="iconCurrencyDollar" viewBox="0 0 20 20"> <path d="M18.5,8.6c-0.3,0-0.2,0.3-0.2,0.4c0,5.4-4.4,9.8-9.8,9.8C8,18.8,8,19,8,19.1c0,0.4,0.8,0.4,2,0.4c4.9,0,8.9-4,8.9-8.9 C18.9,9.1,18.8,8.6,18.5,8.6z"/> <path d="M8.4,1c-4.4,0-8,3.6-8,8s3.6,8,8,8s8-3.6,8-8S12.9,1,8.4,1z M9.2,13.6v1.9H7.5v-1.8c-0.8-0.1-1.6-0.3-2.2-0.6v-2.1 c1,0.7,2.3,1,3.1,1c0.7,0,1.2-0.2,1.2-0.8c0-0.8-0.9-0.8-2.1-1.1C6.1,9.4,5,8.8,5,7.3c0-1.4,1-2.4,2.5-2.7V2.7h1.7v1.8 c0.7,0.1,1.5,0.3,2.2,0.6v2.1c-1-0.6-2.2-0.9-2.9-0.9c-0.7,0-1.1,0.2-1.1,0.8c0,0.7,0.9,0.7,2,1.1c1.5,0.4,2.5,1.1,2.5,2.6 C11.8,12.3,10.8,13.3,9.2,13.6z"/></symbol><symbol id="iconCurrencyPound" viewBox="0 0 20 20"> <path d="M19.1,8.6c-0.3,0-0.2,0.3-0.2,0.4c0,5.4-4.4,9.8-9.8,9.8c-0.5,0-0.5,0.1-0.5,0.2c0,0.4,0.8,0.4,2,0.4c4.9,0,8.9-4,8.9-8.9 C19.5,9.1,19.3,8.6,19.1,8.6z"/> <path d="M9,1C4.6,1,1,4.6,1,9s3.6,8,8,8s8-3.6,8-8S13.5,1,9,1z M12.3,13.8H5.5v-1.6c0.9-0.4,1.2-1.1,1.2-1.9c0-0.2,0-0.4-0.1-0.6 H5.5V8h0.6C6,7.6,5.8,7.1,5.8,6.6c0-1.9,1.5-3.1,3.6-3.1c1.1,0,2,0.4,2.5,0.7v2.2c-0.8-0.5-1.7-0.9-2.4-0.9c-0.9,0-1.5,0.5-1.5,1.3 c0,0.4,0.1,0.8,0.3,1.2h2.3v1.6H8.7c0,0.2,0,0.3,0,0.5c0,0.8-0.3,1.3-0.8,1.7v0h4.4V13.8z"/></symbol><symbol id="iconDashboard" viewBox="0 0 20 20"> <path d="M17.9,7.8l-2.3,3.2c0.1,0.3,0.3,0.5,0.4,0.8c0,0,0,0,0,0c0,0,0,0,0,0c0.3,0.9,0.4,1.8,0.3,2.6c0,0.2,0.1,0.3,0.3,0.3l3,0.7 c0.2,0,0.3-0.1,0.4-0.3C20.3,12.4,19.5,9.8,17.9,7.8z"/> <path d="M18.3,3.2c-0.4-0.3-0.9-0.3-1.3,0.1l-2,2.1c-0.8-0.5-1.8-0.9-2.7-1.1C9.7,3.8,7,4.3,4.8,5.7L4.6,5.8C4.5,5.9,4.4,6,4.3,6.1 L4.1,6.2C4,6.3,3.9,6.3,3.9,6.4L3.7,6.6C3.5,6.7,3.3,6.9,3.2,7C1,9.2,0,12.2,0.4,15.2c0,0.2,0.2,0.3,0.4,0.3l3-0.6 c0.2,0,0.3-0.2,0.3-0.3c-0.1-0.9,0.1-1.8,0.4-2.7c0.1-0.3,0.3-0.6,0.4-0.9l0.1-0.2c0.1-0.2,0.3-0.4,0.5-0.7C5.5,10,5.6,9.9,5.7,9.8 c0.1-0.2,0.3-0.3,0.4-0.4C6.2,9.2,6.4,9.1,6.5,9c0.1-0.1,0.2-0.2,0.4-0.2c0.2-0.1,0.4-0.3,0.7-0.4c0.1,0,0.1-0.1,0.2-0.1 C8.2,8.1,8.5,8,8.8,8c0.4-0.1,0.9-0.1,1.3-0.1c0.8,0,1.6,0.2,2.3,0.5l-3.6,4c-0.1,0.1-0.2,0.2-0.2,0.3c-0.6,0.9-0.3,2.2,0.6,2.8 s2.2,0.3,2.8-0.6l6.4-10.3C18.7,4,18.6,3.5,18.3,3.2z"/></symbol><symbol id="iconDashboardArrowLeft" viewBox="0 0 20 20"><g>	<defs> <rect id="SVGID_1_" x="-583.5" y="-1444.9" width="1280" height="2797"/>	</defs>	<clipPath id="SVGID_2_"> <use xlink:href="#SVGID_1_" overflow="visible"/>	</clipPath></g><g>	<defs> <rect id="SVGID_5_" x="-583.3" y="-1420.9" width="1280" height="2797"/>	</defs>	<clipPath id="SVGID_4_"> <use xlink:href="#SVGID_5_" overflow="visible"/>	</clipPath></g><g>	<defs> <rect id="SVGID_9_" x="-536.8" y="-1444.7" width="1280" height="2797"/>	</defs>	<clipPath id="SVGID_6_"> <use xlink:href="#SVGID_9_" overflow="visible"/>	</clipPath></g><g>	<defs> <rect id="SVGID_13_" x="-583.3" y="-1396.8" width="1280" height="2797"/>	</defs>	<clipPath id="SVGID_8_"> <use xlink:href="#SVGID_13_" overflow="visible"/>	</clipPath></g><g>	<defs> <rect id="SVGID_17_" x="-583.3" y="-1467.9" width="1280" height="2797"/>	</defs>	<clipPath id="SVGID_10_"> <use xlink:href="#SVGID_17_" overflow="visible"/>	</clipPath></g><g>	<defs> <rect id="SVGID_21_" x="-558.6" y="-1420.9" width="1280" height="2797"/>	</defs>	<clipPath id="SVGID_12_"> <use xlink:href="#SVGID_21_" overflow="visible"/>	</clipPath></g><g>	<defs> <rect id="SVGID_25_" x="-532.7" y="-1467.9" width="1280" height="2797"/>	</defs>	<clipPath id="SVGID_14_"> <use xlink:href="#SVGID_25_" overflow="visible"/>	</clipPath></g><g>	<defs> <rect id="SVGID_29_" x="-559.6" y="-1467.9" width="1280" height="2797"/>	</defs>	<clipPath id="SVGID_16_"> <use xlink:href="#SVGID_29_" overflow="visible"/>	</clipPath></g><g>	<defs> <rect id="SVGID_33_" x="-559.5" y="-1444.9" width="1280" height="2797"/>	</defs>	<clipPath id="SVGID_18_"> <use xlink:href="#SVGID_33_" overflow="visible"/>	</clipPath></g><g>	<defs> <rect id="SVGID_37_" x="-559.5" y="-1420.9" width="1280" height="2797"/>	</defs>	<clipPath id="SVGID_20_"> <use xlink:href="#SVGID_37_" overflow="visible"/>	</clipPath></g><g>	<defs> <rect id="SVGID_41_" x="-536.8" y="-1420.9" width="1280" height="2797"/>	</defs>	<clipPath id="SVGID_22_"> <use xlink:href="#SVGID_41_" overflow="visible"/>	</clipPath></g><path d="M17.6,1.7l-14,7.4c-0.7,0.4-0.7,1.3,0,1.7l14,7.4c0.6,0.3,1.4-0.1,1.4-0.8V2.6C19,1.9,18.2,1.4,17.6,1.7z"/></symbol><symbol id="iconDashboardArrowRight" viewBox="0 0 20 20"><g>	<defs> <rect id="SVGID_1_" x="-583.5" y="-1422.9" width="1280" height="2797"/>	</defs>	<clipPath id="SVGID_2_"> <use xlink:href="#SVGID_1_" overflow="visible"/>	</clipPath></g><g>	<defs> <rect id="SVGID_5_" x="-583.3" y="-1398.9" width="1280" height="2797"/>	</defs>	<clipPath id="SVGID_4_"> <use xlink:href="#SVGID_5_" overflow="visible"/>	</clipPath></g><g>	<defs> <rect id="SVGID_9_" x="-536.8" y="-1422.7" width="1280" height="2797"/>	</defs>	<clipPath id="SVGID_6_"> <use xlink:href="#SVGID_9_" overflow="visible"/>	</clipPath></g><g>	<defs> <rect id="SVGID_13_" x="-583.3" y="-1374.8" width="1280" height="2797"/>	</defs>	<clipPath id="SVGID_8_"> <use xlink:href="#SVGID_13_" overflow="visible"/>	</clipPath></g><g>	<defs> <rect id="SVGID_17_" x="-583.3" y="-1445.9" width="1280" height="2797"/>	</defs>	<clipPath id="SVGID_10_"> <use xlink:href="#SVGID_17_" overflow="visible"/>	</clipPath></g><g>	<defs> <rect id="SVGID_21_" x="-558.6" y="-1398.9" width="1280" height="2797"/>	</defs>	<clipPath id="SVGID_12_"> <use xlink:href="#SVGID_21_" overflow="visible"/>	</clipPath></g><g>	<defs> <rect id="SVGID_25_" x="-532.7" y="-1445.9" width="1280" height="2797"/>	</defs>	<clipPath id="SVGID_14_"> <use xlink:href="#SVGID_25_" overflow="visible"/>	</clipPath></g><g>	<defs> <rect id="SVGID_29_" x="-559.6" y="-1445.9" width="1280" height="2797"/>	</defs>	<clipPath id="SVGID_16_"> <use xlink:href="#SVGID_29_" overflow="visible"/>	</clipPath></g><g>	<defs> <rect id="SVGID_33_" x="-559.5" y="-1422.9" width="1280" height="2797"/>	</defs>	<clipPath id="SVGID_18_"> <use xlink:href="#SVGID_33_" overflow="visible"/>	</clipPath></g><g>	<defs> <rect id="SVGID_37_" x="-559.5" y="-1398.9" width="1280" height="2797"/>	</defs>	<clipPath id="SVGID_20_"> <use xlink:href="#SVGID_37_" overflow="visible"/>	</clipPath></g><g>	<defs> <rect id="SVGID_41_" x="-536.8" y="-1398.9" width="1280" height="2797"/>	</defs>	<clipPath id="SVGID_22_"> <use xlink:href="#SVGID_41_" overflow="visible"/>	</clipPath></g><path d="M2.4,18.4l14-7.4c0.7-0.4,0.7-1.3,0-1.7l-14-7.4C1.8,1.5,1,2,1,2.7v14.8C1,18.3,1.8,18.7,2.4,18.4z"/></symbol><symbol id="iconDashboardCheckmark" viewBox="0 0 20 20"><g>	<defs> <rect id="SVGID_1_" x="-561.5" y="-1444.9" width="1280" height="2797"/>	</defs>	<clipPath id="SVGID_2_"> <use xlink:href="#SVGID_1_" overflow="visible"/>	</clipPath></g><g>	<defs> <rect id="SVGID_5_" x="-561.3" y="-1420.9" width="1280" height="2797"/>	</defs>	<clipPath id="SVGID_4_"> <use xlink:href="#SVGID_5_" overflow="visible"/>	</clipPath></g><g>	<defs> <rect id="SVGID_9_" x="-514.8" y="-1444.7" width="1280" height="2797"/>	</defs>	<clipPath id="SVGID_6_"> <use xlink:href="#SVGID_9_" overflow="visible"/>	</clipPath></g><g>	<defs> <rect id="SVGID_13_" x="-561.3" y="-1396.8" width="1280" height="2797"/>	</defs>	<clipPath id="SVGID_8_"> <use xlink:href="#SVGID_13_" overflow="visible"/>	</clipPath></g><g>	<defs> <rect id="SVGID_17_" x="-561.3" y="-1467.9" width="1280" height="2797"/>	</defs>	<clipPath id="SVGID_10_"> <use xlink:href="#SVGID_17_" overflow="visible"/>	</clipPath></g><g>	<defs> <rect id="SVGID_21_" x="-536.6" y="-1420.9" width="1280" height="2797"/>	</defs>	<clipPath id="SVGID_12_"> <use xlink:href="#SVGID_21_" overflow="visible"/>	</clipPath></g><g>	<defs> <rect id="SVGID_25_" x="-510.7" y="-1467.9" width="1280" height="2797"/>	</defs>	<clipPath id="SVGID_14_"> <use xlink:href="#SVGID_25_" overflow="visible"/>	</clipPath></g><g>	<defs> <rect id="SVGID_29_" x="-537.6" y="-1467.9" width="1280" height="2797"/>	</defs>	<clipPath id="SVGID_16_"> <use xlink:href="#SVGID_29_" overflow="visible"/>	</clipPath></g><g>	<defs> <rect id="SVGID_33_" x="-537.5" y="-1444.9" width="1280" height="2797"/>	</defs>	<clipPath id="SVGID_18_"> <use xlink:href="#SVGID_33_" overflow="visible"/>	</clipPath></g><g>	<defs> <rect id="SVGID_37_" x="-537.5" y="-1420.9" width="1280" height="2797"/>	</defs>	<clipPath id="SVGID_20_"> <use xlink:href="#SVGID_37_" overflow="visible"/>	</clipPath></g><g>	<defs> <rect id="SVGID_41_" x="-514.8" y="-1420.9" width="1280" height="2797"/>	</defs>	<clipPath id="SVGID_22_"> <use xlink:href="#SVGID_41_" overflow="visible"/>	</clipPath></g><path d="M2.5,11"/><path d="M6.4,19.3L1.2,14c-0.6-0.6-0.6-1.5,0-2.1l1.7-1.7c0.6-0.6,1.5-0.6,2.1,0l2.2,2.2L15,2.1	c0.5-0.6,1.4-0.8,2-0.3L19,3.3c0.6,0.5,0.8,1.4,0.3,2L8.6,19.1C8.1,19.8,7.1,19.9,6.4,19.3z"/></symbol><symbol id="iconDashboardCircle" viewBox="0 0 20 20"><g>	<defs> <rect id="SVGID_1_" x="-539.5" y="-1444.9" width="1280" height="2797"/>	</defs>	<clipPath id="SVGID_2_"> <use xlink:href="#SVGID_1_" overflow="visible"/>	</clipPath></g><g>	<defs> <rect id="SVGID_5_" x="-539.3" y="-1420.9" width="1280" height="2797"/>	</defs>	<clipPath id="SVGID_4_"> <use xlink:href="#SVGID_5_" overflow="visible"/>	</clipPath></g><g>	<defs> <rect id="SVGID_9_" x="-492.8" y="-1444.7" width="1280" height="2797"/>	</defs>	<clipPath id="SVGID_6_"> <use xlink:href="#SVGID_9_" overflow="visible"/>	</clipPath></g><g>	<defs> <rect id="SVGID_13_" x="-539.3" y="-1396.8" width="1280" height="2797"/>	</defs>	<clipPath id="SVGID_8_"> <use xlink:href="#SVGID_13_" overflow="visible"/>	</clipPath></g><g>	<defs> <rect id="SVGID_17_" x="-539.3" y="-1467.9" width="1280" height="2797"/>	</defs>	<clipPath id="SVGID_10_"> <use xlink:href="#SVGID_17_" overflow="visible"/>	</clipPath></g><g>	<defs> <rect id="SVGID_21_" x="-514.6" y="-1420.9" width="1280" height="2797"/>	</defs>	<clipPath id="SVGID_12_"> <use xlink:href="#SVGID_21_" overflow="visible"/>	</clipPath></g><g>	<defs> <rect id="SVGID_25_" x="-488.7" y="-1467.9" width="1280" height="2797"/>	</defs>	<clipPath id="SVGID_14_"> <use xlink:href="#SVGID_25_" overflow="visible"/>	</clipPath></g><g>	<defs> <rect id="SVGID_29_" x="-515.6" y="-1467.9" width="1280" height="2797"/>	</defs>	<clipPath id="SVGID_16_"> <use xlink:href="#SVGID_29_" overflow="visible"/>	</clipPath></g><g>	<defs> <rect id="SVGID_33_" x="-515.5" y="-1444.9" width="1280" height="2797"/>	</defs>	<clipPath id="SVGID_18_"> <use xlink:href="#SVGID_33_" overflow="visible"/>	</clipPath></g><g>	<defs> <rect id="SVGID_37_" x="-515.5" y="-1420.9" width="1280" height="2797"/>	</defs>	<clipPath id="SVGID_20_"> <use xlink:href="#SVGID_37_" overflow="visible"/>	</clipPath></g><g>	<defs> <rect id="SVGID_41_" x="-492.8" y="-1420.9" width="1280" height="2797"/>	</defs>	<clipPath id="SVGID_22_"> <use xlink:href="#SVGID_41_" overflow="visible"/>	</clipPath></g><path d="M10,20C4.5,20,0,15.5,0,10S4.5,0,10,0s10,4.5,10,10S15.5,20,10,20z M10,4c-3.3,0-6,2.7-6,6s2.7,6,6,6	s6-2.7,6-6S13.3,4,10,4z"/></symbol><symbol id="iconDelete" viewBox="0 0 12 12"> <rect y="5" transform="matrix(0.7071 -0.7071 0.7071 0.7071 -2.4853 6)" width="12" height="2"/> <rect y="5" transform="matrix(-0.7071 -0.7071 0.7071 -0.7071 6 14.4853)" width="12" height="2"/></symbol><symbol id="iconDismiss" viewBox="0 0 14 14"> <path d="M8.99612527,6.89512527 L13.6291253,2.26212527 C13.8051253,2.08612527 13.8051253,1.80112527 13.6291253,1.62512527 L12.1441253,0.140125267 C11.9691253,-0.0348747329 11.6841253,-0.0348747329 11.5081253,0.140125267 L6.87812527,4.77012527 L2.25612527,0.132125267 C2.08112527,-0.0438747329 1.79612527,-0.0438747329 1.62012527,0.131125267 L0.132125267,1.61312527 C-0.0438747329,1.78812527 -0.0438747329,2.07312527 0.131125267,2.24912527 L4.75712527,6.89112527 L0.144125267,11.5041253 C-0.0308747329,11.6801253 -0.0308747329,11.9651253 0.144125267,12.1401253 L1.62912527,13.6251253 C1.80512527,13.8011253 2.09012527,13.8011253 2.26612527,13.6251253 L6.87512527,9.01612527 L11.4751253,13.6321253 C11.6511253,13.8081253 11.9361253,13.8091253 12.1121253,13.6331253 L13.5991253,12.1521253 C13.7751253,11.9761253 13.7761253,11.6911253 13.6001253,11.5151253 L8.99612527,6.89512527" fill="#889EA6"></path></symbol><symbol id="iconDrag" viewBox="0 0 18 18"> <rect x="6" y="6" width="2" height="2"/> <rect x="10" y="6" width="2" height="2"/> <rect x="6" y="10" width="2" height="2"/> <rect x="10" y="10" width="2" height="2"/> <polygon points="8.938,0 6,3 8,3 9,2 10,3 12,3 "/> <polygon points="9.062,18 12,15 10,15 9,16 8,15 6,15 "/> <polygon points="0,9.062 3,12 3,10 2,9 3,8 3,6 "/> <polygon points="18,8.938 15,6 15,8 16,9 15,10 15,12 "/></symbol><symbol id="iconDragTile" viewBox="0 0 67 10"> <path d="M1.5,3 C2.32842712,3 3,2.32842712 3,1.5 C3,0.671572875 2.32842712,0 1.5,0 C0.671572875,0 0,0.671572875 0,1.5 C0,2.32842712 0.671572875,3 1.5,3 Z M9.5,3 C10.3284271,3 11,2.32842712 11,1.5 C11,0.671572875 10.3284271,0 9.5,0 C8.67157288,0 8,0.671572875 8,1.5 C8,2.32842712 8.67157288,3 9.5,3 Z M17.5,3 C18.3284271,3 19,2.32842712 19,1.5 C19,0.671572875 18.3284271,0 17.5,0 C16.6715729,0 16,0.671572875 16,1.5 C16,2.32842712 16.6715729,3 17.5,3 Z M25.5,3 C26.3284271,3 27,2.32842712 27,1.5 C27,0.671572875 26.3284271,0 25.5,0 C24.6715729,0 24,0.671572875 24,1.5 C24,2.32842712 24.6715729,3 25.5,3 Z M33.5,3 C34.3284271,3 35,2.32842712 35,1.5 C35,0.671572875 34.3284271,0 33.5,0 C32.6715729,0 32,0.671572875 32,1.5 C32,2.32842712 32.6715729,3 33.5,3 Z M41.5,3 C42.3284271,3 43,2.32842712 43,1.5 C43,0.671572875 42.3284271,0 41.5,0 C40.6715729,0 40,0.671572875 40,1.5 C40,2.32842712 40.6715729,3 41.5,3 Z M49.5,3 C50.3284271,3 51,2.32842712 51,1.5 C51,0.671572875 50.3284271,0 49.5,0 C48.6715729,0 48,0.671572875 48,1.5 C48,2.32842712 48.6715729,3 49.5,3 Z M57.5,3 C58.3284271,3 59,2.32842712 59,1.5 C59,0.671572875 58.3284271,0 57.5,0 C56.6715729,0 56,0.671572875 56,1.5 C56,2.32842712 56.6715729,3 57.5,3 Z M65.5,3 C66.3284271,3 67,2.32842712 67,1.5 C67,0.671572875 66.3284271,0 65.5,0 C64.6715729,0 64,0.671572875 64,1.5 C64,2.32842712 64.6715729,3 65.5,3 Z M1.5,10 C2.32842712,10 3,9.32842712 3,8.5 C3,7.67157288 2.32842712,7 1.5,7 C0.671572875,7 0,7.67157288 0,8.5 C0,9.32842712 0.671572875,10 1.5,10 Z M9.5,10 C10.3284271,10 11,9.32842712 11,8.5 C11,7.67157288 10.3284271,7 9.5,7 C8.67157288,7 8,7.67157288 8,8.5 C8,9.32842712 8.67157288,10 9.5,10 Z M17.5,10 C18.3284271,10 19,9.32842712 19,8.5 C19,7.67157288 18.3284271,7 17.5,7 C16.6715729,7 16,7.67157288 16,8.5 C16,9.32842712 16.6715729,10 17.5,10 Z M25.5,10 C26.3284271,10 27,9.32842712 27,8.5 C27,7.67157288 26.3284271,7 25.5,7 C24.6715729,7 24,7.67157288 24,8.5 C24,9.32842712 24.6715729,10 25.5,10 Z M33.5,10 C34.3284271,10 35,9.32842712 35,8.5 C35,7.67157288 34.3284271,7 33.5,7 C32.6715729,7 32,7.67157288 32,8.5 C32,9.32842712 32.6715729,10 33.5,10 Z M41.5,10 C42.3284271,10 43,9.32842712 43,8.5 C43,7.67157288 42.3284271,7 41.5,7 C40.6715729,7 40,7.67157288 40,8.5 C40,9.32842712 40.6715729,10 41.5,10 Z M49.5,10 C50.3284271,10 51,9.32842712 51,8.5 C51,7.67157288 50.3284271,7 49.5,7 C48.6715729,7 48,7.67157288 48,8.5 C48,9.32842712 48.6715729,10 49.5,10 Z M57.5,10 C58.3284271,10 59,9.32842712 59,8.5 C59,7.67157288 58.3284271,7 57.5,7 C56.6715729,7 56,7.67157288 56,8.5 C56,9.32842712 56.6715729,10 57.5,10 Z M65.5,10 C66.3284271,10 67,9.32842712 67,8.5 C67,7.67157288 66.3284271,7 65.5,7 C64.6715729,7 64,7.67157288 64,8.5 C64,9.32842712 64.6715729,10 65.5,10 Z" id="dot-grid" fill="#B2BEC3"></path></symbol><symbol id="iconDragY" viewBox="0 0 10 30"> <rect x="4" y="10" width="2" height="2"/> <rect x="8" y="10" width="2" height="2"/> <rect x="4" y="14" width="2" height="2"/> <rect x="8" y="14" width="2" height="2"/> <rect x="4" y="18" width="2" height="2"/> <rect y="10" width="2" height="2"/> <rect y="14" width="2" height="2"/> <rect y="18" width="2" height="2"/> <rect x="8" y="18" width="2" height="2"/> <polygon points="4.938,0 1,4 3,4 5,2 7,4 9,4 "/> <polygon points="5.062,30 9,26 7,26 5,28 3,26 1,26 "/></symbol><symbol id="iconDragY2" viewBox="0 0 18 14"> <path d="M0,1 C0,0.44771525 0.444946289,0 0.993397683,0 L17.0066023,0 C17.5552407,0 18,0.443864822 18,1 C18,1.55228475 17.5550537,2 17.0066023,2 L0.993397683,2 C0.444759292,2 0,1.55613518 0,1 Z M0,7 C0,6.44771525 0.444946289,6 0.993397683,6 L17.0066023,6 C17.5552407,6 18,6.44386482 18,7 C18,7.55228475 17.5550537,8 17.0066023,8 L0.993397683,8 C0.444759292,8 0,7.55613518 0,7 Z M0,13 C0,12.4477153 0.444946289,12 0.993397683,12 L17.0066023,12 C17.5552407,12 18,12.4438648 18,13 C18,13.5522847 17.5550537,14 17.0066023,14 L0.993397683,14 C0.444759292,14 0,13.5561352 0,13 Z"></path></symbol><symbol id="iconDropDownArrow" viewBox="0 0 32 32"> <polyline fill="none" stroke-width="6" stroke-linecap="round" stroke-linejoin="round" stroke-miterlimit="10" points="3.1,11.5 16,24.4 28.9,11.5 "/></symbol><symbol id="iconEditCircle" viewBox="0 0 30 30"> <path d="M14.993,3.77c6.087,0,11.125,4.954,11.23,11.043c0.107,6.195-4.846,11.323-11.041,11.431l-0.2,0.002 c-6.087,0-11.125-4.954-11.231-11.043C3.645,9.007,8.598,3.879,14.793,3.772L14.993,3.77 M14.993,0.015 c-0.088,0-0.177,0.001-0.265,0.002C6.45,0.161-0.145,6.989-0.002,15.267C0.14,23.458,6.824,30,14.983,30 c0.088,0,0.177-0.001,0.265-0.002c8.279-0.143,14.874-6.971,14.73-15.25C29.836,6.558,23.152,0.015,14.993,0.015L14.993,0.015z"/> <path d="M23.312,10.816l-1.058,1.058c-0.127,0.127-0.333,0.127-0.46,0l-3.335-3.335c-0.127-0.127-0.127-0.333,0-0.46l1.058-1.058 c0.127-0.127,0.333-0.127,0.46,0l3.335,3.335C23.439,10.483,23.439,10.689,23.312,10.816z"/> <path d="M8.358,18.301l-0.156,3.49c-0.009,0.191,0.149,0.348,0.339,0.339l3.49-0.156c0.081-0.004,0.158-0.037,0.215-0.095 l8.787-8.787c0.127-0.127,0.127-0.333,0-0.46l-3.335-3.335c-0.127-0.127-0.333-0.127-0.46,0l-8.787,8.787 C8.396,18.143,8.362,18.22,8.358,18.301z M18.229,11.345l-7.589,7.589l-0.759-0.759l7.589-7.589L18.229,11.345z"/></symbol><symbol id="iconEdit" viewBox="0 0 16 16"> <rect x="12.086" y="0.379" transform="matrix(-0.7071 0.7071 -0.7071 -0.7071 24.8137 -5.2782)" width="2.828" height="4.243"/> <polygon points="3,11 3,12 4,12 4,13 5,13 5,14 13,6 10,3 2,11 "/> <polygon points="3,14 3,13 2,13 2,12 1,12 0,16 4,15 4,14 "/></symbol><symbol id="iconEmail" viewBox="0 0 25 16.2"> <path d="M12.4,11.2L0.3,2.7C0.2,2.6,0,2.7,0,2.9v13.2c0,0.1,0.1,0.2,0.2,0.2h24.6c0.1,0,0.2-0.1,0.2-0.2V2.9c0-0.2-0.2-0.3-0.3-0.2l-12,8.5C12.6,11.2,12.5,11.2,12.4,11.2z"/> <path d="M12.4,8.7L0.5,0.4C0.4,0.3,0.4,0,0.6,0h23.7c0.2,0,0.3,0.2,0.1,0.4L12.6,8.7C12.6,8.8,12.5,8.8,12.4,8.7z"/></symbol><symbol id="iconFavorite" viewBox="0 0 14.619 13.967"> <path d="M5.236,4.797l1.542-4.414c0.178-0.511,0.901-0.51,1.078,0.002l1.529,4.419l4.675,0.102c0.541,0.012,0.763,0.7,0.332,1.026l-3.73,2.819l1.347,4.478c0.156,0.518-0.43,0.942-0.873,0.633l-3.834-2.677L3.459,13.85c-0.445,0.308-1.029-0.117-0.871-0.635l1.361-4.474L0.226,5.91C-0.204,5.583,0.02,4.895,0.561,4.885L5.236,4.797z"/></symbol><symbol id="iconFolderActive" viewBox="0 0 16 12"> <path d="M13,3V0H8L7.333,2H0v10h13l3-9H13z M12,11H1V3h7l0.667-2H12V11z"/> <polygon opacity="0.4" points="1,11 1,3 8,3 8.667,1 12,1 12,11 "/></symbol><symbol id="iconFolder" viewBox="0 0 16 12"> <path d="M13,3V0H8L7.333,2H0v10h13l3-9H13z M12,11H1V3h7l0.667-2H12V11z"/></symbol><symbol id="iconGallery" viewBox="0 0 25 20"> <path d="M3.1,5.5c0-0.2,0.1-0.3,0.3-0.3H21c0.1,0,0.1-0.1,0.1-0.1l-1.3-4.8c0-0.2-0.2-0.3-0.4-0.2L0.2,5C0.1,5.1,0,5.3,0,5.4 l2.9,11.1c0,0.1,0.2,0.1,0.2,0V5.5z"/> <path d="M24.8,6.4h-20c-0.1,0-0.2,0.1-0.2,0.2v13.2c0,0.1,0.1,0.2,0.2,0.2h20c0.1,0,0.2-0.1,0.2-0.2V6.6C25,6.5,24.9,6.4,24.8,6.4z M8.6,9.1c0.8,0,1.4,0.6,1.4,1.4s-0.6,1.4-1.4,1.4s-1.4-0.6-1.4-1.4S7.9,9.1,8.6,9.1z M21.8,17.3h-14c-0.2,0-0.3-0.2-0.2-0.4 l3.6-3.6c0.1-0.1,0.2-0.1,0.3,0l1,1c0.1,0.1,0.2,0.1,0.3,0l3.8-3.8c0.1-0.1,0.3-0.1,0.3,0l5,6.3C22.1,17.1,22,17.3,21.8,17.3z"/></symbol><symbol id="iconGridView" viewBox="0 0 32 32"> <circle cx="7.4" cy="7.5" r="7.5"/> <circle cx="24.4" cy="7.5" r="7.5"/> <circle cx="7.4" cy="24.5" r="7.5"/> <circle cx="24.4" cy="24.5" r="7.5"/></symbol><symbol id="iconHidden" viewBox="0 0 21 13"> <path d="M16.23804,3.32543939 L13.21005,5.60083333 C13.3518,5.92366667 13.43076,6.2770303 13.43076,6.64812121 C13.43076,8.16616667 12.11889,9.39663636 10.50042,9.39663636 C9.87483,9.39663636 9.29565,9.21227273 8.81979,8.89948485 L6.42348,10.7001818 C14.85708,13.7861061 20.83725,6.64831818 20.83725,6.64831818 L20.83809,6.64831818 C19.2528,5.161 17.71371,4.08180303 16.23804,3.32543939 L16.23804,3.32543939 Z"></path> <path d="M18.24816,0.273590909 C18.07701,0.0730757576 17.76474,0.0407727273 17.55075,0.20130303 L14.43204,2.54484848 C6.07509,-0.407136364 0.16359,6.64812121 0.16359,6.64812121 L0.16212,6.64812121 C1.70268,8.09269697 3.19893,9.15219697 4.63575,9.90481818 L1.75539,12.0691212 C1.5414,12.2298485 1.50717,12.5227424 1.67832,12.7234545 C1.77639,12.8378939 1.92045,12.8975758 2.06598,12.8975758 C2.17476,12.8975758 2.28438,12.8642879 2.37594,12.7955455 L18.17109,0.927727273 C18.38487,0.767393939 18.41931,0.47430303 18.24816,0.273590909 L18.24816,0.273590909 Z M7.56987,6.64812121 C7.56987,5.12987879 8.88195,3.89940909 10.50063,3.89940909 C11.07561,3.89940909 11.61027,4.05619697 12.06303,4.3244697 L7.74144,7.57151515 C7.63161,7.28275758 7.56987,6.97213636 7.56987,6.64812121 L7.56987,6.64812121 Z"></path></symbol><symbol id="iconKbVideo" viewBox="1.6 4.8 30.4 22.6"><path d="M28.8,4.8h-24C3,4.8,1.6,6.2,1.6,8v16.2c0,1.8,1.4,3.2,3.2,3.2h24c1.8,0,3.2-1.4,3.2-3.2V8C32,6.2,30.6,4.8,28.8,4.8zM23,16.8l-11.7,6.1c-0.5,0.3-1.1-0.2-1.1-0.6V9.9c0-0.6,0.6-1,1.1-0.6L23,15.4C23.5,15.7,23.5,16.5,23,16.8z"/></symbol><symbol id="iconLink" viewBox="0 0 15 14"> <path d="M7,10.7L6,11.6c-0.7,0.7-1.9,0.7-2.6,0c-0.7-0.7-0.7-1.9,0-2.6L6,6.3c0.7-0.7,1.9-0.7,2.6,0 C8.9,6.6,9,6.8,9.1,7.1l1.4-1.4C10.3,5.5,10.2,5.2,10,5C8.5,3.6,6.2,3.6,4.7,5L2.1,7.7c-1.5,1.5-1.5,3.8,0,5.3 c1.5,1.5,3.8,1.5,5.3,0l2-2C8.5,11,7.7,11,7,10.7z"/> <path d="M13.9,1.1c-1.5-1.5-3.8-1.5-5.3,0l-2,2C7.5,3,8.3,3,9,3.3L10,2.4c0.7-0.7,1.9-0.7,2.6,0 c0.7,0.7,0.7,1.9,0,2.6L10,7.7c-0.7,0.7-1.9,0.7-2.6,0C7.1,7.4,7,7.2,6.9,6.9L5.5,8.3C5.7,8.5,5.8,8.8,6,9c1.5,1.5,3.8,1.5,5.3,0 l2.6-2.6C15.4,4.9,15.4,2.5,13.9,1.1z"/></symbol><symbol id="iconListView" viewBox="0 0 20 20"> <path d="M4,6H2C1.5,6,1,5.6,1,5V3c0-0.6,0.4-1,1-1h2c0.6,0,1,0.4,1,1v2C5,5.6,4.6,6,4,6z"/> <path d="M18,6H8C7.5,6,7,5.6,7,5V3c0-0.6,0.4-1,1-1h10c0.6,0,1,0.4,1,1v2C19,5.6,18.6,6,18,6z"/> <path d="M4,12H2c-0.6,0-1-0.4-1-1V9c0-0.6,0.4-1,1-1h2c0.6,0,1,0.4,1,1v2C5,11.6,4.6,12,4,12z"/> <path d="M18,12H8c-0.6,0-1-0.4-1-1V9c0-0.6,0.4-1,1-1h10c0.6,0,1,0.4,1,1v2C19,11.6,18.6,12,18,12z"/> <path d="M4,18H2c-0.6,0-1-0.4-1-1v-2c0-0.6,0.4-1,1-1h2c0.6,0,1,0.4,1,1v2C5,17.6,4.6,18,4,18z"/> <path d="M18,18H8c-0.6,0-1-0.4-1-1v-2c0-0.6,0.4-1,1-1h10c0.6,0,1,0.4,1,1v2C19,17.6,18.6,18,18,18z"/></symbol><symbol id="iconLocked" viewBox="0 0 20 20"> <path d="M14.1,9H13V5.5h0C13,3,11,1,8.5,1C6,1,4,3,4,5.5c0,0.1,0,0.1,0,0.2V9H2.9C2.4,9,2,9.4,2,9.9v7.3c0,0.5,0.4,0.9,0.9,0.9h11.2 c0.5,0,0.9-0.4,0.9-0.9V9.9C15,9.4,14.6,9,14.1,9z M7,5.5c0,0,0-0.1,0-0.1C7,4.6,7.7,4,8.5,4C9.3,4,10,4.7,10,5.5l0,1.8V9H7V5.6 L7,5.5L7,5.5z"/></symbol><symbol id="iconMinus" viewBox="0 0 12 12"> <rect y="5" width="12" height="2"/></symbol><symbol id="iconMore" viewBox="0 0 15 3"><path d="M1.5,3C2.3,3,3,2.3,3,1.5S2.3,0,1.5,0S0,0.7,0,1.5S0.7,3,1.5,3zM7.5,3C8.3,3,9,2.3,9,1.5S8.3,0,7.5,0S6,0.7,6,1.5S6.7,3,7.5,3z M13.5,3C14.3,3,15,2.3,15,1.5S14.3,0,13.5,0S12,0.7,12,1.5S12.7,3,13.5,3z"/></symbol><symbol id="iconMusicSort" viewBox="0 0 10 59"> <path d="M7,1.5C7,2.3,7.7,3,8.5,3S10,2.3,10,1.5S9.3,0,8.5,0S7,0.7,7,1.5 z M7,9.5C7,10.3,7.7,11,8.5,11S10,10.3,10,9.5S9.3,8,8.5,8S7,8.7,7,9.5z M7,17.5C7,18.3,7.7,19,8.5,19s1.5-0.7,1.5-1.5 S9.3,16,8.5,16S7,16.7,7,17.5z M7,25.5C7,26.3,7.7,27,8.5,27s1.5-0.7,1.5-1.5S9.3,24,8.5,24S7,24.7,7,25.5z M7,33.5 C7,34.3,7.7,35,8.5,35s1.5-0.7,1.5-1.5S9.3,32,8.5,32S7,32.7,7,33.5z M7,41.5C7,42.3,7.7,43,8.5,43s1.5-0.7,1.5-1.5S9.3,40,8.5,40 S7,40.7,7,41.5z M7,49.5C7,50.3,7.7,51,8.5,51s1.5-0.7,1.5-1.5S9.3,48,8.5,48S7,48.7,7,49.5z M7,57.5C7,58.3,7.7,59,8.5,59 s1.5-0.7,1.5-1.5S9.3,56,8.5,56S7,56.7,7,57.5z M0,1.5C0,2.3,0.7,3,1.5,3S3,2.3,3,1.5S2.3,0,1.5,0S0,0.7,0,1.5z M0,9.5 C0,10.3,0.7,11,1.5,11S3,10.3,3,9.5S2.3,8,1.5,8S0,8.7,0,9.5z M0,17.5C0,18.3,0.7,19,1.5,19S3,18.3,3,17.5S2.3,16,1.5,16 S0,16.7,0,17.5z M0,25.5C0,26.3,0.7,27,1.5,27S3,26.3,3,25.5S2.3,24,1.5,24S0,24.7,0,25.5z M0,33.5C0,34.3,0.7,35,1.5,35 S3,34.3,3,33.5S2.3,32,1.5,32S0,32.7,0,33.5z M0,41.5C0,42.3,0.7,43,1.5,43S3,42.3,3,41.5S2.3,40,1.5,40S0,40.7,0,41.5z M0,49.5 C0,50.3,0.7,51,1.5,51S3,50.3,3,49.5S2.3,48,1.5,48S0,48.7,0,49.5z M0,57.5C0,58.3,0.7,59,1.5,59S3,58.3,3,57.5S2.3,56,1.5,56 S0,56.7,0,57.5z"/></symbol><symbol id="iconNotifications" viewBox="0 0 21 22"> <g stroke="none" stroke-width="1" fill="none" fill-rule="evenodd"> <g fill="#FFFFFF"> <path d="M14.4137931,19.7241379 C14.4137931,19.2994334 14.2457327,18.894953 13.9816377,18.5511446 C13.5494822,18.005096 12.8052145,17.6612876 11.9649123,17.6612876 C10.6204287,17.6612876 9.51603146,18.5915926 9.51603146,19.7241379 C9.51603146,20.8566832 10.6204287,21.7869883 11.9649123,21.7869883 C13.2133613,21.7869883 14.2457327,20.9982514 14.3897845,19.9668262 C14.3897845,19.8859301 14.4137931,19.805034 14.4137931,19.7241379 Z M18.8453402,11.7782205 C18.7769888,11.7350218 18.7207775,11.7019155 18.6309969,11.6547795 C18.4738652,11.5798219 18.3790957,11.5327724 18.2433363,11.4689456 C15.8091465,10.2318459 14.8449796,7.88940995 14.4219201,6.72672989 C14.3755665,6.59933778 14.330302,6.48188541 14.2889749,6.37848096 C14.1942304,6.14142083 14.1201801,5.97819372 14.101143,5.93829977 C12.2176177,1.99120953 9.55696615,0.960376257 7.29098195,0.960376257 C7.26480787,0.960376257 6.48457705,-1.96762292e-16 5.23481674,0 C3.76906805,1.96762294e-16 2.59123428,1.15978102 2.5650602,2.60306406 C0.99461518,3.91748254 0,5.87622381 0,8.06692129 C0,8.81433572 0.104696335,9.51020433 0.314089004,10.1803 C0.314089004,10.1803 0.340263088,10.2576188 0.392611255,10.3864833 C0.418785339,10.4638021 0.444959423,10.5411208 0.471133506,10.6184395 C0.889918845,11.8297664 1.96305628,15.3864281 0.680526176,17.5771256 C0.680526176,17.5771256 0.104696335,19.200819 0.366437172,19.8709147 C1.07313743,21.829656 4.52811648,22.4739788 8.68979578,21.6492456 C8.32335861,21.1595603 8.08779186,20.5925563 7.98309552,19.9740064 C5.36568715,20.386373 3.32410863,19.9740064 2.90532329,18.8399983 C2.35566753,17.2678507 5.10394632,14.8709699 9.10858112,13.4792327 C13.0870418,12.0874955 16.7775876,12.2421329 17.3272434,13.8142805 C17.6675065,14.7678783 16.7514136,16.0565238 15.0762722,17.2163049 C15.4165353,17.7317631 15.652102,18.32454 15.7306243,18.9688628 C18.7929921,17.1389861 20.5728298,14.8194241 19.9446518,13.0410932 C19.8521953,12.8109229 19.394996,12.1132684 18.8453402,11.7782205 Z"></path> </g> </g></symbol><symbol id="iconOnPageHelp" viewBox="0 0 11 18"><path d="M7.717,11.035"/><path d="M6.626,13H4.164v-1.195c0-0.432,0.043-0.822,0.131-1.17c0.087-0.348,0.214-0.664,0.38-0.946s0.366-0.552,0.602-0.81 C5.513,8.621,5.779,8.36,6.076,8.094l0.969-0.872c0.384-0.315,0.703-0.66,0.956-1.033c0.253-0.374,0.38-0.851,0.38-1.432 c0-0.797-0.267-1.432-0.799-1.905c-0.532-0.473-1.218-0.71-2.056-0.71c-0.873,0-1.571,0.266-2.095,0.797 C2.907,3.47,2.601,4.118,2.514,4.881L0,4.608c0.105-0.714,0.323-1.357,0.655-1.93C0.986,2.105,1.401,1.619,1.898,1.22 c0.498-0.398,1.07-0.701,1.716-0.909C4.26,0.104,4.95,0,5.684,0S7.102,0.1,7.74,0.299c0.637,0.199,1.2,0.494,1.689,0.884 c0.489,0.39,0.873,0.872,1.152,1.444C10.86,3.2,11,3.86,11,4.608c0,0.531-0.061,0.996-0.183,1.395 c-0.123,0.398-0.293,0.759-0.511,1.083c-0.218,0.324-0.485,0.627-0.799,0.909C9.193,8.277,8.853,8.567,8.486,8.866 c-0.349,0.283-0.646,0.535-0.89,0.76C7.35,9.849,7.159,10.078,7.019,10.31c-0.14,0.233-0.24,0.49-0.301,0.772 c-0.062,0.283-0.092,0.632-0.092,1.046V13z"/><circle cx="5.5" cy="16.5" r="1.5"/></symbol><symbol id="iconPause" viewBox="0 0 10 12"> <rect width="3" height="12"/> <rect x="7" width="3" height="12"/></symbol><symbol id="iconPhotos" viewBox="0 0 20 20"> <path d="M18,3.6V3c0-0.5-0.4-1-1-1H4C3.4,2,3,2.5,3,3v0.6C3,3.8,3.2,4,3.4,4h14.2C17.8,4,18,3.8,18,3.6z"/> <path d="M18,5H3C1.9,5,1,5.9,1,7V17c0,1.1,0.9,2,2,2H18c1.1,0,2-0.9,2-2V7C20,5.9,19.1,5,18,5z M6,7c1.1,0,2,0.9,2,2s-0.9,2-2,2 s-2-0.9-2-2S4.9,7,6,7z M17.2,17.4h-13c-0.9,0-1.3-1-0.7-1.6l1.7-1.7c0.4-0.4,1-0.4,1.4,0l1.2,1.2c0.4,0.4,1.1,0.4,1.4-0.1l3.8-4.8 c0.4-0.5,1.2-0.5,1.6,0.1L18,16C18.5,16.6,18,17.4,17.2,17.4z"/></symbol><symbol id="iconPhoto" viewBox="0 0 19 14"> <path d="M17.042,0 L1.957,0 C0.876,0 0,0.877 0,1.958 L0,12.043 C0,13.124 0.876,14 1.957,14 L17.042,14 C18.123,14 19,13.124 19,12.043 L19,1.958 C19,0.877 18.123,0 17.042,0 L17.042,0 Z M5,2 C6.104,2 7,2.896 7,4 C7,5.105 6.104,6 5,6 C3.895,6 3,5.105 3,4 C3,2.896 3.895,2 5,2 L5,2 Z M16.235,12.446 L3.203,12.446 C2.35,12.446 1.917,11.422 2.511,10.811 L4.184,9.088 C4.559,8.702 5.172,8.702 5.547,9.088 L6.733,10.309 C7.135,10.723 7.81,10.686 8.165,10.23 L11.929,5.384 C12.331,4.866 13.123,4.9 13.479,5.45 L17.045,10.958 C17.46,11.6 17,12.446 16.235,12.446 L16.235,12.446 Z"></path></symbol><symbol id="iconPhotoAdd" viewBox="0 0 20 17"> <path d="M11.6195455,7 L1.33431818,7 C0.597272727,7 0,7.62340089 0,8.3918118 L0,15.5605666 C0,16.3289775 0.597272727,16.9516676 1.33431818,16.9516676 L11.6195455,16.9516676 C12.3565909,16.9516676 12.9545455,16.3289775 12.9545455,15.5605666 L12.9545455,8.3918118 C12.9545455,7.62340089 12.3565909,7 11.6195455,7 L11.6195455,7 Z M3.40909091,8.38023903 C4.16181818,8.38023903 4.77272727,9.02023903 4.77272727,9.80881046 C4.77272727,10.5980962 4.16181818,11.2373819 3.40909091,11.2373819 C2.65568182,11.2373819 2.04545455,10.5980962 2.04545455,9.80881046 C2.04545455,9.02023903 2.65568182,8.38023903 3.40909091,8.38023903 L3.40909091,8.38023903 Z M11.0693182,15.8416676 L2.18386364,15.8416676 C1.60227273,15.8416676 1.30704545,15.110239 1.71204545,14.6738105 L2.85272727,13.4430962 C3.10840909,13.1673819 3.52636364,13.1673819 3.78204545,13.4430962 L4.59068182,14.315239 C4.86477273,14.6109533 5.325,14.5845247 5.56704545,14.2588105 L8.13340909,10.7973819 C8.4075,10.4273819 8.9475,10.4516676 9.19022727,10.8445247 L11.6215909,14.7788105 C11.9045455,15.2373819 11.5909091,15.8416676 11.0693182,15.8416676 Z M19.5929616,5.71584822 C19.7351911,5.71584822 19.8503485,5.60069083 19.8503485,5.45846135 L19.8503485,4.25840013 C19.8503485,4.11697877 19.7351911,4.00182138 19.5933657,4.00141732 L15.8517606,4.00141732 L15.8582256,0.259812295 C15.8586297,0.117986877 15.7434723,0.0028294872 15.6016469,0.00242542618 L14.4015856,1.060076e-06 C14.2597602,-0.000403000942 14.1446028,0.114754389 14.1441988,0.256579806 L14.1377338,4.00141732 L10.4098668,4.00141732 C10.2680414,4.00182138 10.152884,4.11697877 10.152884,4.25840013 L10.152884,5.45846135 C10.152884,5.60069083 10.2680414,5.71584822 10.4102709,5.71584822 L14.1349054,5.71584822 L14.1284404,9.43967456 C14.1284404,9.58190404 14.2431937,9.69746549 14.3854232,9.69746549 L15.5846763,9.69988985 C15.7269058,9.69988985 15.8424672,9.58513652 15.8424672,9.44290705 L15.8489322,5.71584822 L19.5929616,5.71584822 Z"></path></symbol><symbol id="iconPlay" viewBox="0 0 12 10"> <polygon points="0,0 12,5 0,10 "/></symbol><symbol id="iconPlus" viewBox="0 0 12 12"> <rect y="5" width="12" height="2"/> <rect x="5" y="0" width="2" height="12"/></symbol><symbol id="iconPremiumContractTemplate" viewBox="0 0 49 64"> <path d="M47.9548431,0 L1,0 C0.44771525,0 0,0.44771525 0,1 L0,62.0038297 C0,62.5561144 0.44771525,63.0038297 1,63.0038297 L47.9548431,63.0038297 C48.5071279,63.0038297 48.9548431,62.5561144 48.9548431,62.0038297 L48.9548431,1 C48.9548431,0.44771525 48.5071279,0 47.9548431,0 L47.9548431,0 Z M47.9548431,2 L46.9548431,1 L46.9548431,62.0038297 L47.9548431,61.0038297 L1,61.0038297 L2,62.0038297 L2,1 L1,2 L47.9548431,2 L47.9548431,2 Z"></path> <path d="M8.96410392,30.4181532 L39.9905549,30.4181532 C40.5428397,30.4181532 40.9905549,29.970438 40.9905549,29.4181532 C40.9905549,28.8658685 40.5428397,28.4181532 39.9905549,28.4181532 L8.96410392,28.4181532 C8.41181917,28.4181532 7.96410392,28.8658685 7.96410392,29.4181532 C7.96410392,29.970438 8.41181917,30.4181532 8.96410392,30.4181532 L8.96410392,30.4181532 Z"></path> <path d="M8.96410392,35.4181532 L39.9905549,35.4181532 C40.5428397,35.4181532 40.9905549,34.970438 40.9905549,34.4181532 C40.9905549,33.8658685 40.5428397,33.4181532 39.9905549,33.4181532 L8.96410392,33.4181532 C8.41181917,33.4181532 7.96410392,33.8658685 7.96410392,34.4181532 C7.96410392,34.970438 8.41181917,35.4181532 8.96410392,35.4181532 L8.96410392,35.4181532 Z"></path> <path d="M8.96410392,40.4181532 L39.9905549,40.4181532 C40.5428397,40.4181532 40.9905549,39.970438 40.9905549,39.4181532 C40.9905549,38.8658685 40.5428397,38.4181532 39.9905549,38.4181532 L8.96410392,38.4181532 C8.41181917,38.4181532 7.96410392,38.8658685 7.96410392,39.4181532 C7.96410392,39.970438 8.41181917,40.4181532 8.96410392,40.4181532 L8.96410392,40.4181532 Z"></path> <path d="M8.96410392,48.4181532 L20.6376137,48.4181532 C21.1898985,48.4181532 21.6376137,47.970438 21.6376137,47.4181532 C21.6376137,46.8658685 21.1898985,46.4181532 20.6376137,46.4181532 L8.96410392,46.4181532 C8.41181917,46.4181532 7.96410392,46.8658685 7.96410392,47.4181532 C7.96410392,47.970438 8.41181917,48.4181532 8.96410392,48.4181532 L8.96410392,48.4181532 Z"></path> <path d="M8.96410392,52.4181532 L20.6376137,52.4181532 C21.1898985,52.4181532 21.6376137,51.970438 21.6376137,51.4181532 C21.6376137,50.8658685 21.1898985,50.4181532 20.6376137,50.4181532 L8.96410392,50.4181532 C8.41181917,50.4181532 7.96410392,50.8658685 7.96410392,51.4181532 C7.96410392,51.970438 8.41181917,52.4181532 8.96410392,52.4181532 L8.96410392,52.4181532 Z"></path> <path d="M28.7783765,14.6060224 C28.7783765,16.9734222 26.8536304,18.8931987 24.4775137,18.8931987 C22.1011676,18.8931987 20.1757294,16.9731929 20.1757294,14.6060224 C20.1757294,12.2388518 22.1011676,10.3188461 24.4775137,10.3188461 C26.8536304,10.3188461 28.7783765,12.2386226 28.7783765,14.6060224 L28.7783765,14.6060224 Z M30.7783765,14.6060224 C30.7783765,11.132894 27.9570441,8.31884611 24.4775137,8.31884611 C20.9978611,8.31884611 18.1757294,11.1330154 18.1757294,14.6060224 C18.1757294,18.0790294 20.9978611,20.8931987 24.4775137,20.8931987 C27.9570441,20.8931987 30.7783765,18.0791508 30.7783765,14.6060224 L30.7783765,14.6060224 Z"></path></symbol><symbol id="iconReload" viewBox="0 0 12 12"> <path d="M10.6072728,2.08851696 C9.5251516,0.81152547 7.89358366,0 6.05618606,0 C2.70632303,0 0,2.68595489 0,6.00058365 C0,9.31421186 2.71957287,12 6.06876502,12 C8.6615419,12 10.8769497,10.389461 11.7418796,8.1228999 L9.51640856,7.20306833 C9.0145916,8.60716221 7.65924973,9.61520824 6.07178398,9.61520824 C4.05579471,9.61520824 2.4190194,7.99349648 2.4190194,6.00058365 C2.4190194,4.00600325 4.05713647,2.38345771 6.07279029,2.38345771 C7.23299178,2.38345771 8.26544685,2.92295571 8.93584439,3.75994531 L8.00827489,4.68751481 C7.83732266,4.85846705 7.89428325,4.99658915 8.13492994,4.99658915 L11.5610926,4.99658915 C11.8009947,4.99658915 11.996822,4.80150646 11.996822,4.56085976 L11.996822,1.13469708 C11.996822,0.894794996 11.8584447,0.837344981 11.6877477,1.00804202 L10.6072727,2.08851699 Z"></path></symbol><symbol id="iconRename" viewBox="0 0 10 11"> <path d="M9.86818981,0 L10,2.57964602 L9.66608084,2.57964602 C9.60163998,2.12536646 9.5137674,1.80088593 9.40246046,1.60619469 C9.22085439,1.29252547 8.97920479,1.06133309 8.67750439,0.912610619 C8.375804,0.763888145 7.97891283,0.689528024 7.48681898,0.689528024 L5.80843585,0.689528024 L5.80843585,9.09365782 C5.80843585,9.76966906 5.88752118,10.1914938 6.0456942,10.3591445 C6.26830808,10.5862843 6.61101116,10.6998525 7.07381371,10.6998525 L7.48681898,10.6998525 L7.48681898,11 L2.4340949,11 L2.4340949,10.6998525 L2.85588752,10.6998525 C3.35969789,10.6998525 3.7170464,10.5592443 3.92794376,10.2780236 C4.05682548,10.1049647 4.12126538,9.71018007 4.12126538,9.09365782 L4.12126538,0.689528024 L2.68892794,0.689528024 C2.13239323,0.689528024 1.73696661,0.727384086 1.5026362,0.803097345 C1.19800668,0.905851055 0.937318014,1.10324338 0.72056239,1.39528024 C0.503806766,1.68731709 0.374926977,2.08210174 0.333919156,2.57964602 L0,2.57964602 L0.14059754,0 L9.86818981,0 Z"></path></symbol><symbol id="iconReports" viewBox="0 0 20 20"> <path d="M20,3.8C20,2.2,18.8,1,17.2,1s-2.8,1.2-2.8,2.8c0,0.6,0.2,1.1,0.5,1.5l-2.2,4.8c0,0-0.1,0-0.1,0c-0.3,0-0.5,0.1-0.8,0.1 L10,7.9c0.1-0.2,0.1-0.4,0.1-0.7c0-1.5-1.2-2.8-2.8-2.8S4.6,5.7,4.6,7.2c0,0.6,0.2,1.1,0.5,1.5l-2,3.8c-0.1,0-0.1,0-0.2,0 c-1.5,0-2.8,1.2-2.8,2.8c0,1.5,1.2,2.8,2.8,2.8c1.5,0,2.8-1.2,2.8-2.8c0-0.4-0.1-0.8-0.3-1.2l2.2-4.1c0.2,0,0.4,0,0.6-0.1l1.9,2.4 c0,0.2-0.1,0.4-0.1,0.6c0,1.5,1.2,2.8,2.8,2.8c1.5,0,2.8-1.2,2.8-2.8c0-0.5-0.1-0.9-0.3-1.3l2.3-5.1C18.9,6.4,20,5.2,20,3.8z"/></symbol><symbol id="iconSearch" viewBox="0 0 32 32"> <path d="M29.8,32c-0.6,0-1.1-0.2-1.5-0.6l-6.3-6c-0.1-0.1-0.1-0.1-0.1-0.2c0-0.1,0-0.1,0.1-0.2c1-0.8,2-1.7,2.7-2.7 c0-0.1,0.1-0.1,0.2-0.1c0.1,0,0.1,0,0.2,0.1l6.2,6c0.4,0.4,0.7,1,0.7,1.6c0,0.6-0.2,1.2-0.6,1.6S30.4,32,29.8,32 C29.8,32,29.8,32,29.8,32z"/> <path d="M13,4.1c4.9,0,9,4,9.1,8.9c0,2.4-0.9,4.7-2.5,6.5c-1.7,1.7-3.9,2.7-6.4,2.8l-0.2,0c-4.9,0-9-4-9.1-8.9 c0-2.4,0.9-4.7,2.5-6.5c1.7-1.7,3.9-2.7,6.4-2.8L13,4.1 M13,0.1c-0.1,0-0.2,0-0.2,0C5.6,0.2-0.2,6.2,0,13.4 c0.1,7.1,6,12.8,13.1,12.8c0.1,0,0.2,0,0.2,0c7.2-0.1,13-6.1,12.8-13.3C26,5.8,20.1,0.1,13,0.1L13,0.1z"/></symbol><symbol id="iconSort" viewBox="0 0 20 20"><path d="M13.5,14H11V7h2.4c0.4,0,0.7-0.5,0.4-0.9L10,1.5c-0.2-0.3-0.6-0.3-0.8,0L5.3,6.1C5,6.5,5.2,7,5.7,7H8v7H5.6	c-0.4,0-0.6,0.5-0.4,0.8l4,4.8c0.2,0.2,0.5,0.2,0.7,0l4-4.8C14.1,14.5,13.9,14,13.5,14z"/></symbol><symbol id="iconStudio" viewBox="0 0 20 20"> <path d="M17.1,2H2.9C2.4,2,2,2.4,2,2.9v10.2C2,13.6,2.4,14,2.9,14h14.2c0.5,0,0.9-0.4,0.9-0.9V2.9C18,2.4,17.6,2,17.1,2z"/> <path d="M14.5,17.5h-1c-0.8,0-1.5-0.7-1.5-1.5v0v-0.5L8,16v0c0,0.8-0.7,1.5-1.5,1.5h-1V19h9V17.5z"/></symbol><symbol id="iconTag" viewBox="0 0 16 16"> <path d="M0.373258767,7.2042723 L8.80242014,15.6266498 C9.30107857,16.1247118 10.1101104,16.1241882 10.6080702,15.6266498 L15.6262682,10.6121748 C16.1245773,10.1144618 16.1245773,9.30698721 15.6262682,8.80875075 L7.19675747,0.386722238 C6.91572721,0.105929783 6.53671187,-0.010819846 6.16957351,0.0249554513 L6.19402611,0 L1.80810254,0.973960654 L1.80880119,0.974309681 C1.62313607,1.00345346 1.17617743,1.14777624 0.996101483,1.79452381 L0.0941497769,5.82142618 C-0.0936112774,6.28231671 -0.000516726729,6.83063859 0.373258767,7.2042723 Z M3.81458109,3.8255627 C4.33454821,3.30655912 5.1758924,3.30655912 5.69446223,3.8255627 C6.21442936,4.34474079 6.21442936,5.18537302 5.69568486,5.70420209 C5.1758924,6.2235547 4.33454821,6.2235547 3.81458109,5.70420209 C3.29478863,5.18537302 3.29478863,4.34456628 3.81458109,3.8255627 Z"></path></symbol><symbol id="iconTelephone" viewBox="0 0 25 25"> <path d="M6.9,18.1c0,0,5.3,5.3,14.3,6.9c0.1,0,0.2,0,0.2-0.1l3.5-3.5c0.1-0.1,0.1-0.2,0-0.3l-5.1-5.1c-0.1-0.1-0.2-0.1-0.3,0 l-3.4,3.4c-0.1,0.1-0.2,0.1-0.3,0L5.5,9.1c-0.1-0.1-0.1-0.2,0-0.3l3.4-3.4C9,5.3,9,5.2,8.9,5.1L3.9,0.1C3.8,0,3.6,0,3.6,0.1L0.1,3.6 C0,3.6,0,3.7,0,3.8C0.3,4.8,2,13.1,6.9,18.1z"/></symbol><symbol id="iconTooltip" viewBox="0 0 26.2 26.2"><path d="M13.1,0C5.9,0,0,5.9,0,13.1c0,7.2,5.9,13.1,13.1,13.1s13.1-5.9,13.1-13.1C26.2,5.9,20.4,0,13.1,0z M14.9,21.3c0,0.3-0.2,0.5-0.5,0.5h-2.7c-0.3,0-0.5-0.2-0.5-0.5v-2.7c0-0.3,0.2-0.5,0.5-0.5h2.7c0.3,0,0.5,0.2,0.5,0.5V21.3z M18.5,10.9c-0.2,0.5-0.4,0.9-0.7,1.2c-0.3,0.3-0.6,0.6-1,0.9c-0.3,0.2-0.6,0.4-0.9,0.6c-0.2,0.2-0.5,0.4-0.7,0.7c-0.2,0.2-0.3,0.5-0.3,0.8l0,0.7c0,0.3-0.2,0.5-0.5,0.5h-2.9c-0.3,0-0.5-0.2-0.5-0.5v-1c0-0.7,0.2-1.3,0.4-1.7c0.2-0.4,0.5-0.8,0.7-1.2c0.3-0.3,0.6-0.6,0.9-0.8c0.3-0.2,0.5-0.4,0.8-0.6c0.2-0.2,0.4-0.4,0.5-0.6c0.1-0.2,0.1-0.4,0.1-0.7c0-0.5-0.1-0.9-0.3-1.1c-0.2-0.2-0.6-0.3-1-0.3c-0.3,0-0.6,0.1-0.8,0.2c-0.2,0.1-0.4,0.3-0.5,0.5c-0.1,0.2-0.2,0.4-0.3,0.7c-0.1,0.3-0.1,0.6-0.1,1c0,0.3-0.2,0.5-0.5,0.5H7.9c-0.1,0-0.2-0.1-0.3-0.1c-0.1-0.1-0.1-0.2-0.1-0.3c0-0.8,0.2-1.6,0.4-2.3C8.1,7.2,8.5,6.6,9,6.1c0.5-0.5,1.1-0.9,1.8-1.2c0.7-0.3,1.4-0.4,2.3-0.4c1.1,0,2,0.2,2.7,0.4c0.7,0.3,1.3,0.7,1.8,1.1c0.5,0.5,0.8,1,1,1.5c0.2,0.5,0.3,1,0.3,1.5C18.8,9.8,18.7,10.4,18.5,10.9z"/></symbol><symbol id="iconWarning" viewBox="0 0 20 17.6"><path d="M19.7,14.5L11.7,1C11-0.3,9.1-0.3,8.3,1l-8,13.6c-0.8,1.3,0.2,3,1.7,3h16C19.5,17.6,20.5,15.9,19.7,14.5L19.7,14.5z M10,16c-0.8,0-1.4-0.6-1.4-1.4c0-0.8,0.6-1.4,1.4-1.4c0.8,0,1.4,0.6,1.4,1.4C11.4,15.3,10.8,16,10,16L10,16z M10.8,11.9H9.2L8.6,4.2h2.8L10.8,11.9L10.8,11.9z"/></symbol><symbol id="iconZoom" viewBox="0 0 30 30"> <path d="M15,0C6.7,0,0,6.7,0,15c0,8.3,6.7,15,15,15s15-6.7,15-15C30,6.7,23.3,0,15,0z"/> <path fill="#FFFFFF" d="M22.8,19.8l-4.4-4c-0.1,0-0.1-0.1-0.2-0.1c1.1-2.2,0.7-4.9-1.2-6.6c-2.2-2-5.7-1.9-7.8,0.4 c-2,2.2-1.9,5.7,0.4,7.8c1.9,1.7,4.6,1.9,6.6,0.6c0,0.1,0.1,0.1,0.1,0.2l4.4,4c0.4,0.4,1,0.3,1.4-0.1l0.7-0.7 C23.2,20.8,23.2,20.2,22.8,19.8z M15.1,14.9c-0.9,1-2.5,1.1-3.5,0.2s-1.1-2.5-0.2-3.5s2.5-1.1,3.5-0.2 C16,12.3,16.1,13.9,15.1,14.9z"/></symbol><symbol id="iconBabieskidsfamily" viewBox="0 0 60 60"><g>	<path d="M21.6,9.8c-3.5,0-6.3,3.5-6.3,7.7c0,4.3,2.8,7.7,6.3,7.7s6.3-3.5,6.3-7.7C27.9,13.2,25.1,9.8,21.6,9.8z"/>	<path d="M38.6,14.7c-2.8,0-5.1,2.9-5.1,6.4s2.3,6.4,5.1,6.4c2.8,0,5.1-2.9,5.1-6.4S41.4,14.7,38.6,14.7z"/>	<path d="M43.9,27.2c-1.4,1.6-3.2,2.6-5.3,2.6c-2.1,0-3.9-1-5.3-2.6c-0.9,0.3-1.7,0.7-2.4,1.3 c-0.9-1.4-2.3-2.5-3.8-3.1c-1.5,1.4-3.4,2.2-5.4,2.2c-2.1,0-4.1-0.9-5.6-2.3c-3.3,1.1-5.6,4.1-5.6,7.8V45c0,2.8,2.3,5.1,5.1,5.1 h7.9v-3.9c0-1.5,0.6-2.8,1.6-3.8c1.3,1.6,3.3,2.6,5.6,2.6c2.2,0,4.1-1,5.5-2.5c0.9,0.9,1.5,2.2,1.5,3.6v4.1h8.7 c1.9,0,3.5-1.6,3.5-3.5V35C49.6,31.4,47.2,28.3,43.9,27.2z M30.4,42.7c-2.9,0-5.2-2.5-5.2-5.7c0-3.1,2.3-5.7,5.2-5.7 c2.9,0,5.2,2.5,5.2,5.7C35.6,40.2,33.3,42.7,30.4,42.7z"/></g></symbol><symbol id="iconBoudoirfashion" viewBox="0 0 60 60"><g>	<g> <path d="M19.7,27c-1.6-0.5-2.8-1.7-3.3-3.3c-0.1-0.2-0.2-0.3-0.4-0.3s-0.4,0.1-0.4,0.3c-0.5,1.6-1.7,2.8-3.3,3.3 c-0.2,0.1-0.3,0.2-0.3,0.4s0.1,0.4,0.3,0.4c1.6,0.5,2.8,1.7,3.3,3.3c0.1,0.2,0.2,0.3,0.4,0.3s0.4-0.1,0.4-0.3 c0.5-1.6,1.7-2.8,3.3-3.3c0.2-0.1,0.3-0.2,0.3-0.4S19.9,27.1,19.7,27z"/>	</g>	<path d="M38.8,35.3c0.1-0.1,0.2-0.2,0.3-0.3c0.3-0.3,0.8-0.8,1.2-1.2c0.3-0.3,0.5-0.4,0.7-0.5 c0.1,0.2,0.2,0.5,0.2,1.2c0.1,0.8,0,1.6,0,2.3c0,0.2,0,0.4,0,0.6v8.3v1h1h2.8h1v-1v-4.4c0-5.4,0.6-9.5,1.6-11.4 c1.7-2.6,2.5-5.1,2.5-7.4c0-0.2,0-0.4,0-0.6c-0.2-2-0.8-3.9-1.7-5.2c-0.1-0.1-0.1-0.2-0.2-0.3c-0.5-0.8-1.4-2.2-2.9-2.2h-0.2 l-0.2,0.1c-0.1,0.1-2.8,1.3-5.5,4c-1.1,1.1-2.1,2.6-2.9,3.8c-0.4,0.6-0.7,1.2-1.1,1.8c-2.3,3.9-5,8.3-10,11.8 c-1.1,0.7-1.9,0.9-3.3,0.9c-0.7,0-1.5-0.4-2.2-1c-0.5-0.5-1.3-0.8-2-0.8c-0.6,0-1.1,0.2-1.6,0.5l0,0l0,0l-3.7,3L9,41.3 c-0.8,0.5-1.3,1-1.6,1.6c-0.4,0.6-0.4,1.3-0.2,2c0.4,1.3,1.7,2.1,3.3,2.1c2.6,0,4,0,5.2,0c0.9,0,1.7,0,2.7,0c2.6,0,5-0.4,7.1-1.1 c1.9-0.6,3.5-1.5,5-2.6L38.8,35.3z"/>	<g> <path d="M32.2,19.4c-2.9-0.8-5.2-3.1-6-6c-0.1-0.3-0.4-0.6-0.8-0.6s-0.7,0.2-0.8,0.6c-0.8,2.9-3.1,5.2-6,6 c-0.3,0.1-0.6,0.4-0.6,0.8c0,0.4,0.2,0.7,0.6,0.8c2.9,0.8,5.2,3.1,6,6c0.1,0.3,0.4,0.6,0.8,0.6s0.7-0.2,0.8-0.6 c0.8-2.9,3.1-5.2,6-6c0.3-0.1,0.6-0.4,0.6-0.8C32.7,19.8,32.5,19.5,32.2,19.4z"/>	</g></g></symbol><symbol id="iconHighschoolseniors" viewBox="0 0 60 60"><g>	<path d="M27.5,36.3l-15.3-5.4v8.5h0c0.2,2.6,11.6,8.8,16.8,8.8c5.4,0,16.6-6.3,16.8-8.8h0v-8.3l-15.3,5.3 C29.6,36.7,28.5,36.7,27.5,36.3z"/>	<path d="M56.8,22.4l-5.9-1.8l-11.5,4.1c-1.1,0.4-2.2,0.4-3.3,0l-1.2-0.4c-0.6-0.2-0.6-1.1,0-1.3L45.8,19l-15.6-4.7 c-0.7-0.2-1.5-0.2-2.2,0L1.5,22c-0.6,0.2-0.6,1,0,1.2l26,9.2c1,0.4,2.1,0.4,3.1,0l26.2-9C57.3,23.3,57.3,22.5,56.8,22.4z"/>	<path d="M53.9,48.6c0-1.2-0.7-2.3-1.7-2.9V27.9c-0.4,0.3-1.4,0.6-2.7,0.6c-0.2,0-0.3,0-0.5,0v17.3 c-1,0.6-1.7,1.6-1.7,2.9c0,0,0,0,0,0.1h0v5.7h0c0.1,0.7,1.5,1.3,3.2,1.3c1.8,0,3.2-0.6,3.2-1.3h0V48.6L53.9,48.6 C53.9,48.6,53.9,48.6,53.9,48.6z"/></g></symbol><symbol id="iconSportsaction" viewBox="0 0 60 60"><g>	<path d="M9.9,41c-0.1,1.3,0,2.6,0,3.7c0.1,2,1.8,3.5,3.7,3.6c1,0,2.1,0,3.2,0c0.5,0,0.7-0.6,0.4-1l-6.6-6.6 C10.3,40.4,9.9,40.6,9.9,41z"/>	<path d="M39.3,10.8l6.7,6.7c0.3,0.3,0.8,0.1,0.8-0.3c0.1-1.5,0-2.9-0.1-4.2c-0.1-1.6-1.4-2.9-3-3 c-1.3-0.1-2.7-0.1-4.1,0C39.2,10,39,10.5,39.3,10.8z"/>	<path d="M18.4,19.2c-3.9,3.9-6.2,8.9-7.4,13.9c-0.2,0.8,0.1,1.6,0.6,2.1c2.3,2.3,8.7,8.7,11.1,11.1 c0.6,0.6,1.4,0.8,2.3,0.6c4.7-1.4,9.5-3.9,13.4-7.8c3.9-3.9,6.2-8.8,7.4-13.8c0.2-0.8-0.1-1.7-0.7-2.3L34,12.1 c-0.6-0.6-1.5-0.9-2.4-0.6C26.9,12.9,22.2,15.3,18.4,19.2z M35.4,25.4c0.5,0.5,0.5,1.4,0,1.9s-1.4,0.5-1.9,0l-0.7-0.7l-1.3,1.3 l0.7,0.7c0.5,0.5,0.5,1.4,0,1.9c-0.5,0.5-1.4,0.5-1.9,0l-0.7-0.7l-1.3,1.3l0.7,0.7c0.5,0.5,0.5,1.4,0,1.9s-1.4,0.5-1.9,0l-0.7-0.7 l-1.3,1.3l0.7,0.7c0.5,0.5,0.5,1.4,0,1.9s-1.4,0.5-1.9,0l-3.7-3.7c-0.5-0.5-0.5-1.4,0-1.9c0.5-0.5,1.4-0.5,1.9,0l1,1l1.3-1.3l-1-1 c-0.5-0.5-0.5-1.4,0-1.9s1.4-0.5,1.9,0l1,1l1.3-1.3l-1-1c-0.5-0.5-0.5-1.4,0-1.9c0.5-0.5,1.4-0.5,1.9,0l1,1l1.3-1.3l-1-1 c-0.5-0.5-0.5-1.4,0-1.9s1.4-0.5,1.9,0L35.4,25.4z"/>	<path d="M45.2,33.9c-0.5,1.1-1.2,2.2-1.9,3.2c2,2.1,4.3,4,6.8,5.5C50.5,38.9,48.4,35.5,45.2,33.9z"/>	<path d="M47.9,44.8c-1.9-1-3.7-2.3-5.3-3.9c-0.4-0.4-0.8-0.8-1.1-1.2c-0.4,0.5-0.8,0.9-1.3,1.4 c-0.2,0.2-0.5,0.5-0.7,0.7c2.1,1.9,4,4,5.6,6.3c0.4,0.6,1.2,0.7,1.7,0.3c0.6-0.4,1.1-0.9,1.5-1.4C48.8,46.2,48.6,45.2,47.9,44.8z" />	<path d="M37.2,43.6c-1,0.8-2.1,1.5-3.2,2.1c1.3,2.3,3.6,3.9,6.5,4.3c0.8,0.1,1.6,0.1,2.4-0.1 C41.2,47.6,39.3,45.5,37.2,43.6z"/></g></symbol><symbol id="iconUltimateallsongs" viewBox="0 0 60 60"><g>	<path d="M45.6,19.3H14.3l0-3.1c0-1.1,0.9-2,2-2h27.3c1.1,0,2,0.9,2,2V19.3"/>	<path d="M40.8,11.9H19.2v-1c0-1.1,0.9-2,2-2h17.5c1.1,0,2,0.9,2,2V11.9"/>	<path d="M45.7,22H14.3c-2.2,0-4.1,1.8-4.1,4.1V47c0,2.2,1.8,4.1,4.1,4.1h31.3c2.2,0,4.1-1.8,4.1-4.1V26.1 C49.7,23.8,47.9,22,45.7,22z M23.1,28.7l15-3.2v4.2v1.2v10.8h0c0,0.1,0,0.1,0,0.2c0,2-1.6,3.5-3.5,3.5c-2,0-3.5-1.6-3.5-3.5 c0-2,1.6-3.5,3.5-3.5c0.3,0,0.7,0,1,0.1v-7.2l-9.9,2.2v10.6h0c0,0.1,0,0.1,0,0.2c0,1.9-1.6,3.5-3.5,3.5s-3.5-1.6-3.5-3.5 c0-1.9,1.6-3.5,3.5-3.5c0.3,0,0.6,0,0.9,0.1L23.1,28.7z"/></g></symbol><symbol id="iconWeddingslove" viewBox="0 0 60 60"><path fill-rule="evenodd" clip-rule="evenodd" d="M38.1,17.4c-3.7,0-7.1,1.2-10,3.2c-1-0.6-2-1.1-3-1.5l4.3-2.8	c0.8-0.5,1-1.5,0.5-2.2l-1.2-1.8c-0.2-0.3-0.5-0.5-0.9-0.6l-6.6-1.4c-0.4-0.1-0.8,0-1.1,0.2l-1.9,1.2c-0.8,0.5-1,1.5-0.5,2.2	l2.8,4.3c-0.2,0-0.5,0-0.7,0c-8.7,0-15.7,7.1-15.6,15.8c0.1,8.4,6.9,15.2,15.3,15.4c1.7,0,3.4-0.2,4.9-0.7c-1.5-1.4-2.7-3-3.5-4.9	c-0.4,0-0.7,0.1-1.1,0.1c-5.6,0-10.1-4.5-10.1-10.1c0-4,2.3-7.4,5.7-9.1c1.3-0.6,2.7-0.9,4.2-0.9c5.6,0,10.1,4.5,10.1,10.1	c0,1.3-0.4,3.6-1.6,5.4c-0.7-1.4-1-3-1-4.7c0-0.8,0.1-1.5,0.2-2.2c-0.8-2.3-2.4-4.2-4.5-5.3c-1.2,2.4-1.8,5-1.8,7.8	c0.1,9.4,8,17,17.4,16.9C47.5,51.4,55,44,55.1,34.7C55.3,25.2,47.6,17.4,38.1,17.4z M38,45.5c-2.3,0-4.5-0.7-6.3-1.9	c2.2-2.7,3.6-6.2,3.6-9.9c0-3.3-1-6.3-2.7-8.8c1.6-0.9,3.5-1.4,5.4-1.4c6.1,0,11.1,5,11.1,11.1C49.1,40.6,44.1,45.5,38,45.5z"/></symbol><symbol id="shootproofCrop" viewBox="0 0 21 16"> <path d="M0,6.298v-4.04C0,1.254,1.004,0,2.257,0h4.041L4.543,1.756H2.257c-0.249,0-0.501,0.25-0.501,0.502v2.284L0,6.298z"/> <path d="M6.298,15.956H2.257C1.254,15.956,0,14.952,0,13.697V9.658l1.756,1.756v2.284c0,0.252,0.252,0.503,0.501,0.503h2.286 L6.298,15.956z"/> <path d="M21,9.658v4.039c0,1.004-1.003,2.258-2.257,2.258h-4.04l1.754-1.756h2.286c0.251,0,0.501-0.251,0.501-0.503v-2.284 L21,9.658z"/> <path d="M14.703,0h4.04C19.745,0,21,1.003,21,2.258v4.04l-1.756-1.756V2.258c0-0.253-0.25-0.502-0.501-0.502h-2.286L14.703,0z"/></symbol><symbol id="shootproofLogo" viewBox="0 0 100 20"> <path class="script-name" d="M7.031,6.963c-1.703-0.36-5.117-0.648-5.117-1.942c0-1.879,6.171-3.187,9.661-3.187c2.192,0,1.888-1.14,1.303-1.478 c-0.572-0.33-3.504-0.068-4.349,0.032C6.309,0.648,4.51,1.081,2.68,1.916C1.465,2.471-0.788,4.304,0.298,5.951 C1.207,7.327,3.234,7.615,4.71,7.964c1.824,0.43,6.78,1.068,6.78,2.548c0,0.899-2.179,1.373-3.833,1.421 c-1.719,0.053-3.651-0.16-5.391-0.652c-0.706-0.197-1.568-0.86-1.849-0.368c-0.302,0.534,0.216,0.936,0.72,1.214 c1.549,0.855,3.729,1.241,5.693,1.241c2.07,0,3.987-0.061,5.701-1.18c1.229-0.8,1.142-2.769-0.117-3.484 C10.852,7.814,8.927,7.362,7.031,6.963z"/> <path class="script-name" d="M53.933,4.387c1.08-1.069,1.209-2.541-0.04-3.502c-1.343-1.039-4.584-0.648-5.24-0.536c-0.651,0.113-1.698,0.35-2.396,0.566 c-0.749,0.231-1.425,0.505-1.687,0.714c-0.246,0.197-0.41,0.402-0.303,0.692c0.081,0.215,0.368,0.283,0.579,0.308 c0.21,0.025,0.695-0.015,1.267-0.155C46.095,2.62,46.071,2.86,46.04,3.188c-0.029,0.334-0.067,0.71-0.113,1.133 c-0.044,0.424-0.088,0.865-0.13,1.331c-0.045,0.46-0.045,0.443-0.08,0.839c-0.032,0.393-0.44,5.824-0.463,6.107 c-0.07,0.914,1.558,1.125,1.646,0.033c0.027-0.355,0.433-5.5,0.486-6.045C50.516,6.549,53.207,5.104,53.933,4.387z M47.494,5.235 c0,0,0.257-3.186,0.255-3.171c0.816-0.176,2.216-0.332,2.837-0.363c2.082-0.104,2.575,0.97,2.101,1.603 C51.98,4.248,49.833,5.192,47.494,5.235z"/> <path class="script-name" d="M43.341,10.646c-0.453-0.238-0.499,0.535-0.838,0.953c-0.372,0.46-1.329,0.695-1.791-0.017 c-0.135-0.21-0.235-0.465-0.294-0.759c-0.055-0.291-0.061-0.591-0.055-0.909c0.004-0.319,0.021-0.59,0.047-0.814 c0.023-0.175,0.054-0.406,0.085-0.694c0.03-0.284,0.065-0.595,0.103-0.933c0.285-0.025,1.269-0.103,1.406-0.116 c0.251-0.025,0.739-0.177,0.744-0.707c0.027-0.258-0.126-0.527-0.61-0.535c-0.142-0.001-0.993-0.014-1.39,0.01 c0.049-0.299,0.177-1.133,0.204-1.329c0.127-0.895,0.065-1.327-0.708-1.403c-0.807-0.078-1.047,0.412-1.123,0.949 c-0.018,0.13-0.152,1.668-0.179,1.839L37.856,6.22c-0.21,0.012-0.401,0.055-0.569,0.129c-0.169,0.076-0.291,0.152-0.366,0.227 c-0.063,0.049-0.112,0.13-0.149,0.243c-0.038,0.111-0.058,0.198-0.058,0.262c0.014,0.138,0.054,0.231,0.122,0.28 c0.069,0.049,0.148,0.088,0.234,0.113c0.113,0.024,0.337,0.036,0.673,0.036c0.338,0,0.7,0,1.085,0 c-0.024,0.438-0.051,0.877-0.074,1.32c-0.021,0.357-0.098,0.684-0.535,0.919c-0.188,0.1-0.51,0.138-0.733,0.114 c-0.273-0.03-0.595-0.05-1.249-0.71c-0.656-0.661-1.712-1.016-2.861-0.877c-0.942,0.115-1.748,0.545-2.268,1.135 c-0.216,0.245-0.475,0.382-0.793,0.479c-0.323,0.1-0.681,0.081-0.98-0.013c-0.36-0.111-0.594-0.332-0.67-0.401 c-0.014-0.013-0.093-0.092-0.193-0.184c-0.631-0.746-1.763-1.167-2.989-1.016c-1.418,0.173-2.503,1.03-2.814,2.127 c-0.151,0.532-0.178,0.747-0.354,1.095c-0.461,0.913-2.107,1.134-2.254-0.189c-0.034-0.291,0.042-1.679,0.045-1.822 c0.039-1.55-1.043-1.477-1.245-1.466c-0.716,0.039-1.415,0.86-1.718,1.212c-0.123,0.143-0.319,0.263-0.31,0.084 c0.065-1.101,0.434-4.56,0.463-4.889c0.13-1.376-1.839-1.366-1.947-0.396c-0.092,0.845-0.166,1.573-0.245,2.356 c-0.087,0.844-0.462,5.379-0.449,5.81c0.034,1.05,0.773,1.192,1.083,1.172c0.286-0.017,0.478-0.186,0.666-0.38 c0.309-0.317,0.789-1.426,0.895-1.63c0.106-0.207,0.163-0.356,0.285-0.514c0.117-0.157,0.264-0.196,0.342-0.197 c0.164-0.001,0.253,0.082,0.325,0.341c0.909,3.228,3.6,2.677,4.679,1.085c0.746,1.114,2.109,1.396,3.174,1.269 c1.053-0.13,1.949-0.68,2.438-1.35c0.293-0.404,0.364-0.761,0.407-1.065c0.46,0.125,1.19,0.084,1.568-0.095 c-0.03,0.139-0.028,0.247-0.014,0.366c0.167,1.4,1.736,2.359,3.494,2.144c1.34-0.167,2.673-1.022,2.853-2.416 c0.661,0.142,1.495,0.04,1.935-0.453c-0.042,0.797,0.22,1.389,0.397,1.726c0.173,0.327,0.444,0.687,0.792,0.887 c0.35,0.199,0.631,0.313,1.167,0.313c0.425,0,0.799-0.084,1.122-0.255c0.324-0.167,0.572-0.371,0.76-0.626 C43.406,12.003,43.761,10.864,43.341,10.646z M25.932,11.95c-0.771,0.093-1.455-0.327-1.532-0.939 c-0.075-0.614,0.488-1.186,1.258-1.28c0.772-0.095,1.455,0.325,1.53,0.938C27.263,11.281,26.7,11.856,25.932,11.95z M33.826,11.95 c-0.771,0.093-1.456-0.327-1.53-0.939c-0.076-0.614,0.487-1.186,1.256-1.28c0.772-0.095,1.455,0.325,1.529,0.938 C35.157,11.281,34.594,11.856,33.826,11.95z"/> <path class="script-name" d="M76.31,10.476c-0.354-0.167-0.507,0.469-0.641,0.759c-0.126,0.273-0.408,0.719-1.006,0.942 c-0.308,0.117-1.069,0.138-1.323-0.168c-0.199-0.24-0.428-0.512-0.684-0.743l0.107-1.148c2.453-2.644,3.331-5.041,3.437-5.374 c0.258-0.813,0.511-2.008-0.064-2.619c-0.77-0.818-1.927-0.754-2.927-0.137c-0.645,0.399-1.141,1.151-1.33,2.313 c-0.19,1.163-0.471,3.845-0.582,4.76c-0.01,0.075-0.017,0.148-0.027,0.222l0,0c-0.035,0.279-0.188,0.548-0.542,0.662 c-0.251,0.081-0.585,0.081-0.893-0.004c-0.282-0.08-0.58-0.308-1.074-0.779H68.76c-0.651-0.646-1.706-1-2.843-0.86 c-1.023,0.125-1.887,0.622-2.395,1.291c-0.007,0.007-0.011,0.014-0.011,0.014c-0.102,0.098-0.437,0.461-1.051,0.444 c-0.414-0.01-0.678-0.035-1.323-0.76c-0.644-0.725-1.754-1.138-2.968-0.989c-1.61,0.198-2.814,1.313-2.882,2.578 c-0.011,0.202-0.038,0.56-0.154,0.798c-0.089,0.186-0.397,0.62-0.879,0.62c-0.398,0-1.042-0.456-1.021-1.688 c0.005-0.179,0.01-0.83,0.01-1.106c0-0.306-0.071-0.517-0.268-0.69c-0.094-0.082-0.545-0.255-0.652-0.288 c-0.64-0.202-1.335-0.255-1.796-0.215c-0.294,0.024-0.813,0.13-0.858,0.433c-0.223,1.432-0.726,2.552-1.226,3.36 c-0.401,0.65,0.227,1.042,0.811,0.252c0.382-0.518,0.994-1.559,1.259-2.315c0.224-0.026,0.52-0.02,0.786,0.063 c0.122,0.039,0.291,0.147,0.302,0.247c0.013,0.11,0.017,0.281,0.009,0.502c-0.006,0.227,0.024,0.476,0.084,0.751 c0.657,2.966,3.669,1.501,4.015,0.618c0.754,0.98,1.894,1.293,3.081,1.148c1.343-0.164,2.725-1.089,2.862-2.44 c0.434,0.12,1.05,0.136,1.393-0.15c-0.143,1.785,1.739,2.805,3.491,2.59c1.403-0.172,2.732-1.144,2.857-2.44 c0.581,0.146,1.255,0.126,1.69-0.12c-0.187,2.087-0.337,4.062-0.327,5.232c0.013,1.359,0.317,2.317,0.699,2.872 c0.381,0.556,0.959,0.967,1.744,0.898c1.117-0.101,1.597-0.971,1.777-1.399c0.244-0.58,0.377-1.966,0.185-2.67 c-0.078-0.286-0.341-1.351-0.915-2.371c1.207-0.27,1.628-0.609,1.898-1.042C76.557,11.665,76.589,10.606,76.31,10.476z M58.616,11.975c-0.767,0.095-1.452-0.326-1.527-0.938c-0.077-0.612,0.487-1.187,1.256-1.28c0.77-0.095,1.457,0.325,1.53,0.938 C59.95,11.308,59.387,11.88,58.616,11.975z M66.361,11.975c-0.767,0.095-1.453-0.326-1.528-0.938 c-0.075-0.612,0.488-1.187,1.257-1.28c0.77-0.095,1.455,0.325,1.53,0.938C67.696,11.308,67.133,11.88,66.361,11.975z M73.364,4.271 c0.221-0.918,1.773-1.215,1.349,0.318c-0.438,1.581-1.879,3.317-1.879,3.317S73.071,5.495,73.364,4.271z M73.695,17.891 c-0.116,0.226-0.461,0.422-0.713,0.11c-0.259-0.317-0.494-0.755-0.539-1.513c-0.077-1.276,0.012-2.603,0.054-3.779 c0.226,0.322,0.802,1.307,0.958,1.73c0.251,0.686,0.428,1.29,0.463,1.839C73.976,17.186,73.918,17.451,73.695,17.891z"/> <path class="crop" d="M82.624,5.408V2.065c0-0.83,0.831-1.868,1.867-1.868h3.344L86.383,1.65h-1.892c-0.206,0-0.415,0.207-0.415,0.415v1.89 L82.624,5.408z"/> <path class="crop" d="M87.835,13.399h-3.344c-0.83,0-1.867-0.831-1.867-1.869V8.189l1.453,1.453v1.89c0,0.208,0.209,0.416,0.415,0.416h1.892 L87.835,13.399z"/> <path class="crop" d="M100,8.189v3.342c0,0.831-0.83,1.869-1.868,1.869H94.79l1.452-1.453h1.891c0.207,0,0.415-0.208,0.415-0.416v-1.89 L100,8.189z"/> <path class="crop" d="M94.79,0.197h3.343c0.83,0,1.868,0.83,1.868,1.868v3.343l-1.453-1.453v-1.89c0-0.209-0.207-0.415-0.415-0.415h-1.891 L94.79,0.197z"/></symbol></svg>