<?xml version="1.0" encoding="utf-8"?>
<!-- Generator: Adobe Illustrator 18.1.1, SVG Export Plug-In . SVG Version: 6.00 Build 0)  -->
<svg version="1.1" id="Layer_1" xmlns="http://www.w3.org/2000/svg" xmlns:xlink="http://www.w3.org/1999/xlink" x="0px" y="0px"
	 viewBox="0 0 720 72.2" enable-background="new 0 0 720 72.2" xml:space="preserve">
<g>
	<g>
		<g>
			<defs>
				<path id="SVGID_1_" d="M187.6,24.7h-7.1v22.4h-5.3V24.7h-7.1V20h19.4V24.7L187.6,24.7z M221.9,47.1h-6.1l-5.3-10.8h-3.8v10.8
					h-5.3V20H212c2.7,0,4.8,0.8,6.5,2.4c1.5,1.5,2.3,3.5,2.3,5.9c0,1.8-0.5,3.3-1.5,4.6c-0.9,1.1-2,2-3.5,2.5L221.9,47.1L221.9,47.1
					z M215.5,28.3c0-1.1-0.4-1.9-1.1-2.6c-0.7-0.7-1.6-1-2.8-1h-5v7.1h5c1.1,0,2.1-0.3,2.8-1C215.2,30.2,215.5,29.4,215.5,28.3
					L215.5,28.3L215.5,28.3z M241.1,47.1h-5.3V20h5.3V47.1L241.1,47.1z M276.3,28.5c0,2.4-0.8,4.4-2.4,5.9c-1.7,1.7-3.9,2.5-6.6,2.5
					h-5.2v10.2h-5.3V20h10.5c2.7,0,4.9,0.8,6.6,2.5C275.5,24.1,276.3,26.1,276.3,28.5L276.3,28.5L276.3,28.5z M271,28.5
					c0-1.1-0.4-2-1.1-2.7c-0.7-0.7-1.7-1-2.9-1h-4.9v7.4h4.9c1.2,0,2.1-0.3,2.9-1C270.7,30.5,271,29.6,271,28.5L271,28.5L271,28.5z
					 M307.9,47.1h-17.6V20h5.3v22.4h12.3V47.1L307.9,47.1z M339.5,47.1h-17.8V20h17.8v4.7h-12.5v6.4h10.7v4.7h-10.7v6.6h12.5V47.1
					L339.5,47.1z M390,39.1c0,2.6-0.9,4.6-2.8,6c-1.9,1.5-4.3,2.2-7.2,2.2c-4.2,0-7.5-1.2-9.9-3.6l3.4-3.4c1.5,1.5,3.7,2.3,6.5,2.3
					c3.2,0,4.8-1.1,4.8-3.3c0-1-0.3-1.8-0.8-2.3c-0.5-0.5-1.3-0.8-2.4-1l-3.3-0.5c-4.8-0.7-7.2-3.2-7.2-7.6c0-2.5,0.8-4.4,2.5-6
					c1.7-1.5,4-2.3,6.9-2.3c3.7,0,6.6,1.1,8.7,3.2l-3.3,3.3c-1.3-1.2-3.1-1.9-5.6-1.9c-1.3,0-2.4,0.3-3.1,1
					c-0.7,0.6-1.1,1.5-1.1,2.5c0,0.8,0.3,1.4,0.9,2c0.6,0.5,1.4,0.9,2.5,1l3.2,0.5c2.3,0.3,4,1,5.2,2.1
					C389.3,34.7,390,36.6,390,39.1L390,39.1L390,39.1z M423.5,38.8c-0.5,2.8-1.6,4.9-3.5,6.4c-1.7,1.4-3.9,2.2-6.5,2.2
					c-2.9,0-5.3-1-7.3-3c-1.2-1.2-2-2.8-2.4-4.7c-0.2-1.1-0.3-3.2-0.3-6.1c0-3,0.1-5,0.3-6.1c0.4-1.9,1.1-3.5,2.4-4.7
					c2-2,4.4-3,7.3-3c2.6,0,4.8,0.7,6.6,2.2s2.9,3.6,3.4,6.4h-5.4c-0.6-2.6-2.2-3.8-4.6-3.8c-1.6,0-2.8,0.6-3.7,1.8
					c-0.7,1-1,3.4-1,7.3c0,2.1,0,3.4,0.1,4c0.2,1.7,0.6,2.9,1.3,3.7c0.8,0.9,2,1.4,3.4,1.4c2.4,0,3.9-1.3,4.6-3.8H423.5L423.5,38.8z
					 M456.7,33.6c0,2.9-0.1,5-0.3,6.1c-0.3,1.9-1.1,3.4-2.4,4.7c-2,2-4.4,3-7.3,3c-2.9,0-5.4-1-7.3-3c-1.2-1.2-2-2.8-2.4-4.7
					c-0.2-1.1-0.3-3.2-0.3-6.1c0-3,0.1-5,0.3-6.1c0.4-1.9,1.1-3.5,2.4-4.7c2-2,4.4-3,7.3-3c2.9,0,5.3,1,7.3,3c1.2,1.2,2,2.8,2.4,4.7
					C456.5,28.6,456.7,30.6,456.7,33.6L456.7,33.6L456.7,33.6z M451.4,33.6c0-2.1,0-3.4-0.1-4c-0.2-1.7-0.6-2.9-1.3-3.7
					c-0.9-1-2-1.4-3.4-1.4c-1.4,0-2.6,0.5-3.4,1.4c-0.7,0.8-1.1,2-1.2,3.7c-0.1,0.5-0.1,1.8-0.1,4c0,2.2,0,3.5,0.1,4
					c0.2,1.7,0.6,2.9,1.2,3.7c0.9,1,2,1.4,3.4,1.4c1.6,0,2.8-0.6,3.7-1.8C451,39.8,451.4,37.4,451.4,33.6L451.4,33.6L451.4,33.6z
					 M490.7,33.6c0,2.9-0.1,5-0.3,6.1c-0.3,1.9-1.1,3.4-2.4,4.7c-2,2-4.4,3-7.3,3c-2.9,0-5.4-1-7.3-3c-1.2-1.2-2-2.8-2.4-4.7
					c-0.2-1.1-0.3-3.2-0.3-6.1c0-3,0.1-5,0.3-6.1c0.4-1.9,1.1-3.5,2.4-4.7c2-2,4.4-3,7.3-3c2.9,0,5.3,1,7.3,3c1.2,1.2,2,2.8,2.4,4.7
					C490.5,28.6,490.7,30.6,490.7,33.6L490.7,33.6L490.7,33.6z M485.4,33.6c0-2.1,0-3.4-0.1-4c-0.2-1.7-0.6-2.9-1.3-3.7
					c-0.9-1-2-1.4-3.4-1.4c-1.4,0-2.6,0.5-3.4,1.4c-0.7,0.8-1.1,2-1.2,3.7c-0.1,0.5-0.1,1.8-0.1,4c0,2.2,0,3.5,0.1,4
					c0.2,1.7,0.6,2.9,1.2,3.7c0.9,1,2,1.4,3.4,1.4c1.6,0,2.8-0.6,3.7-1.8C485,39.8,485.4,37.4,485.4,33.6L485.4,33.6L485.4,33.6z
					 M525,28.5c0,2.4-0.8,4.4-2.4,5.9c-1.7,1.7-3.9,2.5-6.6,2.5h-5.2v10.2h-5.3V20h10.5c2.7,0,4.9,0.8,6.6,2.5
					C524.2,24.1,525,26.1,525,28.5L525,28.5L525,28.5z M519.7,28.5c0-1.1-0.4-2-1.1-2.7c-0.7-0.7-1.7-1-2.9-1h-4.9v7.4h4.9
					c1.2,0,2.1-0.3,2.9-1C519.3,30.5,519.7,29.6,519.7,28.5L519.7,28.5L519.7,28.5z M581.8,47.1h-5.3V31.3l-5.2,10.3h-3.6l-5.2-10.3
					v15.8h-5.3V20h5.2l7.1,14.6l7-14.6h5.2V47.1L581.8,47.1z M617.1,37.8c0,2.8-1,5.1-2.9,6.9c-1.9,1.8-4.3,2.6-7.1,2.6
					c-2.8,0-5.2-0.9-7.1-2.6c-1.9-1.8-2.9-4-2.9-6.9V20h5.3v17.6c0,1.5,0.4,2.8,1.3,3.7c0.8,0.9,2,1.3,3.4,1.3
					c1.4,0,2.6-0.4,3.4-1.3c0.8-0.9,1.3-2.1,1.3-3.7V20h5.2V37.8L617.1,37.8z M650,39.1c0,2.6-0.9,4.6-2.8,6
					c-1.9,1.5-4.3,2.2-7.2,2.2c-4.2,0-7.5-1.2-9.9-3.6l3.4-3.4c1.5,1.5,3.7,2.3,6.5,2.3c3.2,0,4.8-1.1,4.8-3.3c0-1-0.3-1.8-0.8-2.3
					c-0.5-0.5-1.3-0.8-2.4-1l-3.3-0.5c-4.8-0.7-7.2-3.2-7.2-7.6c0-2.5,0.8-4.4,2.5-6c1.7-1.5,4-2.3,6.9-2.3c3.7,0,6.6,1.1,8.7,3.2
					l-3.3,3.3c-1.3-1.2-3.1-1.9-5.6-1.9c-1.3,0-2.4,0.3-3.1,1c-0.7,0.6-1.1,1.5-1.1,2.5c0,0.8,0.3,1.4,0.9,2c0.6,0.5,1.4,0.9,2.5,1
					l3.2,0.5c2.3,0.3,4,1,5.2,2.1C649.3,34.7,650,36.6,650,39.1L650,39.1L650,39.1z M669.8,47.1h-5.3V20h5.3V47.1L669.8,47.1z
					 M704.6,38.8c-0.5,2.8-1.6,4.9-3.5,6.4c-1.7,1.4-3.9,2.2-6.5,2.2c-2.9,0-5.3-1-7.3-3c-1.2-1.2-2-2.8-2.4-4.7
					c-0.2-1.1-0.3-3.2-0.3-6.1c0-3,0.1-5,0.3-6.1c0.4-1.9,1.1-3.5,2.4-4.7c2-2,4.4-3,7.3-3c2.6,0,4.8,0.7,6.6,2.2s2.9,3.6,3.4,6.4
					h-5.4c-0.6-2.6-2.2-3.8-4.6-3.8c-1.6,0-2.8,0.6-3.7,1.8c-0.7,1-1,3.4-1,7.3c0,2.1,0,3.4,0.1,4c0.2,1.7,0.6,2.9,1.3,3.7
					c0.8,0.9,2,1.4,3.4,1.4c2.4,0,3.9-1.3,4.6-3.8H704.6L704.6,38.8z M704.6,38.8"/>
			</defs>
			<use xlink:href="#SVGID_1_"  overflow="visible" fill-rule="evenodd" clip-rule="evenodd" fill="#333132"/>
			<clipPath id="SVGID_2_">
				<use xlink:href="#SVGID_1_"  overflow="visible"/>
			</clipPath>
			<rect x="152.8" y="4.4" clip-path="url(#SVGID_2_)" fill="#333132" width="567.2" height="58.3"/>
		</g>
		<g>
			<path fill="#333132" d="M187.6,24.7h-7.1v22.4h-5.3V24.7h-7.1V20h19.4V24.7L187.6,24.7z M221.9,47.1h-6.1l-5.3-10.8h-3.8v10.8
				h-5.3V20H212c2.7,0,4.8,0.8,6.5,2.4c1.5,1.5,2.3,3.5,2.3,5.9c0,1.8-0.5,3.3-1.5,4.6c-0.9,1.1-2,2-3.5,2.5L221.9,47.1L221.9,47.1z
				 M215.5,28.3c0-1.1-0.4-1.9-1.1-2.6c-0.7-0.7-1.6-1-2.8-1h-5v7.1h5c1.1,0,2.1-0.3,2.8-1C215.2,30.2,215.5,29.4,215.5,28.3
				L215.5,28.3L215.5,28.3z M241.1,47.1h-5.3V20h5.3V47.1L241.1,47.1z M276.3,28.5c0,2.4-0.8,4.4-2.4,5.9c-1.7,1.7-3.9,2.5-6.6,2.5
				h-5.2v10.2h-5.3V20h10.5c2.7,0,4.9,0.8,6.6,2.5C275.5,24.1,276.3,26.1,276.3,28.5L276.3,28.5L276.3,28.5z M271,28.5
				c0-1.1-0.4-2-1.1-2.7c-0.7-0.7-1.7-1-2.9-1h-4.9v7.4h4.9c1.2,0,2.1-0.3,2.9-1C270.7,30.5,271,29.6,271,28.5L271,28.5L271,28.5z
				 M307.9,47.1h-17.6V20h5.3v22.4h12.3V47.1L307.9,47.1z M339.5,47.1h-17.8V20h17.8v4.7h-12.5v6.4h10.7v4.7h-10.7v6.6h12.5V47.1
				L339.5,47.1z M390,39.1c0,2.6-0.9,4.6-2.8,6c-1.9,1.5-4.3,2.2-7.2,2.2c-4.2,0-7.5-1.2-9.9-3.6l3.4-3.4c1.5,1.5,3.7,2.3,6.5,2.3
				c3.2,0,4.8-1.1,4.8-3.3c0-1-0.3-1.8-0.8-2.3c-0.5-0.5-1.3-0.8-2.4-1l-3.3-0.5c-4.8-0.7-7.2-3.2-7.2-7.6c0-2.5,0.8-4.4,2.5-6
				c1.7-1.5,4-2.3,6.9-2.3c3.7,0,6.6,1.1,8.7,3.2l-3.3,3.3c-1.3-1.2-3.1-1.9-5.6-1.9c-1.3,0-2.4,0.3-3.1,1c-0.7,0.6-1.1,1.5-1.1,2.5
				c0,0.8,0.3,1.4,0.9,2c0.6,0.5,1.4,0.9,2.5,1l3.2,0.5c2.3,0.3,4,1,5.2,2.1C389.3,34.7,390,36.6,390,39.1L390,39.1L390,39.1z
				 M423.5,38.8c-0.5,2.8-1.6,4.9-3.5,6.4c-1.7,1.4-3.9,2.2-6.5,2.2c-2.9,0-5.3-1-7.3-3c-1.2-1.2-2-2.8-2.4-4.7
				c-0.2-1.1-0.3-3.2-0.3-6.1c0-3,0.1-5,0.3-6.1c0.4-1.9,1.1-3.5,2.4-4.7c2-2,4.4-3,7.3-3c2.6,0,4.8,0.7,6.6,2.2s2.9,3.6,3.4,6.4
				h-5.4c-0.6-2.6-2.2-3.8-4.6-3.8c-1.6,0-2.8,0.6-3.7,1.8c-0.7,1-1,3.4-1,7.3c0,2.1,0,3.4,0.1,4c0.2,1.7,0.6,2.9,1.3,3.7
				c0.8,0.9,2,1.4,3.4,1.4c2.4,0,3.9-1.3,4.6-3.8H423.5L423.5,38.8z M456.7,33.6c0,2.9-0.1,5-0.3,6.1c-0.3,1.9-1.1,3.4-2.4,4.7
				c-2,2-4.4,3-7.3,3c-2.9,0-5.4-1-7.3-3c-1.2-1.2-2-2.8-2.4-4.7c-0.2-1.1-0.3-3.2-0.3-6.1c0-3,0.1-5,0.3-6.1
				c0.4-1.9,1.1-3.5,2.4-4.7c2-2,4.4-3,7.3-3c2.9,0,5.3,1,7.3,3c1.2,1.2,2,2.8,2.4,4.7C456.5,28.6,456.7,30.6,456.7,33.6L456.7,33.6
				L456.7,33.6z M451.4,33.6c0-2.1,0-3.4-0.1-4c-0.2-1.7-0.6-2.9-1.3-3.7c-0.9-1-2-1.4-3.4-1.4c-1.4,0-2.6,0.5-3.4,1.4
				c-0.7,0.8-1.1,2-1.2,3.7c-0.1,0.5-0.1,1.8-0.1,4c0,2.2,0,3.5,0.1,4c0.2,1.7,0.6,2.9,1.2,3.7c0.9,1,2,1.4,3.4,1.4
				c1.6,0,2.8-0.6,3.7-1.8C451,39.8,451.4,37.4,451.4,33.6L451.4,33.6L451.4,33.6z M490.7,33.6c0,2.9-0.1,5-0.3,6.1
				c-0.3,1.9-1.1,3.4-2.4,4.7c-2,2-4.4,3-7.3,3c-2.9,0-5.4-1-7.3-3c-1.2-1.2-2-2.8-2.4-4.7c-0.2-1.1-0.3-3.2-0.3-6.1
				c0-3,0.1-5,0.3-6.1c0.4-1.9,1.1-3.5,2.4-4.7c2-2,4.4-3,7.3-3c2.9,0,5.3,1,7.3,3c1.2,1.2,2,2.8,2.4,4.7
				C490.5,28.6,490.7,30.6,490.7,33.6L490.7,33.6L490.7,33.6z M485.4,33.6c0-2.1,0-3.4-0.1-4c-0.2-1.7-0.6-2.9-1.3-3.7
				c-0.9-1-2-1.4-3.4-1.4c-1.4,0-2.6,0.5-3.4,1.4c-0.7,0.8-1.1,2-1.2,3.7c-0.1,0.5-0.1,1.8-0.1,4c0,2.2,0,3.5,0.1,4
				c0.2,1.7,0.6,2.9,1.2,3.7c0.9,1,2,1.4,3.4,1.4c1.6,0,2.8-0.6,3.7-1.8C485,39.8,485.4,37.4,485.4,33.6L485.4,33.6L485.4,33.6z
				 M525,28.5c0,2.4-0.8,4.4-2.4,5.9c-1.7,1.7-3.9,2.5-6.6,2.5h-5.2v10.2h-5.3V20h10.5c2.7,0,4.9,0.8,6.6,2.5
				C524.2,24.1,525,26.1,525,28.5L525,28.5L525,28.5z M519.7,28.5c0-1.1-0.4-2-1.1-2.7c-0.7-0.7-1.7-1-2.9-1h-4.9v7.4h4.9
				c1.2,0,2.1-0.3,2.9-1C519.3,30.5,519.7,29.6,519.7,28.5L519.7,28.5L519.7,28.5z M581.8,47.1h-5.3V31.3l-5.2,10.3h-3.6l-5.2-10.3
				v15.8h-5.3V20h5.2l7.1,14.6l7-14.6h5.2V47.1L581.8,47.1z M617.1,37.8c0,2.8-1,5.1-2.9,6.9c-1.9,1.8-4.3,2.6-7.1,2.6
				c-2.8,0-5.2-0.9-7.1-2.6c-1.9-1.8-2.9-4.1-2.9-6.9V20h5.3v17.6c0,1.5,0.4,2.8,1.3,3.7c0.8,0.9,2,1.3,3.4,1.3
				c1.4,0,2.6-0.4,3.4-1.3c0.8-0.9,1.3-2.1,1.3-3.7V20h5.2V37.8L617.1,37.8z M650,39.1c0,2.6-0.9,4.6-2.8,6
				c-1.9,1.5-4.3,2.2-7.2,2.2c-4.2,0-7.5-1.2-9.9-3.6l3.4-3.4c1.5,1.5,3.7,2.3,6.5,2.3c3.2,0,4.8-1.1,4.8-3.3c0-1-0.3-1.8-0.8-2.3
				c-0.5-0.5-1.3-0.8-2.4-1l-3.3-0.5c-4.8-0.7-7.2-3.2-7.2-7.6c0-2.5,0.8-4.4,2.5-6c1.7-1.5,4-2.3,6.9-2.3c3.7,0,6.6,1.1,8.7,3.2
				l-3.3,3.3c-1.3-1.2-3.1-1.9-5.6-1.9c-1.3,0-2.4,0.3-3.1,1c-0.7,0.6-1.1,1.5-1.1,2.5c0,0.8,0.3,1.4,0.9,2c0.6,0.5,1.4,0.9,2.5,1
				l3.2,0.5c2.3,0.3,4,1,5.2,2.1C649.3,34.7,650,36.6,650,39.1L650,39.1L650,39.1z M669.8,47.1h-5.3V20h5.3V47.1L669.8,47.1z
				 M704.6,38.8c-0.5,2.8-1.6,4.9-3.5,6.4c-1.7,1.4-3.9,2.2-6.5,2.2c-2.9,0-5.3-1-7.3-3c-1.2-1.2-2-2.8-2.4-4.7
				c-0.2-1.1-0.3-3.2-0.3-6.1c0-3,0.1-5,0.3-6.1c0.4-1.9,1.1-3.5,2.4-4.7c2-2,4.4-3,7.3-3c2.6,0,4.8,0.7,6.6,2.2
				c1.8,1.5,2.9,3.6,3.4,6.4h-5.4c-0.6-2.6-2.2-3.8-4.6-3.8c-1.6,0-2.8,0.6-3.7,1.8c-0.7,1-1,3.4-1,7.3c0,2.1,0,3.4,0.1,4
				c0.2,1.7,0.6,2.9,1.3,3.7c0.8,0.9,2,1.4,3.4,1.4c2.4,0,3.9-1.3,4.6-3.8H704.6L704.6,38.8z M704.6,38.8"/>
		</g>
	</g>
	<g>
		<circle fill="#8560A8" cx="43.7" cy="36.3" r="27.7"/>
		<circle fill="#999999" cx="79.3" cy="36.3" r="27.7"/>
		<circle fill="#6ACFF6" cx="114.9" cy="36.3" r="27.7"/>
	</g>
</g>
<g>
</g>
<g>
</g>
<g>
</g>
<g>
</g>
<g>
</g>
</svg>
